<?xml version="1.0" encoding="UTF-8"?>
<svg version="1.1" xmlns="http://www.w3.org/2000/svg" width="1002" height="542">
<path d="M0 0 C330.66 0 661.32 0 1002 0 C1002 178.86 1002 357.72 1002 542 C671.34 542 340.68 542 0 542 C0 363.14 0 184.28 0 0 Z " fill="#FEFEFE" transform="translate(0,0)"/>
<path d="M0 0 C4.94371648 -0.14962358 9.88608255 -0.25780553 14.83154297 -0.32958984 C16.50951121 -0.35954781 18.18732576 -0.40033042 19.86474609 -0.45263672 C38.03163278 -1.00445996 38.03163278 -1.00445996 46 6 C52.48687763 12.28085289 53.98193709 16.48685371 54.28955078 25.3828125 C54.77032209 38.70155141 57.31600432 48.27175866 67.03515625 58.046875 C75.63878439 65.35449382 84.65248021 67.11602826 95.625 67.3125 C102.9138863 67.45570012 107.55501755 68.4720731 113.3828125 73.2109375 C115 75 115 75 116 78 C116.66 78 117.32 78 118 78 C121.04022492 83.8824817 122.31645858 89.27732875 122.5625 95.875 C122.77924457 107.81217505 122.77924457 107.81217505 127.89453125 118.078125 C128.58933594 118.71234375 129.28414062 119.3465625 130 120 C131.13404853 121.32564577 132.25920668 122.65895263 133.375 124 C139.8681778 131.36804807 147.25024361 134.46686073 157.06542969 135.14208984 C159.27253127 135.23170074 161.47968989 135.30517541 163.6875 135.375 C172.61840644 135.7139618 178.27088937 137.81271157 184.375 144.375 C189.25448721 150.16760762 190.44823825 156.02500924 190.29296875 163.33984375 C190.28872391 164.10680069 190.28447906 164.87375763 190.28010559 165.66395569 C190.2634507 168.08884332 190.22582553 170.51286798 190.1875 172.9375 C190.17243601 174.59178478 190.15875062 176.24608273 190.14648438 177.90039062 C190.11359077 181.93392103 190.06190249 185.96681473 190 190 C185.32270714 190.07476614 180.64577049 190.12888954 175.96801758 190.16479492 C174.38039074 190.17978013 172.79280457 190.20017546 171.20532227 190.22631836 C151.36162761 190.5446664 151.36162761 190.5446664 144.4765625 184.94921875 C143.56003906 183.82966797 143.56003906 183.82966797 142.625 182.6875 C141.68527344 181.57955078 141.68527344 181.57955078 140.7265625 180.44921875 C136.48703126 174.43522307 135.53313879 169.80901915 135.375 162.625 C135.32316173 160.99209456 135.26850112 159.35927613 135.2109375 157.7265625 C135.18354492 156.94055664 135.15615234 156.15455078 135.12792969 155.34472656 C134.93806844 151.86490326 134.48384895 148.45039823 134 145 C133.34 145 132.68 145 132 145 C131.54625 143.865625 131.0925 142.73125 130.625 141.5625 C126.28271806 132.99939854 118.31501594 127.21166195 109.48046875 123.8515625 C104.4822693 122.62865848 99.57473061 122.46312899 94.44799805 122.29956055 C86.00194035 122.01613579 79.75098356 120.502943 73.4375 114.61328125 C68.26236787 108.80532046 67.85343915 102.21862023 67.5 94.8125 C67.18557844 88.84230154 66.75520363 82.93374278 66 77 C64.515 76.505 64.515 76.505 63 76 C62.608125 74.989375 62.21625 73.97875 61.8125 72.9375 C58.66216039 65.02917324 51.82037906 60.44913057 44.39453125 56.91015625 C38.11684603 54.52402141 31.58229387 54.69065777 24.94921875 54.48242188 C16.87573657 54.14549703 16.87573657 54.14549703 13 52 C12.67 51.34 12.34 50.68 12 50 C10.33720673 48.9935725 8.67016516 47.99414593 7 47 C2.58735341 43.12448387 0.41375599 37.89122964 -0.20483398 32.0736084 C-0.49117964 26.84087253 -0.36561026 21.61127221 -0.25 16.375 C-0.22989608 14.78257465 -0.21165221 13.19012467 -0.1953125 11.59765625 C-0.15164294 7.73115311 -0.08283518 3.86585424 0 0 Z " fill="#7ABDB3" transform="translate(65,165)"/>
<path d="M0 0 C4.98041064 -0.09948577 9.96023252 -0.17175686 14.94140625 -0.21972656 C16.63291511 -0.2397406 18.32435567 -0.26696073 20.015625 -0.30175781 C22.45850554 -0.35073065 24.90046511 -0.37307033 27.34375 -0.390625 C28.08991577 -0.41127014 28.83608154 -0.43191528 29.6048584 -0.45318604 C36.51210369 -0.45608386 41.55051942 1.8845395 46.75 6.375 C52.00766607 12.50894375 53.97594192 16.60504083 54.29003906 24.58349609 C54.74864072 35.94047617 57.77241041 44.01064563 63 54 C63.44666016 55.07314453 63.44666016 55.07314453 63.90234375 56.16796875 C65.29399949 58.49069665 66.53375819 58.95207308 69 60 C69.99386719 60.60328125 69.99386719 60.60328125 71.0078125 61.21875 C81.57370833 67.61287146 92.98347785 67.47026933 105 68 C105 68.66 105 69.32 105 70 C105.74121094 70.10054688 106.48242188 70.20109375 107.24609375 70.3046875 C110.30491918 71.07698669 111.7197147 72.04769932 114.0625 74.125 C115.03896484 74.96417969 115.03896484 74.96417969 116.03515625 75.8203125 C121.25886328 81.61520021 122.59309168 86.19457163 122.390625 93.77734375 C122.38496521 94.58869278 122.37930542 95.40004181 122.37347412 96.23597717 C122.3512492 98.8037755 122.30108235 101.37013015 122.25 103.9375 C122.2299169 105.68813076 122.21166931 107.43878359 122.1953125 109.18945312 C122.15143044 113.46018378 122.08250275 117.72984793 122 122 C117.10704853 122.07433779 112.21442817 122.12869027 107.32104492 122.16479492 C105.65757519 122.17985114 103.99414495 122.20030063 102.33081055 122.22631836 C99.93528478 122.26284207 97.54028533 122.27975782 95.14453125 122.29296875 C94.03486748 122.31619453 94.03486748 122.31619453 92.90278625 122.33988953 C88.34974035 122.34136263 85.71387935 121.59663436 82 119 C81.16984375 118.89300781 80.3396875 118.78601563 79.484375 118.67578125 C74.6597865 117.36343249 72.28844956 112.475253 69.87890625 108.3671875 C67.13486315 102.83300445 67.20504271 97.27621085 67.17431641 91.20947266 C67.12274771 81.96800694 64.81772501 72.94099303 58.16796875 66.12109375 C46.99997725 56.6271996 39.01915809 55.09313951 24.51953125 54.28515625 C20.45552513 53.95588605 16.88781721 53.19014813 13 52 C13 51.34 13 50.68 13 50 C12.278125 49.773125 11.55625 49.54625 10.8125 49.3125 C5.94285954 47.04000112 3.55215266 44.23711305 1.36987305 39.34765625 C-0.17760165 35.01262968 -0.39060095 31.12946448 -0.29296875 26.5625 C-0.28872391 25.79695801 -0.28447906 25.03141602 -0.28010559 24.24267578 C-0.26348328 21.82807313 -0.22586506 19.41434489 -0.1875 17 C-0.17243178 15.35027258 -0.15874714 13.70053191 -0.14648438 12.05078125 C-0.11363417 8.0335238 -0.06196973 4.01690948 0 0 Z " fill="#85BE96" transform="translate(65,233)"/>
<path d="M0 0 C4.83799361 -0.09951569 9.67538025 -0.17177037 14.51416016 -0.21972656 C16.1571695 -0.23973571 17.80010859 -0.26695213 19.44287109 -0.30175781 C21.81625788 -0.35075305 24.18869649 -0.37307504 26.5625 -0.390625 C27.64893799 -0.42159271 27.64893799 -0.42159271 28.75732422 -0.45318604 C35.68727107 -0.45617652 41.4651846 2.30238308 46.75 6.75 C47.28109375 7.17796875 47.8121875 7.6059375 48.359375 8.046875 C53.33141083 13.96596528 54.5644348 19.74644997 54.625 27.3125 C54.82779375 34.37728433 55.40051055 41.08958443 57 48 C57.99 48.33 58.98 48.66 60 49 C60.53625 49.845625 61.0725 50.69125 61.625 51.5625 C66.66782488 59.4005986 73.30526833 63.91779725 82.23828125 66.328125 C88.21044865 67.39480495 94.17097955 67.65389098 100.2265625 67.82421875 C104 68 104 68 107 69 C107 69.66 107 70.32 107 71 C107.53625 71.061875 108.0725 71.12375 108.625 71.1875 C112.15376838 72.39471023 114.32338724 74.43976171 117 77 C118.25 79.75 118.25 79.75 119 82 C119.66 82.33 120.32 82.66 121 83 C122.25282725 86.75848174 122.12381835 90.25490919 122.09765625 94.16796875 C122.0962413 94.96278152 122.09482635 95.7575943 122.09336853 96.57649231 C122.08777378 99.11353325 122.07522228 101.65048575 122.0625 104.1875 C122.05748432 105.90820185 122.05292153 107.62890508 122.04882812 109.34960938 C122.03780607 113.5664403 122.02054506 117.78320516 122 122 C117.05628352 122.14962358 112.11391745 122.25780553 107.16845703 122.32958984 C105.49048879 122.35954781 103.81267424 122.40033042 102.13525391 122.45263672 C83.92793449 123.00568811 83.92793449 123.00568811 76 116 C73.52734375 113.55078125 73.52734375 113.55078125 71.9375 111.3125 C71.38964844 110.56613281 70.84179688 109.81976563 70.27734375 109.05078125 C67.58034434 104.72073632 67.76086703 100.31124879 67.5625 95.375 C66.9157662 82.92230046 65.39761306 74.33596629 56.125 65.140625 C54.45734756 63.68861728 52.77000237 62.32440737 51 61 C50.36707031 60.48566406 49.73414063 59.97132813 49.08203125 59.44140625 C42.00283175 54.54042198 32.68020708 54.59031719 24.37060547 54.37841797 C19.88617537 54.2382489 16.23113796 53.67496558 12 52 C12 51.34 12 50.68 12 50 C11.4225 49.773125 10.845 49.54625 10.25 49.3125 C7.41626105 47.65948561 5.96855887 45.60357787 4 43 C3.1646875 42.2265625 3.1646875 42.2265625 2.3125 41.4375 C-0.9958431 37.8140766 -0.12865735 32.34020037 -0.09765625 27.734375 C-0.0962413 26.94097717 -0.09482635 26.14757935 -0.09336853 25.33013916 C-0.08778415 22.80338728 -0.07523454 20.27672496 -0.0625 17.75 C-0.05748298 16.03385545 -0.05292043 14.31770951 -0.04882812 12.6015625 C-0.03781984 8.40100731 -0.02056596 4.20051883 0 0 Z " fill="#85BE97" transform="translate(133,165)"/>
<path d="M0 0 C4.62 0 9.24 0 14 0 C14 31.02 14 62.04 14 94 C9.38 94 4.76 94 0 94 C0 91.36 0 88.72 0 86 C-0.6290625 86.48210937 -1.258125 86.96421875 -1.90625 87.4609375 C-11.12194148 94.26167368 -18.52198444 96.10421416 -30 95 C-37.95877034 93.49834522 -42.70461527 90.01275066 -48.02734375 84.0234375 C-53.38538737 75.81130727 -54.57059931 68.56696368 -54.25 58.875 C-54.23195313 57.823125 -54.21390625 56.77125 -54.1953125 55.6875 C-54.14870351 53.12400578 -54.0833027 50.56251906 -54 48 C-53.34 48 -52.68 48 -52 48 C-51.9175 47.13375 -51.835 46.2675 -51.75 45.375 C-50.29066448 38.80799017 -46.35304996 34.85419597 -41 31 C-37.625 29.6875 -37.625 29.6875 -35 29 C-35 28.34 -35 27.68 -35 27 C-27.84345386 24.78531437 -18.6795332 24.64641154 -11.64453125 27.234375 C-7.46385638 29.51371731 -3.81138858 32.14145857 0 35 C0 23.45 0 11.9 0 0 Z " fill="#262624" transform="translate(363,213)"/>
<path d="M0 0 C4.62 0 9.24 0 14 0 C14 12.21 14 24.42 14 37 C14.66 37 15.32 37 16 37 C16.226875 36.4225 16.45375 35.845 16.6875 35.25 C18.34848222 32.40260191 20.31524561 30.87932807 23 29 C23.66 29 24.32 29 25 29 C25 28.34 25 27.68 25 27 C28.80985105 25.73004965 32.40609619 25.81585211 36.375 25.8125 C37.13039063 25.80025391 37.88578125 25.78800781 38.6640625 25.77539062 C42.90347819 25.76427328 46.12980179 26.04948178 50 28 C50 28.66 50 29.32 50 30 C51.09441406 30.11794922 51.09441406 30.11794922 52.2109375 30.23828125 C58.30164438 31.9017096 62.79905283 38.04846084 66 43.25 C69.38179892 52.54994703 69.65072837 66.42271419 67.015625 75.984375 C62.90167196 84.1489895 54.86129023 91.26971026 46.3125 94.3125 C36.98953939 96.169879 28.38430167 95.65299011 20 91 C17.80483777 89.45021546 15.95787469 87.85482865 14 86 C14 88.64 14 91.28 14 94 C9.38 94 4.76 94 0 94 C0 62.98 0 31.96 0 0 Z " fill="#252523" transform="translate(476,213)"/>
<path d="M0 0 C1.92005859 -0.00773438 1.92005859 -0.00773438 3.87890625 -0.015625 C7.20664848 0.23276849 9.45867957 0.80918858 12.4375 2.25 C12.4375 2.91 12.4375 3.57 12.4375 4.25 C13.4275 4.58 14.4175 4.91 15.4375 5.25 C15.4375 5.91 15.4375 6.57 15.4375 7.25 C18.52559695 9.01462683 19.67062136 9.25 23.4375 9.25 C25.47709535 7.79989257 25.47709535 7.79989257 27.375 5.875 C32.97440342 0.46484083 37.81219855 -0.09328941 45.3125 -0.0625 C46.47845703 -0.08666992 46.47845703 -0.08666992 47.66796875 -0.11132812 C53.81656807 -0.11649502 58.66223549 0.81146034 63.43359375 5.00390625 C63.90925781 5.60074219 64.38492188 6.19757813 64.875 6.8125 C65.61556641 7.71162109 65.61556641 7.71162109 66.37109375 8.62890625 C67.4375 10.25 67.4375 10.25 67.4375 12.25 C68.0975 12.25 68.7575 12.25 69.4375 12.25 C71.947433 18.04282115 71.69293343 23.58391416 71.6328125 29.7734375 C71.6299826 30.87475006 71.62715271 31.97606262 71.62423706 33.11074829 C71.61307478 36.61561108 71.58797711 40.12021492 71.5625 43.625 C71.55246511 46.00650672 71.54334015 48.38801745 71.53515625 50.76953125 C71.51314832 56.59645339 71.47864537 62.42318284 71.4375 68.25 C66.8175 68.25 62.1975 68.25 57.4375 68.25 C57.4281543 66.9182373 57.41880859 65.58647461 57.40917969 64.21435547 C57.36922528 59.26040537 57.30345066 54.3070727 57.22998047 49.35351562 C57.20180256 47.21199491 57.18057225 45.07037082 57.16650391 42.92871094 C57.14503075 39.84516593 57.09835683 36.76285982 57.046875 33.6796875 C57.04564636 32.72633514 57.04441772 31.77298279 57.04315186 30.79074097 C56.91588111 24.97873214 56.25113132 21.70696896 52.4375 17.25 C48.61246469 14.23497217 45.43037869 13.80519589 40.625 13.5625 C38.88283203 13.46388672 38.88283203 13.46388672 37.10546875 13.36328125 C36.22503906 13.32589844 35.34460938 13.28851563 34.4375 13.25 C34.1075 14.24 33.7775 15.23 33.4375 16.25 C32.48875 16.6625 31.54 17.075 30.5625 17.5 C27.20052777 19.38270445 26.40669417 20.62971627 25.02890015 24.14260864 C23.92135319 28.08923411 23.95528854 32.04557707 23.92578125 36.12109375 C23.90783005 37.043423 23.88987885 37.96575226 23.87138367 38.91603088 C23.81753264 41.83980848 23.78346615 44.7634252 23.75 47.6875 C23.71680466 49.67905872 23.68231296 51.67059629 23.64648438 53.66210938 C23.56182074 58.52462303 23.49488974 63.38709107 23.4375 68.25 C18.8175 68.25 14.1975 68.25 9.4375 68.25 C9.4375 53.73 9.4375 39.21 9.4375 24.25 C8.7775 24.25 8.1175 24.25 7.4375 24.25 C4.5625 17.625 4.5625 17.625 3.4375 14.25 C1.04097472 14.16860858 -1.35275436 14.10932991 -3.75 14.0625 C-4.42353516 14.03736328 -5.09707031 14.01222656 -5.79101562 13.98632812 C-11.22461697 13.90681201 -14.07421298 15.31466565 -18.25 18.5625 C-22.23619814 23.68761189 -21.89822606 30.07355111 -21.9765625 36.2421875 C-21.99592865 37.18812775 -22.0152948 38.13406799 -22.0352478 39.1086731 C-22.09477049 42.11402522 -22.14131946 45.11941621 -22.1875 48.125 C-22.22570492 50.16928704 -22.26475811 52.21355842 -22.3046875 54.2578125 C-22.40044954 59.2550803 -22.48458114 64.25242342 -22.5625 69.25 C-27.5125 69.25 -32.4625 69.25 -37.5625 69.25 C-37.5625 46.81 -37.5625 24.37 -37.5625 1.25 C-32.6125 1.25 -27.6625 1.25 -22.5625 1.25 C-22.2325 3.89 -21.9025 6.53 -21.5625 9.25 C-21.05460938 8.76789063 -20.54671875 8.28578125 -20.0234375 7.7890625 C-19.33507812 7.15742188 -18.64671875 6.52578125 -17.9375 5.875 C-17.26460937 5.24851563 -16.59171875 4.62203125 -15.8984375 3.9765625 C-10.92398777 0.29979531 -6.05063782 -0.02442235 0 0 Z " fill="#292927" transform="translate(861.5625,238.75)"/>
<path d="M0 0 C7.22732705 4.33842353 13.78599398 9.42609467 16.4375 17.6875 C17.375 23.5625 17.375 23.5625 17.375 38.5625 C0.215 38.5625 -16.945 38.5625 -34.625 38.5625 C-32.37886104 47.08819606 -32.37886104 47.08819606 -26.625 51.5625 C-19.87539849 54.2623406 -11.5480679 55.0532428 -4.6875 52.25 C-1.6711468 50.70123118 -1.6711468 50.70123118 0.5625 48.8125 C2.375 47.5625 2.375 47.5625 4.28515625 47.79296875 C6.7093969 48.68563306 7.8688051 49.74906454 9.625 51.625 C10.40617188 52.44677734 10.40617188 52.44677734 11.203125 53.28515625 C11.58984375 53.70667969 11.9765625 54.12820313 12.375 54.5625 C10.89514243 58.51448959 8.86055118 59.752182 5.1875 61.6875 C4.26582031 62.18507813 3.34414063 62.68265625 2.39453125 63.1953125 C-3.76876316 65.98593739 -9.32755669 66.9230518 -16 66.875 C-16.7437085 66.87371094 -17.48741699 66.87242187 -18.25366211 66.87109375 C-23.88393497 66.77267316 -28.42769177 65.83041632 -33.625 63.5625 C-33.625 62.9025 -33.625 62.2425 -33.625 61.5625 C-34.305625 61.3975 -34.98625 61.2325 -35.6875 61.0625 C-39.97618222 58.87253461 -42.95259558 55.54955498 -45.625 51.5625 C-46.328125 48.80078125 -46.328125 48.80078125 -46.625 46.5625 C-47.285 46.5625 -47.945 46.5625 -48.625 46.5625 C-50.93290085 37.90787181 -51.63296064 29.36539945 -49.625 20.5625 C-48.965 20.5625 -48.305 20.5625 -47.625 20.5625 C-47.5425 19.69625 -47.46 18.83 -47.375 17.9375 C-45.87335706 11.18010678 -41.25977765 6.35608934 -35.625 2.5625 C-33.40625 1.89453125 -33.40625 1.89453125 -31.625 1.5625 C-31.625 0.9025 -31.625 0.2425 -31.625 -0.4375 C-22.09331641 -4.23791403 -9.33268387 -4.34162227 0 0 Z " fill="#262625" transform="translate(606.625,241.4375)"/>
<path d="M0 0 C1.17272461 -0.01836914 1.17272461 -0.01836914 2.36914062 -0.03710938 C7.36317822 -0.04962576 11.45304074 0.58827678 16.1875 2.1875 C16.1875 2.8475 16.1875 3.5075 16.1875 4.1875 C17.0125 4.331875 17.8375 4.47625 18.6875 4.625 C26.43457037 8.08351356 29.95122957 14.63620232 33.1875 22.1875 C33.1875 28.4575 33.1875 34.7275 33.1875 41.1875 C16.0275 41.1875 -1.1325 41.1875 -18.8125 41.1875 C-16.85518219 48.03811232 -15.67706237 50.69423395 -9.875 54.4375 C-3.48812473 56.7600001 4.51907366 57.64330816 10.9140625 55.10546875 C12.6161864 54.23432274 14.30093738 53.32786397 15.9609375 52.37890625 C18.11122067 51.22831613 19.76383262 50.4545569 22.1875 50.1875 C26.0669788 53.25499487 27.450526 55.37692244 28.1875 60.1875 C15.4443997 68.25166161 4.34384517 71.47448918 -10.90625 68.60546875 C-18.09069462 66.3956466 -23.2876518 62.16450879 -27.8125 56.1875 C-28.14583333 54.85416667 -28.47916667 53.52083333 -28.8125 52.1875 C-29.8025 51.8575 -30.7925 51.5275 -31.8125 51.1875 C-34.21328942 40.29820511 -36.01345501 27.58941003 -30.8125 17.1875 C-30.1525 17.1875 -29.4925 17.1875 -28.8125 17.1875 C-28.565 16.1665625 -28.565 16.1665625 -28.3125 15.125 C-25.74611266 10.09915812 -21.18328028 5.97776009 -15.8125 4.1875 C-15.338125 3.6925 -14.86375 3.1975 -14.375 2.6875 C-10.66680046 -0.87237156 -4.81049309 0.00390779 0 0 Z " fill="#232322" transform="translate(426.8125,238.8125)"/>
<path d="M0 0 C4.94371648 -0.14962358 9.88608255 -0.25780553 14.83154297 -0.32958984 C16.50951121 -0.35954781 18.18732576 -0.40033042 19.86474609 -0.45263672 C38.03163278 -1.00445996 38.03163278 -1.00445996 46 6 C52.48687763 12.28085289 53.98193709 16.48685371 54.28955078 25.3828125 C54.73379562 37.68966383 56.72508284 46.41685784 65 56 C67.86387294 58.549712 70.83753297 60.83431963 74 63 C73.01 63.66 72.02 64.32 71 65 C71.33 65.66 71.66 66.32 72 67 C70.68 67 69.36 67 68 67 C68 67.66 68 68.32 68 69 C68.66 69.33 69.32 69.66 70 70 C69.5359375 71.60875 69.5359375 71.60875 69.0625 73.25 C68.33187904 75.82866222 67.62517096 78.39512102 67 81 C66.896875 80.360625 66.79375 79.72125 66.6875 79.0625 C66.460625 78.381875 66.23375 77.70125 66 77 C64.515 76.505 64.515 76.505 63 76 C62.608125 74.989375 62.21625 73.97875 61.8125 72.9375 C58.66216039 65.02917324 51.82037906 60.44913057 44.39453125 56.91015625 C38.11684603 54.52402141 31.58229387 54.69065777 24.94921875 54.48242188 C16.87573657 54.14549703 16.87573657 54.14549703 13 52 C12.67 51.34 12.34 50.68 12 50 C10.33720673 48.9935725 8.67016516 47.99414593 7 47 C2.58735341 43.12448387 0.41375599 37.89122964 -0.20483398 32.0736084 C-0.49117964 26.84087253 -0.36561026 21.61127221 -0.25 16.375 C-0.22989608 14.78257465 -0.21165221 13.19012467 -0.1953125 11.59765625 C-0.15164294 7.73115311 -0.08283518 3.86585424 0 0 Z " fill="#9CBF5F" transform="translate(65,165)"/>
<path d="M0 0 C4.53489627 -0.04986353 9.0696289 -0.08593637 13.60473633 -0.10986328 C15.14382715 -0.11985006 16.68289935 -0.13344419 18.22192383 -0.15087891 C39.08969016 -0.3811626 39.08969016 -0.3811626 44.75 4.25 C45.86375 5.61125 45.86375 5.61125 47 7 C47.86625 7.94875 48.7325 8.8975 49.625 9.875 C54.25347789 15.96510249 55.45108033 20.89111724 55.29296875 28.33984375 C55.28872391 29.10680069 55.28447906 29.87375763 55.28010559 30.66395569 C55.2634507 33.08884332 55.22582553 35.51286798 55.1875 37.9375 C55.17243601 39.59178478 55.15875062 41.24608273 55.14648438 42.90039062 C55.11359077 46.93392103 55.06190249 50.96681473 55 55 C50.00125335 55.0745169 45.00283467 55.12877437 40.00366211 55.16479492 C38.30536258 55.17982126 36.60710145 55.20024823 34.90893555 55.22631836 C32.45872482 55.26297449 30.00903 55.27978789 27.55859375 55.29296875 C26.43160316 55.31619453 26.43160316 55.31619453 25.28184509 55.33988953 C18.92448875 55.34188966 14.26295733 53.99355765 9.375 49.6875 C8.59125 48.800625 7.8075 47.91375 7 47 C6.55527344 46.49984375 6.11054687 45.9996875 5.65234375 45.484375 C0.66863514 39.73058897 -0.29425647 36.07533009 -0.1953125 28.515625 C-0.1924826 27.70003113 -0.18965271 26.88443726 -0.18673706 26.04412842 C-0.17556558 23.44593472 -0.15046675 20.84808905 -0.125 18.25 C-0.11496627 16.48568207 -0.10584111 14.72135872 -0.09765625 12.95703125 C-0.07563619 8.63788727 -0.04112733 4.31900259 0 0 Z " fill="#83BE95" transform="translate(65,300)"/>
<path d="M0 0 C5.06777847 -0.1747245 10.13375674 -0.30084068 15.20385742 -0.38452148 C16.92356959 -0.41944685 18.6430782 -0.46700728 20.36206055 -0.52807617 C30.12043631 -0.86574605 37.67573915 -1.01935085 45.87768555 4.99584961 C48.20312048 7.19181135 50.16484481 9.3782378 52 12 C52 12.99 52 13.98 52 15 C52.66 15 53.32 15 54 15 C55.25282725 18.75848174 55.12381835 22.25490919 55.09765625 26.16796875 C55.0962413 26.96278152 55.09482635 27.7575943 55.09336853 28.57649231 C55.08777378 31.11353325 55.07522228 33.65048575 55.0625 36.1875 C55.05748432 37.90820185 55.05292153 39.62890508 55.04882812 41.34960938 C55.03780607 45.5664403 55.02054506 49.78320516 55 54 C50.03793273 54.12452103 45.07679432 54.21476742 40.11352539 54.2746582 C38.42879371 54.29964944 36.74416876 54.33365479 35.05981445 54.37719727 C17.02762015 54.83134142 17.02762015 54.83134142 10 49 C9.4006665 48.51184814 8.80133301 48.02369629 8.18383789 47.52075195 C4.98821107 44.63463343 3.25582129 42.34896191 3 38 C2.34 38 1.68 38 1 38 C-0.27159943 34.11040173 -0.12651187 30.21436421 -0.09765625 26.171875 C-0.0962413 25.42286926 -0.09482635 24.67386353 -0.09336853 23.90216064 C-0.08778659 21.51806588 -0.07523745 19.13406622 -0.0625 16.75 C-0.05748266 15.13020969 -0.05292016 13.51041791 -0.04882812 11.890625 C-0.03782308 7.92704688 -0.02057091 3.96353955 0 0 Z " fill="#85BE95" transform="translate(200,165)"/>
<path d="M0 0 C4.95 0 9.9 0 15 0 C15 15.18 15 30.36 15 46 C15.66 46 16.32 46 17 46 C17.65104167 47.7578125 18.30208333 49.515625 18.953125 51.2734375 C20.34178348 53.56368769 21.49125084 54.09897037 24 55 C30.00227672 55.80154627 35.88594794 55.63354784 41.14826965 52.41564941 C44.97474917 49.49030259 47.51772451 45.38862594 48.47158813 40.66430664 C48.66929634 38.10871523 48.71851944 35.59436682 48.70703125 33.03125 C48.72215256 32.11033569 48.73727386 31.18942139 48.75285339 30.24060059 C48.79551297 27.32681374 48.80454729 24.41406716 48.8125 21.5 C48.83566123 19.5129936 48.86102993 17.52601162 48.88867188 15.5390625 C48.95130939 10.69261725 48.98381433 5.84681395 49 1 C51.14576637 0.97314062 53.29162645 0.95366912 55.4375 0.9375 C56.63246094 0.92589844 57.82742188 0.91429687 59.05859375 0.90234375 C62 1 62 1 63 2 C63.09413687 4.05556661 63.11742998 6.11440181 63.11352539 8.17211914 C63.11367142 8.81600082 63.11381744 9.45988251 63.1139679 10.12327576 C63.11326885 12.26060303 63.10547691 14.39784413 63.09765625 16.53515625 C63.09579204 18.01346285 63.09436815 19.49177007 63.09336853 20.97007751 C63.08954359 24.86798802 63.07971352 28.76586149 63.06866455 32.66375732 C63.05844992 36.63846333 63.0538708 40.61317529 63.04882812 44.58789062 C63.03809122 52.39194596 63.02049462 60.19596308 63 68 C58.05 68 53.1 68 48 68 C48 65.03 48 62.06 48 59 C47.02160156 59.83144531 47.02160156 59.83144531 46.0234375 60.6796875 C45.14945313 61.40414062 44.27546875 62.12859375 43.375 62.875 C42.51648438 63.59429687 41.65796875 64.31359375 40.7734375 65.0546875 C33.59936604 70.08664185 25.03885598 70.00316522 16.625 68.60546875 C9.68200443 66.50358532 5.67185875 60.84215988 2.125 54.8125 C0.42865842 50.57164604 -0.12578895 46.66770229 -0.11352539 42.11791992 C-0.11344986 41.17732224 -0.11337433 40.23672455 -0.11329651 39.2676239 C-0.10813522 38.2653627 -0.10297394 37.2631015 -0.09765625 36.23046875 C-0.0962413 35.19432938 -0.09482635 34.15819 -0.09336853 33.09065247 C-0.08778242 29.78957196 -0.07523242 26.48855992 -0.0625 23.1875 C-0.05748321 20.94596452 -0.05292061 18.70442798 -0.04882812 16.46289062 C-0.03781753 10.97523414 -0.02056239 5.48762867 0 0 Z " fill="#2C2C2A" transform="translate(741,239)"/>
<path d="M0 0 C17.49 0 34.98 0 53 0 C53 14 53 14 50.625 17.375 C48 19 48 19 46 19 C45.79503906 19.52464844 45.59007812 20.04929687 45.37890625 20.58984375 C43.39488806 24.05766025 40.69486391 26.69247886 37.9375 29.5625 C33.09345613 34.68514503 28.49377523 39.88753048 24.09765625 45.40234375 C21.46791521 48.65891319 18.72407171 51.82191634 16 55 C28.87 55 41.74 55 55 55 C55 58.96 55 62.92 55 67 C36.19 67 17.38 67 -2 67 C-2 52 -2 52 1.8125 46.8125 C3.52408335 45.1895858 5.25449008 43.58636792 7 42 C8.85513952 40.03604686 10.68675665 38.06385898 12.5 36.0625 C12.96140381 35.56129639 13.42280762 35.06009277 13.89819336 34.54370117 C17.74227585 30.35279432 21.36535222 26.00201454 24.9296875 21.5703125 C27.25282055 18.6861209 29.62911198 15.84506562 32 13 C21.44 13 10.88 13 0 13 C0 8.71 0 4.42 0 0 Z " fill="#282826" transform="translate(637,240)"/>
<path d="M0 0 C4.62 0 9.24 0 14 0 C14 31.02 14 62.04 14 94 C9.38 94 4.76 94 0 94 C0 91.36 0 88.72 0 86 C-1.485 86.99 -1.485 86.99 -3 88 C-5.1875 87.625 -5.1875 87.625 -7 87 C-6.88116174 81.22013897 -6.64635651 76.49362413 -3.4375 71.5625 C-0.12459292 66.2042329 -0.22274229 61.1344856 -1 55 C-2.17878624 50.20574188 -4.43984982 46.18933665 -7 42 C-7.75 39.8125 -7.75 39.8125 -8 38 C-7.67 37.34 -7.34 36.68 -7 36 C-7.66 35.67 -8.32 35.34 -9 35 C-8.67 34.34 -8.34 33.68 -8 33 C-5.36 33.66 -2.72 34.32 0 35 C0 23.45 0 11.9 0 0 Z " fill="#232421" transform="translate(363,213)"/>
<path d="M0 0 C0 0.66 0 1.32 0 2 C0.74765625 2.08507812 1.4953125 2.17015625 2.265625 2.2578125 C5.55642124 3.15102862 6.59822281 4.27572933 8.75 6.875 C9.34296875 7.57367188 9.9359375 8.27234375 10.546875 8.9921875 C13.46990596 13.03099909 13.18322399 17.16119138 13.1875 21.9375 C13.19974609 22.65357422 13.21199219 23.36964844 13.22460938 24.10742188 C13.23515333 27.89973108 13.12309215 30.78599094 11 34 C10.34 34 9.68 34 9 34 C8.814375 34.556875 8.62875 35.11375 8.4375 35.6875 C6.22741868 39.24284821 3.83015821 41.41920061 0 43 C-6.17800794 43.83952024 -11.8369831 43.98663929 -17.5625 41.375 C-25.52755906 33.61417323 -25.52755906 33.61417323 -26 27 C-26.66 27 -27.32 27 -28 27 C-28.47057944 18.33785255 -27.31877064 12.60220985 -21.6875 5.75 C-15.55373448 -0.85756369 -8.62987332 -2.87662444 0 0 Z " fill="#F7F7F6" transform="translate(517,252)"/>
<path d="M0 0 C6.04112422 3.29515866 10.92482043 6.7299125 12.99609375 13.54296875 C14.48509393 21.40963339 14.3159609 28.11105979 9.9375 34.96484375 C6.99972502 38.70591658 4.02496012 41.34584663 -0.5625 42.875 C-8.26596797 43.5100156 -14.35145828 43.76454348 -20.5625 38.875 C-26.32605421 32.79990232 -26.95925192 27.22268442 -26.8125 19.10546875 C-26.37027272 13.39106314 -24.94952579 9.51753054 -21.1875 5.0625 C-14.39870189 -0.59483176 -8.59237531 -2.71338168 0 0 Z " fill="#F8F8F8" transform="translate(349.5625,252.125)"/>
<path d="M0 0 C4.95 0 9.9 0 15 0 C15 22.11 15 44.22 15 67 C10.05 67 5.1 67 0 67 C0 44.89 0 22.78 0 0 Z " fill="#2A2A28" transform="translate(707,240)"/>
<path d="M0 0 C2.14576637 -0.02685938 4.29162645 -0.04633088 6.4375 -0.0625 C7.63246094 -0.07410156 8.82742188 -0.08570313 10.05859375 -0.09765625 C13 0 13 0 14 1 C14.09413687 3.05556661 14.11742998 5.11440181 14.11352539 7.17211914 C14.11367142 7.81600082 14.11381744 8.45988251 14.1139679 9.12327576 C14.11326885 11.26060303 14.10547691 13.39784413 14.09765625 15.53515625 C14.09579204 17.01346285 14.09436815 18.49177007 14.09336853 19.97007751 C14.08954359 23.86798802 14.07971352 27.76586149 14.06866455 31.66375732 C14.05844992 35.63846333 14.0538708 39.61317529 14.04882812 43.58789062 C14.03809122 51.39194596 14.02049462 59.19596308 14 67 C9.38 67 4.76 67 0 67 C0 63.37 0 59.74 0 56 C-1.32 55.67 -2.64 55.34 -4 55 C-5.5625 52.9375 -5.5625 52.9375 -6 50 C-4.97383118 48.31359863 -4.97383118 48.31359863 -3.5715332 46.43945312 C-0.4547977 41.65267054 -0.26785206 37.63500465 -0.29296875 32.03125 C-0.27784744 31.11033569 -0.26272614 30.18942139 -0.24714661 29.24060059 C-0.20448703 26.32681374 -0.19545271 23.41406716 -0.1875 20.5 C-0.16433877 18.5129936 -0.13897007 16.52601162 -0.11132812 14.5390625 C-0.04869061 9.69261725 -0.01618567 4.84681395 0 0 Z " fill="#252523" transform="translate(790,240)"/>
<path d="M0 0 C3.96 0 7.92 0 12 0 C12 3.63 12 7.26 12 11 C13.32 11 14.64 11 16 11 C16.268125 10.38125 16.53625 9.7625 16.8125 9.125 C18 7 18 7 21 5 C21 5.66 21 6.32 21 7 C23.31 7.66 25.62 8.32 28 9 C26.3247185 10.85162692 24.9004312 12.05382097 22.6875 13.25 C18.4366687 16.01798317 14.67243232 19.22889703 13.43536377 24.32687378 C13.21300187 27.0028067 13.1689531 29.62359858 13.1953125 32.30859375 C13.17475296 33.75867577 13.17475296 33.75867577 13.15377808 35.23805237 C13.11659152 38.30501322 13.12018538 41.37034639 13.125 44.4375 C13.10686533 46.52541581 13.08606023 48.61331024 13.0625 50.70117188 C13.010755 55.80105263 12.99556207 60.8998712 13 66 C8.71 66 4.42 66 0 66 C0 44.22 0 22.44 0 0 Z " fill="#1E1E1D" transform="translate(825,241)"/>
<path d="M0 0 C0.99 0 1.98 0 3 0 C3.33 0.66 3.66 1.32 4 2 C4.66 1.67 5.32 1.34 6 1 C5.77183594 1.59167969 5.54367187 2.18335938 5.30859375 2.79296875 C3.64739646 7.35939897 2.7281281 10.19515061 4 15 C3.01 16.485 3.01 16.485 2 18 C14.87 18 27.74 18 41 18 C41 21.96 41 25.92 41 30 C22.19 30 3.38 30 -16 30 C-16 15 -16 15 -11.8125 9.25 C-8.76793563 6.28117106 -5.65869507 4.13987544 -2 2 C-1.34 1.34 -0.68 0.68 0 0 Z " fill="#222220" transform="translate(651,277)"/>
<path d="M0 0 C4.88330886 3.02300072 6.69256556 6.55767128 8 12 C8 13.32 8 14.64 8 16 C-4.87 16 -17.74 16 -31 16 C-31 9.24897959 -31 9.24897959 -27.625 5.75 C-26.99851562 5.08484375 -26.37203125 4.4196875 -25.7265625 3.734375 C-18.85412991 -3.16915457 -8.82008063 -4.12097885 0 0 Z " fill="#EDEDEC" transform="translate(438,253)"/>
<path d="M0 0 C3.7895802 2.44808117 7.12862611 4.831541 9.39453125 8.796875 C9.88953125 12.756875 9.88953125 12.756875 10.39453125 16.796875 C-2.47546875 16.796875 -15.34546875 16.796875 -28.60546875 16.796875 C-28.60546875 10.6334642 -28.38483848 9.29126062 -24.60546875 4.796875 C-21.85546875 3.421875 -21.85546875 3.421875 -19.60546875 2.796875 C-19.60546875 2.136875 -19.60546875 1.476875 -19.60546875 0.796875 C-13.40923241 -1.88257855 -6.2593891 -2.89039257 0 0 Z " fill="#EDEDEC" transform="translate(599.60546875,252.203125)"/>
<path d="M0 0 C1.83643808 2.26023148 3.65919037 4.5089518 5.3203125 6.90234375 C8.91159054 12.01451823 12.81692545 15.52707695 18 19 C17.01 19.66 16.02 20.32 15 21 C15.33 21.66 15.66 22.32 16 23 C14.68 23 13.36 23 12 23 C12 23.66 12 24.32 12 25 C12.66 25.33 13.32 25.66 14 26 C13.690625 27.0725 13.38125 28.145 13.0625 29.25 C12.33187904 31.82866222 11.62517096 34.39512102 11 37 C10.896875 36.360625 10.79375 35.72125 10.6875 35.0625 C10.460625 34.381875 10.23375 33.70125 10 33 C8.515 32.505 8.515 32.505 7 32 C6.608125 30.989375 6.21625 29.97875 5.8125 28.9375 C3.21328034 22.35822523 -2.27948984 17.62682838 -8.5 14.5 C-9.655 14.005 -10.81 13.51 -12 13 C-11.01 12.67 -10.02 12.34 -9 12 C-9.33 11.01 -9.66 10.02 -10 9 C-9.34 9 -8.68 9 -8 9 C-7.67 8.01 -7.34 7.02 -7 6 C-5.35 6 -3.7 6 -2 6 C-1.34 4.02 -0.68 2.04 0 0 Z " fill="#96BF7B" transform="translate(121,209)"/>
<path d="M0 0 C4.93229322 5.72782439 5.14895352 9.6430531 5.09765625 17.046875 C5.0962413 17.81807678 5.09482635 18.58927856 5.09336853 19.3838501 C5.08778534 21.83927338 5.07523595 24.29460442 5.0625 26.75 C5.05748283 28.41796743 5.0529203 30.08593629 5.04882812 31.75390625 C5.03782141 35.83597287 5.02056836 39.91797081 5 44 C0.32270714 44.07476614 -4.35422951 44.12888954 -9.03198242 44.16479492 C-10.61960926 44.17978013 -12.20719543 44.20017546 -13.79467773 44.22631836 C-30.64009595 44.49656571 -30.64009595 44.49656571 -38 41 C-38.66 40.01 -39.32 39.02 -40 38 C-38.52093108 37.97310784 -37.04172517 37.95365379 -35.5625 37.9375 C-34.32693359 37.92009766 -34.32693359 37.92009766 -33.06640625 37.90234375 C-31 38 -31 38 -30 39 C-27.78312006 39.15873955 -25.56144702 39.25133837 -23.33984375 39.31640625 C-22.67537735 39.33718735 -22.01091095 39.35796844 -21.3263092 39.37937927 C-19.19681457 39.44493658 -17.06719332 39.50378785 -14.9375 39.5625 C-13.49673153 39.60567939 -12.05597601 39.64929349 -10.61523438 39.69335938 C-7.0769596 39.80062393 -3.53854131 39.90187371 0 40 C0 39.34 0 38.68 0 38 C0.66 38 1.32 38 2 38 C2 29.42 2 20.84 2 12 C1.67 12 1.34 12 1 12 C0.505 6.06 0.505 6.06 0 0 Z " fill="#86C6DA" transform="translate(250,311)"/>
<path d="M0 0 C3.44652326 2.44128731 4.78056289 3.82966874 5.5625 8 C4.87642343 11.65907504 3.57265686 13.35167676 1 16 C-2.21102274 17.60551137 -5.51699208 17.46807221 -9 17 C-11.5 15.5625 -11.5 15.5625 -13 13 C-13.60332513 9.86845526 -13.64831254 7.12681713 -13 4 C-9.5809719 -0.38062975 -5.26241344 -1.22011602 0 0 Z " fill="#2B2B29" transform="translate(719,212)"/>
<path d="M0 0 C3.04091481 3.02250096 3.95894115 4.64157388 4.45410156 8.96411133 C4.45347337 10.50356326 4.43117411 12.04311332 4.390625 13.58203125 C4.38496521 14.39621017 4.37930542 15.2103891 4.37347412 16.04924011 C4.35116774 18.63760353 4.30098445 21.2245584 4.25 23.8125 C4.22992747 25.57224556 4.21167802 27.33201293 4.1953125 29.09179688 C4.15132207 33.39507005 4.08233627 37.6972966 4 42 C-0.89295147 42.07433779 -5.78557183 42.12869027 -10.67895508 42.16479492 C-12.34242481 42.17985114 -14.00585505 42.20030063 -15.66918945 42.22631836 C-18.06471522 42.26284207 -20.45971467 42.27975782 -22.85546875 42.29296875 C-23.96513252 42.31619453 -23.96513252 42.31619453 -25.09721375 42.33988953 C-29.65138598 42.341363 -32.282902 41.59203662 -36 39 C-36.825 38.9175 -37.65 38.835 -38.5 38.75 C-42.387718 37.5836846 -44.11241666 34.47797271 -46 31 C-46 30.34 -46 29.68 -46 29 C-45.01 28.67 -44.02 28.34 -43 28 C-42.525625 29.134375 -42.05125 30.26875 -41.5625 31.4375 C-40.36377917 34.75740166 -40.36377917 34.75740166 -39 36 C-37.48071962 36.07179964 -35.95832518 36.08392007 -34.4375 36.0625 C-33.61121094 36.05347656 -32.78492188 36.04445313 -31.93359375 36.03515625 C-31.29550781 36.02355469 -30.65742188 36.01195312 -30 36 C-30 36.66 -30 37.32 -30 38 C-29.34 38 -28.68 38 -28 38 C-28 38.66 -28 39.32 -28 40 C-26.081875 39.7525 -26.081875 39.7525 -24.125 39.5 C-16.11038747 38.67769149 -8.04571278 38.92112046 0 39 C1.09282967 35.72151099 1.1293042 33.28559684 1.1328125 29.8359375 C1.13410156 28.63195312 1.13539063 27.42796875 1.13671875 26.1875 C1.13285156 24.929375 1.12898438 23.67125 1.125 22.375 C1.12886719 21.10914063 1.13273437 19.84328125 1.13671875 18.5390625 C1.13542969 17.33765625 1.13414062 16.13625 1.1328125 14.8984375 C1.13112061 13.23820557 1.13112061 13.23820557 1.12939453 11.54443359 C1.28828094 9.0648538 1.28828094 9.0648538 0 8 C-0.14115161 5.32941149 -0.04247107 2.67567762 0 0 Z " fill="#92C4C7" transform="translate(183,313)"/>
<path d="M0 0 C11.88 0 23.76 0 36 0 C36.495 0.99 36.495 0.99 37 2 C25.78 2.33 14.56 2.66 3 3 C2.81849285 17.97472113 2.81849285 17.97472113 3.9765625 32.8828125 C3.98429687 33.58148438 3.99203125 34.28015625 4 35 C3.34 35.66 2.68 36.32 2 37 C0 35 0 35 -0.22705078 31.56005859 C-0.22655041 30.08948026 -0.2154947 28.61887742 -0.1953125 27.1484375 C-0.19329834 26.46241455 -0.19128418 25.7763916 -0.18920898 25.06958008 C-0.17873758 22.50465213 -0.15081496 19.93981941 -0.125 17.375 C-0.08375 11.64125 -0.0425 5.9075 0 0 Z " fill="#A5C083" transform="translate(65,233)"/>
<path d="M0 0 C3.29664181 3.29664181 3.94870524 6.14591474 4.22705078 10.78051758 C4.22673701 12.23522724 4.21560903 13.68996315 4.1953125 15.14453125 C4.1924826 15.91431808 4.18965271 16.68410492 4.18673706 17.47721863 C4.17559157 19.92247425 4.15049781 22.36735612 4.125 24.8125 C4.1149629 26.47590615 4.10583833 28.13931807 4.09765625 29.80273438 C4.07567073 33.86863237 4.04118014 37.93425294 4 42 C-1.0353859 42.04954963 -6.0706289 42.08579037 -11.10620117 42.10986328 C-12.81814039 42.11990208 -14.53006255 42.13353595 -16.24194336 42.15087891 C-18.70691142 42.17522073 -21.17165215 42.18650438 -23.63671875 42.1953125 C-24.77919319 42.21079636 -24.77919319 42.21079636 -25.94474792 42.22659302 C-30.08082741 42.22746036 -33.2812059 41.85778997 -37 40 C-33.81714304 38.40857152 -30.4129558 38.99991716 -26.9296875 39.12109375 C-26.13345978 39.14470474 -25.33723206 39.16831573 -24.51687622 39.19264221 C-21.96940471 39.26932211 -19.4222339 39.35332761 -16.875 39.4375 C-15.14975438 39.49071637 -13.42449402 39.5434568 -11.69921875 39.59570312 C-7.46595478 39.72494307 -3.23294618 39.86075419 1 40 C1.02481819 35.26774472 1.04291583 30.53552779 1.05493164 25.80322266 C1.05994375 24.19514302 1.06675519 22.5870679 1.07543945 20.97900391 C1.08764226 18.66047039 1.09325964 16.34199741 1.09765625 14.0234375 C1.10281754 13.31069672 1.10797882 12.59795593 1.11329651 11.86361694 C1.11374755 7.80143571 0.78775607 3.98511894 0 0 Z " fill="#A5CBBD" transform="translate(116,313)"/>
<path d="M0 0 C2.52561648 3.78842473 2.25391573 6.78533329 2.1953125 11.16796875 C2.1924826 11.96278152 2.18965271 12.7575943 2.18673706 13.57649231 C2.17554705 16.11364838 2.15044491 18.65045072 2.125 21.1875 C2.11496866 22.90819802 2.10584308 24.62890159 2.09765625 26.34960938 C2.07561161 30.56654243 2.04109006 34.78321125 2 39 C-3.07198888 39.07413521 -8.14366268 39.12859451 -13.21606445 39.16479492 C-14.94170627 39.17988516 -16.66730972 39.20035975 -18.39282227 39.22631836 C-20.87265488 39.26269209 -23.35198064 39.27972359 -25.83203125 39.29296875 C-26.98998955 39.31619453 -26.98998955 39.31619453 -28.17134094 39.33988953 C-30.35473633 39.34057617 -30.35473633 39.34057617 -34 39 C-34.99 38.01 -35.98 37.02 -37 36 C-25.78 36.33 -14.56 36.66 -3 37 C-3 36.34 -3 35.68 -3 35 C-2.34 34.67 -1.68 34.34 -1 34 C-1.00523682 33.39639648 -1.01047363 32.79279297 -1.01586914 32.17089844 C-1.18272378 10.01091203 -1.18272378 10.01091203 0 0 Z " fill="#93C9CD" transform="translate(253,248)"/>
<path d="M0 0 C11.88 0 23.76 0 36 0 C36 0.33 36 0.66 36 1 C25.11 1 14.22 1 3 1 C2.938125 5.681875 2.87625 10.36375 2.8125 15.1875 C2.78518799 16.63535889 2.75787598 18.08321777 2.72973633 19.57495117 C2.67570211 28.12572026 3.66372357 35.77254926 6 44 C6.99 44 7.98 44 9 44 C9.33 45.65 9.66 47.3 10 49 C4.14203435 45.00593251 1.69678276 40.88835363 0 34 C-0.61893463 28.14941749 -0.37694472 22.24535068 -0.25 16.375 C-0.1675 10.97125 -0.085 5.5675 0 0 Z " fill="#AFC581" transform="translate(65,165)"/>
<path d="M0 0 C4.53489627 -0.04986353 9.0696289 -0.08593637 13.60473633 -0.10986328 C15.14382715 -0.11985006 16.68289935 -0.13344419 18.22192383 -0.15087891 C39.17903461 -0.38214855 39.17903461 -0.38214855 44.8125 4.375 C45.534375 5.24125 46.25625 6.1075 47 7 C47.763125 7.763125 48.52625 8.52625 49.3125 9.3125 C49.869375 9.869375 50.42625 10.42625 51 11 C50.67 11.66 50.34 12.32 50 13 C48.1875 12.375 48.1875 12.375 46 11 C45.566875 10.01 45.13375 9.02 44.6875 8 C43.26756406 4.72345241 43.26756406 4.72345241 39.91577148 3.83837891 C35.8372105 2.82556738 31.84709562 2.65200638 27.66015625 2.5859375 C26.9791687 2.56829346 26.29818115 2.55064941 25.59655762 2.5324707 C23.08543238 2.47004599 20.57393435 2.42341817 18.0625 2.375 C9.6165625 2.189375 9.6165625 2.189375 1 2 C1.33 14.21 1.66 26.42 2 39 C0 37 0 37 -0.22705078 33.37646484 C-0.22673357 31.82125311 -0.21540299 30.26601949 -0.1953125 28.7109375 C-0.1924826 27.89251373 -0.18965271 27.07408997 -0.18673706 26.23086548 C-0.17552532 23.61209607 -0.15041929 20.99366636 -0.125 18.375 C-0.11497147 16.60156743 -0.1058454 14.82812951 -0.09765625 13.0546875 C-0.07558278 8.70299374 -0.04104644 4.3515545 0 0 Z " fill="#BBD5B9" transform="translate(65,300)"/>
<path d="M0 0 C11.55 0 23.1 0 35 0 C35 0.33 35 0.66 35 1 C34.24904053 1.01981934 33.49808105 1.03963867 32.72436523 1.06005859 C29.29508043 1.15579401 25.86636458 1.26527633 22.4375 1.375 C21.25607422 1.4059375 20.07464844 1.436875 18.85742188 1.46875 C12.91248725 1.66857974 7.61301523 1.97239097 2 4 C1.89603763 16.37632072 1.80315944 28.66826776 3 41 C3.77730469 41.13277344 4.55460938 41.26554687 5.35546875 41.40234375 C8.25288429 42.0571511 9.76198176 43.09354001 12 45 C11.67 45.99 11.34 46.98 11 48 C7.52660947 47.43491477 6.04993024 46.37356664 3.8125 43.6875 C3.30332031 43.09324219 2.79414063 42.49898437 2.26953125 41.88671875 C-0.6146227 37.60042226 -0.131223 32.72137885 -0.09765625 27.734375 C-0.0962413 26.94097717 -0.09482635 26.14757935 -0.09336853 25.33013916 C-0.08778415 22.80338728 -0.07523454 20.27672496 -0.0625 17.75 C-0.05748298 16.03385545 -0.05292043 14.31770951 -0.04882812 12.6015625 C-0.03867198 8.40097965 -0.01909359 4.20058973 0 0 Z " fill="#ADC68B" transform="translate(133,165)"/>
<path d="M0 0 C2.52561648 3.78842473 2.25391573 6.78533329 2.1953125 11.16796875 C2.1924826 11.96278152 2.18965271 12.7575943 2.18673706 13.57649231 C2.17554705 16.11364838 2.15044491 18.65045072 2.125 21.1875 C2.11496866 22.90819802 2.10584308 24.62890159 2.09765625 26.34960938 C2.07561161 30.56654243 2.04109006 34.78321125 2 39 C-3.09031755 39.04936158 -8.18049643 39.08570105 -13.27099609 39.10986328 C-15.00344265 39.11993376 -16.73587216 39.13359089 -18.46826172 39.15087891 C-20.95544639 39.17508162 -23.44240675 39.18647239 -25.9296875 39.1953125 C-26.70682098 39.20563507 -27.48395447 39.21595764 -28.28463745 39.22659302 C-30.19125493 39.22699271 -32.09731036 39.1223214 -34 39 C-34.66 38.34 -35.32 37.68 -36 37 C-35.01604248 36.97494385 -34.03208496 36.9498877 -33.01831055 36.92407227 C-29.36729943 36.8298918 -25.71647384 36.7296971 -22.06567383 36.62768555 C-20.48563985 36.58437695 -18.90556031 36.54269894 -17.32543945 36.50268555 C-15.05405952 36.44488417 -12.78290811 36.3812184 -10.51171875 36.31640625 C-9.80536789 36.29969376 -9.09901703 36.28298126 -8.3712616 36.26576233 C-5.3335176 36.1740253 -2.90376942 35.96792314 0 35 C0 23.45 0 11.9 0 0 Z " fill="#9EC8B8" transform="translate(253,180)"/>
<path d="M0 0 C2.64 0 5.28 0 8 0 C8 0.99 8 1.98 8 3 C8.59949463 3.01981934 9.19898926 3.03963867 9.81665039 3.06005859 C12.56566471 3.15605003 15.31399493 3.26542505 18.0625 3.375 C19.47692383 3.42140625 19.47692383 3.42140625 20.91992188 3.46875 C26.28804592 3.69320118 30.91127182 4.26625906 36 6 C36.99 6.33 37.98 6.66 39 7 C39.6875 9.0625 39.6875 9.0625 40 11 C39.236875 10.690625 38.47375 10.38125 37.6875 10.0625 C35.81210323 9.32106407 33.91315348 8.63771783 32 8 C32 7.34 32 6.68 32 6 C30.91203125 6.03480469 29.8240625 6.06960938 28.703125 6.10546875 C7.06675216 6.58677068 7.06675216 6.58677068 1.1796875 1.39453125 C0.79039062 0.93433594 0.40109375 0.47414063 0 0 Z " fill="#D9F0EB" transform="translate(138,295)"/>
<path d="M0 0 C0.33 0 0.66 0 1 0 C1.12375 0.78375 1.2475 1.5675 1.375 2.375 C1.79117993 5.14057822 1.79117993 5.14057822 4 7 C4.4140625 9.3828125 4.4140625 9.3828125 4.625 12.125 C4.69976562 13.03507812 4.77453125 13.94515625 4.8515625 14.8828125 C4.90054688 15.58148438 4.94953125 16.28015625 5 17 C7.475 17.99 7.475 17.99 10 19 C10 22 10 22 8 25 C0.74876055 16.76886333 -0.43983176 10.97950404 0 0 Z " fill="#7DBBCC" transform="translate(201,324)"/>
<path d="M0 0 C19.07615729 -0.98556496 19.07615729 -0.98556496 26 5 C28.5625 7.8125 28.5625 7.8125 30 10 C27.36 10 24.72 10 22 10 C21.87625 9.360625 21.7525 8.72125 21.625 8.0625 C21.41875 7.381875 21.2125 6.70125 21 6 C20.34 5.67 19.68 5.34 19 5 C19 4.34 19 3.68 19 3 C17.865625 3.020625 16.73125 3.04125 15.5625 3.0625 C12 3 12 3 11 2 C9.15108054 1.76636119 7.29511969 1.58696365 5.4375 1.4375 C4.42558594 1.35371094 3.41367188 1.26992188 2.37109375 1.18359375 C1.19740234 1.09271484 1.19740234 1.09271484 0 1 C0 0.67 0 0.34 0 0 Z " fill="#7DBDCA" transform="translate(220,301)"/>
<path d="M0 0 C5.30188966 -0.07438973 10.60347268 -0.12871511 15.90576172 -0.16479492 C17.70789892 -0.1798424 19.50999973 -0.2002853 21.31201172 -0.22631836 C23.90862021 -0.26288021 26.50474275 -0.27976681 29.1015625 -0.29296875 C30.30191635 -0.31619453 30.30191635 -0.31619453 31.52651978 -0.33988953 C37.30227915 -0.3416108 41.58305749 0.67754701 45.8984375 4.82421875 C46.38570312 5.43910156 46.87296875 6.05398438 47.375 6.6875 C47.87773438 7.31011719 48.38046875 7.93273437 48.8984375 8.57421875 C49.26195312 9.04472656 49.62546875 9.51523437 50 10 C49.67 10.66 49.34 11.32 49 12 C47.1875 11.375 47.1875 11.375 45 10 C44.566875 9.01 44.13375 8.02 43.6875 7 C42.26756406 3.72345241 42.26756406 3.72345241 38.91577148 2.83837891 C34.83714967 1.82555227 30.84699437 1.65223789 26.66015625 1.5859375 C25.89319931 1.56657135 25.12624237 1.5472052 24.33604431 1.5272522 C21.91163894 1.46797442 19.48718472 1.42128089 17.0625 1.375 C15.40818362 1.33677238 13.75388613 1.29771794 12.09960938 1.2578125 C8.06656156 1.16231637 4.03342073 1.07809693 0 1 C0 0.67 0 0.34 0 0 Z " fill="#9FC19E" transform="translate(66,301)"/>
<path d="M0 0 C19.54941229 -1.26448971 19.54941229 -1.26448971 27.3828125 5.078125 C29.08211754 7.09758896 29.62251284 8.41478492 30 11 C27.5625 10.1875 27.5625 10.1875 25 9 C24.67 8.01 24.34 7.02 24 6 C21.05935992 2.89027311 18.33593926 2.63837314 14.15625 2.47851562 C13.4446875 2.46498047 12.733125 2.45144531 12 2.4375 C3.43603702 2.22805525 3.43603702 2.22805525 0 0 Z " fill="#98BF9F" transform="translate(151,233)"/>
<path d="M0 0 C11.88 0.33 23.76 0.66 36 1 C35.01 1.99 34.02 2.98 33 4 C32.34 4 31.68 4 31 4 C31 3.34 31 2.68 31 2 C29.74316406 2.16371094 28.48632812 2.32742188 27.19140625 2.49609375 C21.76361366 3.09918182 16.39279662 3.11185202 10.9375 3.0625 C9.97650391 3.05798828 9.01550781 3.05347656 8.02539062 3.04882812 C5.68352578 3.03717706 3.34179819 3.02082025 1 3 C0.67 2.01 0.34 1.02 0 0 Z " fill="#ECFCFE" transform="translate(219,354)"/>
<path d="M0 0 C0.33 0 0.66 0 1 0 C1.0093457 0.97759277 1.01869141 1.95518555 1.02832031 2.96240234 C1.0685835 6.63439354 1.13443666 10.30557843 1.20751953 13.97705078 C1.23552079 15.55767355 1.25683764 17.13843091 1.27099609 18.71923828 C1.37153359 29.31589045 1.94633861 37.91950792 8 47 C6.68 47 5.36 47 4 47 C-1.2779913 37.76797801 -0.45726861 28.13675147 -0.25 17.875 C-0.22990082 16.13804147 -0.2116561 14.40106043 -0.1953125 12.6640625 C-0.15159511 8.44214513 -0.0827586 4.22132516 0 0 Z " fill="#F7FEDD" transform="translate(64,165)"/>
<path d="M0 0 C0.66 0 1.32 0 2 0 C1.47731534 2.76276177 0.89130413 5.3260876 0 8 C-0.09220107 9.47173776 -0.1306736 10.94725352 -0.1328125 12.421875 C-0.13474609 13.71351563 -0.13474609 13.71351563 -0.13671875 15.03125 C-0.13285156 15.9284375 -0.12898438 16.825625 -0.125 17.75 C-0.12886719 18.63171875 -0.13273437 19.5134375 -0.13671875 20.421875 C-0.12932749 25.38880085 0.15726947 30.10413693 1 35 C0.34 34.67 -0.32 34.34 -1 34 C-4.13597333 23.6822606 -4.94893552 9.89787104 0 0 Z " fill="#535351" transform="translate(396,256)"/>
<path d="M0 0 C5.94 0.99 5.94 0.99 12 2 C12 2.66 12 3.32 12 4 C12.639375 3.835 13.27875 3.67 13.9375 3.5 C19.01913003 2.67034612 24.08480978 2.36160326 29 4 C29 4.66 29 5.32 29 6 C19.0327492 6.49629465 10.3139034 6.12946526 1 2 C0.67 1.34 0.34 0.68 0 0 Z " fill="#E0F5F1" transform="translate(205,227)"/>
<path d="M0 0 C0.99 0 1.98 0 3 0 C3.12117187 1.05316406 3.24234375 2.10632813 3.3671875 3.19140625 C3.8084007 7.00532072 4.26082207 10.81782408 4.71777344 14.62988281 C4.90092338 16.1679621 5.08142041 17.70636049 5.25878906 19.24511719 C5.49762304 21.31032867 5.74744267 23.37392808 6 25.4375 C6.144375 26.65308594 6.28875 27.86867187 6.4375 29.12109375 C6.74469893 32.11695815 6.74469893 32.11695815 9 34 C8.67 34.99 8.34 35.98 8 37 C6 36 6 36 5.18359375 34.1640625 C3.08209383 27.01236121 2.55584777 20.13649946 2.37866211 12.72705078 C2.24238823 8.114631 1.74276054 4.3464028 0 0 Z " fill="#EDFBE8" transform="translate(184,177)"/>
<path d="M0 0 C2.9375 0.8125 2.9375 0.8125 6 2 C6.495 3.485 6.495 3.485 7 5 C8.32303717 5.3721042 9.65737935 5.70630173 11 6 C11.495 6.99 11.495 6.99 12 8 C8.59687262 6.94124926 5.98646769 5.99097846 3 4 C0.24781023 3.75926865 -2.41217466 3.62717312 -5.16796875 3.5859375 C-5.96278152 3.56657135 -6.7575943 3.5472052 -7.57649231 3.5272522 C-10.11338595 3.46750558 -12.65032509 3.42109117 -15.1875 3.375 C-16.90822284 3.33681565 -18.62892665 3.29776365 -20.34960938 3.2578125 C-24.56625165 3.16180821 -28.7829834 3.07775924 -33 3 C-33 2.67 -33 2.34 -33 2 C-22.11 2 -11.22 2 0 2 C0 1.34 0 0.68 0 0 Z " fill="#E1F0CA" transform="translate(98,162)"/>
<path d="M0 0 C3.71599191 -0.20086443 4.77208445 -0.1519437 8 2 C8 2.66 8 3.32 8 4 C19.88 4 31.76 4 44 4 C44 4.33 44 4.66 44 5 C38.84052654 5.07440448 33.68136849 5.12872191 28.52148438 5.16479492 C26.76784827 5.17983995 25.01424953 5.20028104 23.26074219 5.22631836 C20.73362991 5.26289121 18.20701704 5.2797692 15.6796875 5.29296875 C14.51214432 5.31619453 14.51214432 5.31619453 13.3210144 5.33988953 C8.48415041 5.34136998 5.1949312 4.67456328 1 2 C0.67 1.34 0.34 0.68 0 0 Z " fill="#83C2D0" transform="translate(210,349)"/>
<path d="M0 0 C4.1258197 0.08055808 8.25012631 0.19342685 12.375 0.3125 C14.1384375 0.34633789 14.1384375 0.34633789 15.9375 0.38085938 C17.05898437 0.41630859 18.18046875 0.45175781 19.3359375 0.48828125 C20.37282715 0.51446533 21.4097168 0.54064941 22.47802734 0.56762695 C23.31027832 0.71031006 24.1425293 0.85299316 25 1 C25.66 1.99 26.32 2.98 27 4 C23.99931553 3.88505443 20.99987891 3.75832795 18 3.625 C16.74123047 3.57859375 16.74123047 3.57859375 15.45703125 3.53125 C10.04447022 3.27950298 5.21354136 2.48441108 0 1 C0 0.67 0 0.34 0 0 Z " fill="#D5F1F3" transform="translate(212,298)"/>
<path d="M0 0 C13.53 0 27.06 0 41 0 C41.495 1.98 41.495 1.98 42 4 C41.01700928 3.67854004 40.03401855 3.35708008 39.02124023 3.02587891 C34.88079412 1.84756859 30.94519564 1.65379295 26.66015625 1.5859375 C25.89319931 1.56657135 25.12624237 1.5472052 24.33604431 1.5272522 C21.91163894 1.46797442 19.48718472 1.42128089 17.0625 1.375 C15.40818362 1.33677238 13.75388613 1.29771794 12.09960938 1.2578125 C8.06656156 1.16231637 4.03342073 1.07809693 0 1 C0 0.67 0 0.34 0 0 Z " fill="#E0EED0" transform="translate(133,164)"/>
<path d="M0 0 C2.08035027 4.16070054 2.19628926 5.59569904 1.9765625 10.078125 C1.925 11.23828125 1.8734375 12.3984375 1.8203125 13.59375 C1.75585938 14.8003125 1.69140625 16.006875 1.625 17.25 C1.56828125 18.47203125 1.5115625 19.6940625 1.453125 20.953125 C1.31173944 23.9693502 1.16033265 26.9847323 1 30 C1.66 30 2.32 30 3 30 C2.625 32.4375 2.625 32.4375 2 35 C1.01 35.495 1.01 35.495 0 36 C0 24.12 0 12.24 0 0 Z " fill="#EBFDFE" transform="translate(187,319)"/>
<path d="M0 0 C2.85442753 -0.05437005 5.70780076 -0.09384974 8.5625 -0.125 C9.36236328 -0.14175781 10.16222656 -0.15851563 10.98632812 -0.17578125 C16.04964999 -0.21711449 20.24027338 0.21119341 25 2 C25.33 2.66 25.66 3.32 26 4 C24.7934375 3.7834375 24.7934375 3.7834375 23.5625 3.5625 C22.386875 3.376875 21.21125 3.19125 20 3 C19.25363281 2.88140625 18.50726563 2.7628125 17.73828125 2.640625 C16.95839844 2.53234375 16.17851563 2.4240625 15.375 2.3125 C14.27285156 2.15201172 14.27285156 2.15201172 13.1484375 1.98828125 C10.9315892 1.84198265 10.9315892 1.84198265 8.9140625 3.04296875 C8.28242187 3.35878906 7.65078125 3.67460937 7 4 C4.07175348 3.02391783 2.38573379 1.89213369 0 0 Z " fill="#FBFDEA" transform="translate(84,219)"/>
<path d="M0 0 C0.99 0.33 1.98 0.66 3 1 C2.67 1.99 2.34 2.98 2 4 C1.95342416 5.62433238 1.96232897 7.25043671 2 8.875 C2.09270764 18.26164834 1.49511659 27.62965524 1 37 C0.67 37 0.34 37 0 37 C0 24.79 0 12.58 0 0 Z " fill="#94BC93" transform="translate(201,166)"/>
<path d="M0 0 C0.804375 0.15597656 1.60875 0.31195313 2.4375 0.47265625 C7.40143249 1.20744889 12.35622225 1.34806527 17.3671875 1.51757812 C21.91961973 1.72067485 25.70869222 2.30135734 30 4 C26.71104816 5.23335694 24.04234747 4.76379162 20.63671875 4.2578125 C14.79380135 3.68650502 8.86642402 3.93125284 3 4 C3 3.34 3 2.68 3 2 C2.01 1.67 1.02 1.34 0 1 C0 0.67 0 0.34 0 0 Z " fill="#E7F9F5" transform="translate(147,285)"/>
<path d="M0 0 C2.82179677 2.90511754 3.94119343 4.46544831 4.390625 8.55078125 C4.32101563 10.41283203 4.32101563 10.41283203 4.25 12.3125 C4.21390625 13.56675781 4.1778125 14.82101562 4.140625 16.11328125 C4.09421875 17.06589844 4.0478125 18.01851563 4 19 C3.34 19 2.68 19 2 19 C2 16.69 2 14.38 2 12 C1.67 12 1.34 12 1 12 C0.67 8.04 0.34 4.08 0 0 Z " fill="#7EBFD3" transform="translate(250,311)"/>
<path d="M0 0 C0.99 0 1.98 0 3 0 C8.36185982 8.88058032 7.36723241 17.97251513 7 28 C6.67 28 6.34 28 6 28 C5.94392578 26.40671875 5.94392578 26.40671875 5.88671875 24.78125 C5.4225456 14.07693542 5.4225456 14.07693542 2 4 C1.608125 3.175 1.21625 2.35 0.8125 1.5 C0.544375 1.005 0.27625 0.51 0 0 Z " fill="#E5F5DE" transform="translate(113,240)"/>
<path d="M0 0 C3.70867456 0.30853226 7.4168669 0.62253207 11.125 0.9375 C12.17171875 1.02451172 13.2184375 1.11152344 14.296875 1.20117188 C19.23957562 1.62349123 24.12188144 2.06319868 29 3 C29 3.33 29 3.66 29 4 C24.54140138 3.86164197 20.08320214 3.71305421 15.625 3.5625 C14.35398437 3.52318359 13.08296875 3.48386719 11.7734375 3.44335938 C10.56171875 3.40146484 9.35 3.35957031 8.1015625 3.31640625 C6.98088379 3.27974854 5.86020508 3.24309082 4.70556641 3.20532227 C2 3 2 3 0 2 C0 1.34 0 0.68 0 0 Z " fill="#E9FAE6" transform="translate(78,285)"/>
<path d="M0 0 C0.99 0 1.98 0 3 0 C3.33 2.31 3.66 4.62 4 7 C2.35 7.33 0.7 7.66 -1 8 C-1 7.34 -1 6.68 -1 6 C-1.66 6 -2.32 6 -3 6 C-1.125 1.125 -1.125 1.125 0 0 Z " fill="#1D1D1B" transform="translate(887,249)"/>
<path d="M0 0 C0.33 0 0.66 0 1 0 C1 3.3 1 6.6 1 10 C1.99 9.67 2.98 9.34 4 9 C4 9.66 4 10.32 4 11 C2.68 11 1.36 11 0 11 C0 7.37 0 3.74 0 0 Z M11 0 C11.66 0.33 12.32 0.66 13 1 C10.36 3.64 7.72 6.28 5 9 C4.67 8.01 4.34 7.02 4 6 C6.31 4.02 8.62 2.04 11 0 Z " fill="#424240" transform="translate(837,241)"/>
<path d="M0 0 C3.36720387 1.39332574 4.9859524 2.9789286 7 6 C4.86437246 8.13562754 3.93453261 8.63318342 1 9 C0.34 8.34 -0.32 7.68 -1 7 C-0.625 5.0625 -0.625 5.0625 0 3 C0 2.01 0 1.02 0 0 Z " fill="#93BC7B" transform="translate(174,169)"/>
<path d="M0 0 C0.99 0 1.98 0 3 0 C3.66 3.3 4.32 6.6 5 10 C5.99 10 6.98 10 8 10 C8.33 11.65 8.66 13.3 9 15 C4.0875695 11.39755097 1.93248519 8.79745558 0 3 C0 2.01 0 1.02 0 0 Z " fill="#AAC17B" transform="translate(66,199)"/>
<path d="M0 0 C2.85442753 -0.05437005 5.70780076 -0.09384974 8.5625 -0.125 C9.36236328 -0.14175781 10.16222656 -0.15851563 10.98632812 -0.17578125 C16.06500335 -0.21723982 20.18811906 0.35943925 25 2 C22.33333333 2.66666667 19.66666667 3.33333333 17 4 C16.67 3.34 16.34 2.68 16 2 C13.28553021 1.68758545 10.66090639 1.48663408 7.9375 1.375 C6.79958008 1.31699219 6.79958008 1.31699219 5.63867188 1.2578125 C3.75952805 1.16326438 1.87979664 1.08053244 0 1 C0 0.67 0 0.34 0 0 Z " fill="#5D5D5B" transform="translate(418,239)"/>
<path d="M0 0 C0.33 0 0.66 0 1 0 C1.06058594 1.21558594 1.12117187 2.43117188 1.18359375 3.68359375 C1.26798332 5.26824228 1.3526321 6.85287702 1.4375 8.4375 C1.47681641 9.23994141 1.51613281 10.04238281 1.55664062 10.86914062 C1.4054296 14.75239561 1.4054296 14.75239561 3 18 C3.04080783 19.99958364 3.04254356 22.00045254 3 24 C0.38710224 20.99833199 -0.36930244 19.20372689 -0.29296875 15.234375 C-0.28330078 14.34492188 -0.27363281 13.45546875 -0.26367188 12.5390625 C-0.23853516 11.61867188 -0.21339844 10.69828125 -0.1875 9.75 C-0.16719727 8.34621094 -0.16719727 8.34621094 -0.14648438 6.9140625 C-0.11119954 4.60878673 -0.06190281 2.3046894 0 0 Z " fill="#98C5B9" transform="translate(133,317)"/>
<path d="M0 0 C0.33 0.66 0.66 1.32 1 2 C0.34 3.32 -0.32 4.64 -1 6 C-3.97 5.67 -6.94 5.34 -10 5 C-10 5.66 -10 6.32 -10 7 C-10.66 7 -11.32 7 -12 7 C-12.66 5.02 -13.32 3.04 -14 1 C-13.01 1.495 -13.01 1.495 -12 2 C-12 2.66 -12 3.32 -12 4 C-10.3733152 3.71788123 -8.74867104 3.42397625 -7.125 3.125 C-5.76761719 2.88136719 -5.76761719 2.88136719 -4.3828125 2.6328125 C-1.83494012 2.16955297 -1.83494012 2.16955297 0 0 Z " fill="#D7D7D5" transform="translate(722,225)"/>
<path d="M0 0 C1.32 0.33 2.64 0.66 4 1 C4 1.99 4 2.98 4 4 C4.66 4.33 5.32 4.66 6 5 C5.67 5.99 5.34 6.98 5 8 C4.0925 7.38125 3.185 6.7625 2.25 6.125 C-0.14948817 4.55610389 -2.40961612 3.19556179 -5 2 C-3.35 2 -1.7 2 0 2 C0 1.34 0 0.68 0 0 Z " fill="#343432" transform="translate(351,249)"/>
<path d="M0 0 C6.93964566 1.13300337 9.81403505 4.52898198 14 10 C13.67 10.66 13.34 11.32 13 12 C11.1875 11.375 11.1875 11.375 9 10 C8.54625 9.030625 8.0925 8.06125 7.625 7.0625 C5.64715571 3.33502423 3.8449348 2.53797392 0 1 C0 0.67 0 0.34 0 0 Z " fill="#B2D4BC" transform="translate(102,301)"/>
<path d="M0 0 C4.75 1.875 4.75 1.875 7 3 C7 3.99 7 4.98 7 6 C7.66 6 8.32 6 9 6 C9 6.99 9 7.98 9 9 C4.71930097 7.41455592 2.70478088 4.5312417 0 1 C0 0.67 0 0.34 0 0 Z " fill="#E8F7DF" transform="translate(126,216)"/>
<path d="M0 0 C3.82097239 0.53069061 6.06171403 1.49701566 9 4 C8.67 4.99 8.34 5.98 8 7 C6.25 6.875 6.25 6.875 4 6 C1.75 2.9375 1.75 2.9375 0 0 Z " fill="#9ABC85" transform="translate(136,206)"/>
<path d="M0 0 C0.66 0 1.32 0 2 0 C2.12117187 0.84304687 2.24234375 1.68609375 2.3671875 2.5546875 C2.53476563 3.65039062 2.70234375 4.74609375 2.875 5.875 C3.03742188 6.96554688 3.19984375 8.05609375 3.3671875 9.1796875 C3.76256513 12.11932714 3.76256513 12.11932714 6 14 C5.67 14.99 5.34 15.98 5 17 C3 16 3 16 2.1484375 13.671875 C1.89320313 12.70765625 1.63796875 11.7434375 1.375 10.75 C1.11460937 9.79609375 0.85421875 8.8421875 0.5859375 7.859375 C0.02955608 5.14423365 -0.11083497 2.76079823 0 0 Z " fill="#DDF2DE" transform="translate(187,197)"/>
<path d="M0 0 C0.66 0 1.32 0 2 0 C2 2.64 2 5.28 2 8 C1.4121875 7.2265625 1.4121875 7.2265625 0.8125 6.4375 C-0.0846875 5.7259375 -0.0846875 5.7259375 -1 5 C-3.65466049 5.23043864 -3.65466049 5.23043864 -6 6 C-4 4 -2 2 0 0 Z " fill="#CDCDCC" transform="translate(361,299)"/>
<path d="M0 0 C0.66 0 1.32 0 2 0 C2 0.66 2 1.32 2 2 C2.66 2 3.32 2 4 2 C4 2.99 4 3.98 4 5 C4.66 5 5.32 5 6 5 C6.66 7.31 7.32 9.62 8 12 C7.01 12.495 7.01 12.495 6 13 C6 11.68 6 10.36 6 9 C5.01 8.67 4.02 8.34 3 8 C2.05078125 6.15234375 2.05078125 6.15234375 1.3125 3.9375 C1.06113281 3.20402344 0.80976562 2.47054687 0.55078125 1.71484375 C0.36902344 1.14894531 0.18726562 0.58304688 0 0 Z " fill="#A4C59B" transform="translate(125,233)"/>
<path d="M0 0 C1.32 0.66 2.64 1.32 4 2 C4 3.32 4 4.64 4 6 C2.35 6.66 0.7 7.32 -1 8 C-0.67 5.36 -0.34 2.72 0 0 Z " fill="#3C3C3A" transform="translate(451,293)"/>
<path d="M0 0 C2.9375 0.8125 2.9375 0.8125 6 2 C6.33 2.99 6.66 3.98 7 5 C8.32303717 5.3721042 9.65737935 5.70630173 11 6 C11.33 6.66 11.66 7.32 12 8 C7.52761347 6.58192622 3.28853694 4.88695626 -1 3 C-0.67 2.01 -0.34 1.02 0 0 Z " fill="#E8F2D6" transform="translate(98,162)"/>
<path d="M0 0 C3.93673644 1.31224548 6.22719294 2.91910327 9 6 C8.67 6.66 8.34 7.32 8 8 C2.33846154 5.66153846 2.33846154 5.66153846 0.625 2.3125 C0.41875 1.549375 0.2125 0.78625 0 0 Z " fill="#83BFB6" transform="translate(174,305)"/>
<path d="M0 0 C0.99 0.33 1.98 0.66 3 1 C3 2.32 3 3.64 3 5 C3.99 5 4.98 5 6 5 C6.33 6.65 6.66 8.3 7 10 C0.42857143 4.85714286 0.42857143 4.85714286 -1 1 C-0.67 0.67 -0.34 0.34 0 0 Z " fill="#E0F7F5" transform="translate(194,282)"/>
<path d="M0 0 C1.56584311 2.34876467 2.82514963 4.54545647 4.0625 7.0625 C4.40410156 7.75472656 4.74570313 8.44695312 5.09765625 9.16015625 C5.39542969 9.76730469 5.69320312 10.37445313 6 11 C6.33 11.66 6.66 12.32 7 13 C5.68 13 4.36 13 3 13 C2.49242138 11.58603098 1.99425075 10.16868271 1.5 8.75 C1.08234375 7.56664062 1.08234375 7.56664062 0.65625 6.359375 C0 4 0 4 0 0 Z " fill="#E9F2D2" transform="translate(65,199)"/>
<path d="M0 0 C0.69738281 0.00902344 1.39476562 0.01804688 2.11328125 0.02734375 C3.82566958 0.05080112 5.53788004 0.08666896 7.25 0.125 C7.25 0.455 7.25 0.785 7.25 1.125 C6.39535156 1.17398438 5.54070313 1.22296875 4.66015625 1.2734375 C3.55542969 1.34820312 2.45070313 1.42296875 1.3125 1.5 C0.21035156 1.56960937 -0.89179687 1.63921875 -2.02734375 1.7109375 C-2.92582031 1.84757813 -3.82429687 1.98421875 -4.75 2.125 C-5.08 2.785 -5.41 3.445 -5.75 4.125 C-7.73 3.465 -9.71 2.805 -11.75 2.125 C-8.00764681 -0.32489101 -4.30774581 -0.10586143 0 0 Z " fill="#525250" transform="translate(861.75,238.875)"/>
<path d="M0 0 C5.625 -0.25 5.625 -0.25 9 2 C9 2.66 9 3.32 9 4 C9.99 4.33 10.98 4.66 12 5 C7.25081338 4.53439347 3.89217595 3.83067342 0 1 C0 0.67 0 0.34 0 0 Z " fill="#E1F3DD" transform="translate(136,226)"/>
<path d="M0 0 C1.8125 0.875 1.8125 0.875 2.8125 2.875 C0.24036866 4.49449011 -0.86419159 4.91908751 -3.9375 4.5 C-4.68 4.29375 -5.4225 4.0875 -6.1875 3.875 C-2.76553468 -0.15803055 -2.76553468 -0.15803055 0 0 Z " fill="#414141" transform="translate(611.1875,289.125)"/>
<path d="M0 0 C2.8125 -0.3125 2.8125 -0.3125 6 0 C7.9375 2.375 7.9375 2.375 9 5 C8.67 5.66 8.34 6.32 8 7 C6.66382648 6.02471263 5.3311249 5.04466681 4 4.0625 C3.2575 3.51722656 2.515 2.97195312 1.75 2.41015625 C1.1725 1.94480469 0.595 1.47945312 0 1 C0 0.67 0 0.34 0 0 Z " fill="#DCF3E4" transform="translate(172,234)"/>
<path d="M0 0 C3.3 0 6.6 0 10 0 C9.67 1.32 9.34 2.64 9 4 C2.25 2.25 2.25 2.25 0 0 Z " fill="#93BDA8" transform="translate(74,349)"/>
<path d="M0 0 C2 2 2 2 3 5.5625 C3.33 6.696875 3.66 7.83125 4 9 C4.66 9.33 5.32 9.66 6 10 C5.01 10 4.02 10 3 10 C1.61328125 8.5390625 1.61328125 8.5390625 0.3125 6.625 C-0.34298828 5.68527344 -0.34298828 5.68527344 -1.01171875 4.7265625 C-2 3 -2 3 -2 1 C-1.34 0.67 -0.68 0.34 0 0 Z " fill="#92C3BB" transform="translate(139,341)"/>
<path d="M0 0 C0.66 0.99 1.32 1.98 2 3 C1.01 3 0.02 3 -1 3 C-1.268125 3.598125 -1.53625 4.19625 -1.8125 4.8125 C-2.98493467 6.97224808 -4.19369282 8.35790256 -6 10 C-6.66 9.67 -7.32 9.34 -8 9 C-5.36 6.03 -2.72 3.06 0 0 Z " fill="#484847" transform="translate(653,272)"/>
<path d="M0 0 C5.94 0.99 5.94 0.99 12 2 C12.33 2.99 12.66 3.98 13 5 C8.15340923 4.40895235 4.39251833 3.02055843 0 1 C0 0.67 0 0.34 0 0 Z " fill="#D8EFE8" transform="translate(205,227)"/>
<path d="M0 0 C5.07283639 -0.20705455 9.20867943 0.27512459 14 2 C14.33 2.66 14.66 3.32 15 4 C9.94468132 3.22225866 4.98283716 2.14051606 0 1 C0 0.67 0 0.34 0 0 Z " fill="#E7F4D7" transform="translate(95,219)"/>
<path d="M0 0 C2.25 -0.25 2.25 -0.25 5 0 C7.3125 2 7.3125 2 9 4 C8.01 4.495 8.01 4.495 7 5 C1.27272727 2.54545455 1.27272727 2.54545455 0 0 Z " fill="#90C8D6" transform="translate(210,349)"/>
<path d="M0 0 C2.31 0 4.62 0 7 0 C7 1.32 7 2.64 7 4 C7.66 4 8.32 4 9 4 C8.67 4.66 8.34 5.32 8 6 C6.66402348 5.19185349 5.331275 4.37836819 4 3.5625 C3.2575 3.11003906 2.515 2.65757812 1.75 2.19140625 C1.1725 1.79824219 0.595 1.40507812 0 1 C0 0.67 0 0.34 0 0 Z " fill="#E7F6DA" transform="translate(104,234)"/>
<path d="M0 0 C3.3 0 6.6 0 10 0 C10.33 1.32 10.66 2.64 11 4 C7.37 3.01 3.74 2.02 0 1 C0 0.67 0 0.34 0 0 Z " fill="#E9F5DB" transform="translate(164,164)"/>
<path d="M0 0 C1.32 0 2.64 0 4 0 C4 0.99 4 1.98 4 3 C4.66 3 5.32 3 6 3 C6.33 4.32 6.66 5.64 7 7 C6.01 7 5.02 7 4 7 C2.02 3.535 2.02 3.535 0 0 Z " fill="#DDF4F4" transform="translate(180,308)"/>
<path d="M0 0 C0.66 0 1.32 0 2 0 C2 0.66 2 1.32 2 2 C3.65 2 5.3 2 7 2 C7 2.66 7 3.32 7 4 C6.34 4 5.68 4 5 4 C5 4.66 5 5.32 5 6 C3.0625 5.25 3.0625 5.25 1 4 C0.25 1.875 0.25 1.875 0 0 Z " fill="#88BA96" transform="translate(136,272)"/>
<path d="M0 0 C3.77545388 1.09068668 6.47043472 1.9083091 9 5 C8.34 5 7.68 5 7 5 C6.67 5.66 6.34 6.32 6 7 C6 6.34 6 5.68 6 5 C5.01 5 4.02 5 3 5 C3 4.34 3 3.68 3 3 C2.34 3 1.68 3 1 3 C0.67 2.01 0.34 1.02 0 0 Z " fill="#A6BE71" transform="translate(101,166)"/>
<path d="M0 0 C2 1 2 1 2.8515625 3.06640625 C3.10679687 3.89011719 3.36203125 4.71382813 3.625 5.5625 C3.88539063 6.38878906 4.14578125 7.21507812 4.4140625 8.06640625 C4.60742188 8.70449219 4.80078125 9.34257812 5 10 C2 9 2 9 0.8125 7.25 C-0.10819096 4.70039426 -0.14948718 2.69076919 0 0 Z " fill="#E1F7F7" transform="translate(193,302)"/>
<path d="M0 0 C4.75 1.875 4.75 1.875 7 3 C7 3.66 7 4.32 7 5 C4.69 4.67 2.38 4.34 0 4 C0 2.68 0 1.36 0 0 Z " fill="#DDF5F6" transform="translate(212,283)"/>
<path d="M0 0 C0.99 0.33 1.98 0.66 3 1 C3 1.99 3 2.98 3 4 C3.99 4 4.98 4 6 4 C6.33 5.65 6.66 7.3 7 9 C6.34 9 5.68 9 5 9 C2.38953552 6.15222057 0.57323431 3.86933162 0 0 Z " fill="#DAF0E0" transform="translate(125,282)"/>
<path d="M0 0 C0.66 0 1.32 0 2 0 C0.84826645 2.46800047 -0.04783565 4.04783565 -2 6 C-4.625 6.125 -4.625 6.125 -7 6 C-5.73134318 3.46268636 -4.50290879 3.21353154 -2 2 C-1.34 1.34 -0.68 0.68 0 0 Z " fill="#555553" transform="translate(888,245)"/>
<path d="M0 0 C1.9375 0.3125 1.9375 0.3125 4 1 C5.09658936 4.28976808 4.79953138 5.71303767 4 9 C2.47700477 6.06279492 1.19899698 3.0831351 0 0 Z " fill="#90BFAD" transform="translate(129,308)"/>
<path d="M0 0 C0.66 0.66 1.32 1.32 2 2 C-0.97 4.475 -0.97 4.475 -4 7 C-4.66 6.67 -5.32 6.34 -6 6 C-2.25 1.125 -2.25 1.125 0 0 Z " fill="#3E3E3C" transform="translate(528,285)"/>
<path d="M0 0 C0.66 0 1.32 0 2 0 C1.44271087 3.34373475 0.64826111 6.03312999 -1 9 C-2.0326802 6.21176345 -2.04509293 5.1322726 -1.0625 2.25 C-0.711875 1.5075 -0.36125 0.765 0 0 Z " fill="#5F5F5C" transform="translate(396,256)"/>
<path d="M0 0 C0.33 0.66 0.66 1.32 1 2 C0.34 2 -0.32 2 -1 2 C-1.2475 2.61875 -1.495 3.2375 -1.75 3.875 C-3.20628639 6.35068687 -4.37812506 6.95125002 -7 8 C-5.50902342 4.2047869 -3.24299151 2.38957269 0 0 Z " fill="#545452" transform="translate(670,254)"/>
<path d="M0 0 C0.598125 0.309375 1.19625 0.61875 1.8125 0.9375 C4.08956772 2.10209704 4.08956772 2.10209704 7 3 C7 3.66 7 4.32 7 5 C4.03 4.505 4.03 4.505 1 4 C0.67 2.68 0.34 1.36 0 0 Z " fill="#DCF3F4" transform="translate(145,351)"/>
<path d="M0 0 C5.53846154 0.49230769 5.53846154 0.49230769 7.875 3.0625 C8.431875 4.0215625 8.431875 4.0215625 9 5 C8.67 5.66 8.34 6.32 8 7 C6.66382648 6.02471263 5.3311249 5.04466681 4 4.0625 C3.2575 3.51722656 2.515 2.97195313 1.75 2.41015625 C1.1725 1.94480469 0.595 1.47945313 0 1 C0 0.67 0 0.34 0 0 Z " fill="#CCEAF1" transform="translate(240,302)"/>
<path d="M0 0 C0 2.31 0 4.62 0 7 C-0.66 7 -1.32 7 -2 7 C-3.625 4.5 -3.625 4.5 -5 2 C-1.125 0 -1.125 0 0 0 Z " fill="#292929" transform="translate(362,255)"/>
<path d="M0 0 C5.94 1.485 5.94 1.485 12 3 C8 5 8 5 5.859375 4.3203125 C5.16328125 3.92585937 4.4671875 3.53140625 3.75 3.125 C3.04359375 2.73570312 2.3371875 2.34640625 1.609375 1.9453125 C1.07828125 1.63335937 0.5471875 1.32140625 0 1 C0 0.67 0 0.34 0 0 Z " fill="#9FC396" transform="translate(139,229)"/>
<path d="M0 0 C2.02054804 1.64169528 4.02043058 3.30911778 6 5 C6 5.33 6 5.66 6 6 C4.35 6 2.7 6 1 6 C0.67 4.02 0.34 2.04 0 0 Z " fill="#D8EEE1" transform="translate(68,343)"/>
<path d="M0 0 C1.8125 0.875 1.8125 0.875 2.8125 2.875 C-1.6425 3.37 -1.6425 3.37 -6.1875 3.875 C-2.76553468 -0.15803055 -2.76553468 -0.15803055 0 0 Z " fill="#4B4B49" transform="translate(448.1875,289.125)"/>
<path d="M0 0 C1.32 0.33 2.64 0.66 4 1 C4.33 2.98 4.66 4.96 5 7 C3.29115995 5.37660195 1.62553283 3.70680947 0 2 C0 1.34 0 0.68 0 0 Z " fill="#8CBDB7" transform="translate(203,272)"/>
<path d="M0 0 C0.66 0 1.32 0 2 0 C2.66 0.99 3.32 1.98 4 3 C4.99 3.33 5.98 3.66 7 4 C6.67 4.66 6.34 5.32 6 6 C4.125 5.8125 4.125 5.8125 2 5 C0.75 2.4375 0.75 2.4375 0 0 Z " fill="#98BD7F" transform="translate(68,272)"/>
</svg>
