<?xml version="1.0" encoding="UTF-8"?>
<svg version="1.1" xmlns="http://www.w3.org/2000/svg" width="370" height="240">
<path d="M0 0 C122.1 0 244.2 0 370 0 C370 79.2 370 158.4 370 240 C247.9 240 125.8 240 0 240 C0 160.8 0 81.6 0 0 Z " fill="#DEE1E1" transform="translate(0,0)"/>
<path d="M0 0 C11.22 0 22.44 0 34 0 C34 77.55 34 155.1 34 235 C0.67 235 -32.66 235 -67 235 C-67 223.78 -67 212.56 -67 201 C-77.89 201 -88.78 201 -100 201 C-100 167.67 -100 134.34 -100 100 C-89.11 100 -78.22 100 -67 100 C-67 89.11 -67 78.22 -67 67 C-44.89 67 -22.78 67 0 67 C0 44.89 0 22.78 0 0 Z " fill="#76BED1" transform="translate(116,3)"/>
<path d="M0 0 C70.62 0 141.24 0 214 0 C214 0.33 214 0.66 214 1 C203.44 1 192.88 1 182 1 C182 78.55 182 156.1 182 236 C191.57 236 201.14 236 211 236 C211 236.33 211 236.66 211 237 C141.37 237 71.74 237 0 237 C0 158.79 0 80.58 0 0 Z M116 1 C116 23.11 116 45.22 116 68 C93.89 68 71.78 68 49 68 C49 78.89 49 89.78 49 101 C38.11 101 27.22 101 16 101 C16 134.33 16 167.66 16 202 C26.89 202 37.78 202 49 202 C49 213.22 49 224.44 49 236 C82.33 236 115.66 236 150 236 C150 158.45 150 80.9 150 1 C138.78 1 127.56 1 116 1 Z " fill="#FDFEFE" transform="translate(0,2)"/>
<path d="M0 0 C29.04 0 58.08 0 88 0 C88 78.21 88 156.42 88 237 C68.2 237 48.4 237 28 237 C28.66 236.67 29.32 236.34 30 236 C30 224.45 30 212.9 30 201 C20.1 201 10.2 201 0 201 C0 168.33 0 135.66 0 102 C9.57 102 19.14 102 29 102 C28.67 90.78 28.34 79.56 28 68 C14.14 67.505 14.14 67.505 0 67 C0 44.89 0 22.78 0 0 Z " fill="#FEFEFE" transform="translate(282,2)"/>
<path d="M0 0 C10.89 0 21.78 0 33 0 C34.90061023 1.90061023 34.12289225 4.69832149 34.12908131 7.22741705 C34.12471205 8.58293422 34.12471205 8.58293422 34.12025452 9.96583557 C34.12110894 10.9181577 34.12196337 11.87047982 34.12284368 12.85166019 C34.12450139 16.06852454 34.11897238 19.28533766 34.11352539 22.50219727 C34.11324356 24.79788207 34.11340118 27.09356696 34.1139679 29.38925171 C34.11425601 35.64313311 34.10835699 41.89699551 34.10139394 48.15087247 C34.09516276 54.67853783 34.09455679 61.20620358 34.09336853 67.73387146 C34.09060881 78.69717754 34.08435324 89.66047656 34.07543945 100.6237793 C34.0662661 111.91804977 34.05918489 123.21231835 34.05493164 134.5065918 C34.05466892 135.20229904 34.05440619 135.89800629 34.05413551 136.61479557 C34.05283051 140.10481353 34.05156679 143.5948315 34.05032361 147.08484948 C34.03995007 176.05657109 34.02205652 205.02828505 34 234 C22.78 234 11.56 234 0 234 C0 156.78 0 79.56 0 0 Z " fill="#78C0D3" transform="translate(182,3)"/>
<path d="M0 0 C10.89 0 21.78 0 33 0 C33 22.11 33 44.22 33 67 C42.57 67 52.14 67 62 67 C62 77.56 62 88.12 62 99 C52.43 99 42.86 99 33 99 C33 132 33 165 33 199 C22.11 199 11.22 199 0 199 C0 133.33 0 67.66 0 0 Z " fill="#76BFD1" transform="translate(248,4)"/>
<path d="M0 0 C21.78 0 43.56 0 66 0 C66 32.67 66 65.34 66 99 C44.22 99 22.44 99 0 99 C0 66.33 0 33.66 0 0 Z " fill="#FEFEFE" transform="translate(50,104)"/>
<path d="M0 0 C9.9 0 19.8 0 30 0 C30 11.22 30 22.44 30 34 C20.1 34 10.2 34 0 34 C0 22.78 0 11.56 0 0 Z " fill="#CAD44A" transform="translate(281,203)"/>
<path d="M0 0 C11.22 0 22.44 0 34 0 C34 77.55 34 155.1 34 235 C0.67 235 -32.66 235 -67 235 C-67 223.78 -67 212.56 -67 201 C-77.89 201 -88.78 201 -100 201 C-100 200.67 -100 200.34 -100 200 C-89.11 200 -78.22 200 -67 200 C-67 167.33 -67 134.66 -67 101 C-77.89 101 -88.78 101 -100 101 C-100 100.67 -100 100.34 -100 100 C-89.11 100 -78.22 100 -67 100 C-67 89.11 -67 78.22 -67 67 C-44.89 67 -22.78 67 0 67 C0 44.89 0 22.78 0 0 Z M1 1 C0.67 22.78 0.34 44.56 0 67 C-21.78 67.33 -43.56 67.66 -66 68 C-66 122.78 -66 177.56 -66 234 C-33.33 234 -0.66 234 33 234 C33 157.11 33 80.22 33 1 C22.44 1 11.88 1 1 1 Z " fill="#B3DBE6" transform="translate(116,3)"/>
</svg>
