<?xml version="1.0" standalone="no"?>
<!DOCTYPE svg PUBLIC "-//W3C//DTD SVG 20010904//EN"
 "http://www.w3.org/TR/2001/REC-SVG-20010904/DTD/svg10.dtd">
<svg version="1.0" xmlns="http://www.w3.org/2000/svg"
 width="398.000000pt" height="210.000000pt" viewBox="0 0 398.000000 210.000000"
 preserveAspectRatio="xMidYMid meet">

<g transform="translate(0.000000,210.000000) scale(0.100000,-0.100000)"
fill="#000000" stroke="none">
<path d="M0 1050 l0 -1050 1990 0 1990 0 0 1050 0 1050 -1990 0 -1990 0 0
-1050z m858 -52 l-3 -443 -182 -3 -183 -2 -5 23 c-4 14 -5 39 -3 58 l3 34 125
5 125 5 3 192 2 192 -127 3 -128 3 0 55 0 55 125 5 125 5 3 115 c1 63 4 121 7
128 3 7 25 12 60 12 l55 0 -2 -442z m260 17 c1 -231 0 -430 -3 -443 -5 -21
-10 -23 -58 -20 l-52 3 -3 443 -2 443 57 -3 58 -3 3 -420z m252 295 l5 -125
60 -5 60 -5 0 -55 0 -55 -62 -3 -63 -3 -2 -187 -3 -187 -57 -3 -58 -3 0 381 0
381 58 -3 57 -3 5 -125z m378 -62 l2 -188 130 0 130 0 2 188 3 187 63 3 62 3
-2 -443 -3 -443 -54 -3 c-37 -2 -57 1 -62 10 -5 7 -9 92 -9 189 0 152 -2 178
-16 183 -32 12 -221 7 -233 -7 -6 -8 -12 -81 -13 -193 l-3 -179 -48 -3 c-27
-2 -55 2 -63 9 -12 10 -14 81 -14 439 0 234 3 430 7 434 4 4 32 6 63 4 l55 -3
3 -187z m1272 78 c0 -149 -3 -146 146 -146 l114 0 0 -60 0 -59 -127 -3 -128
-3 -3 -180 c-2 -160 -1 -181 15 -192 11 -9 55 -13 130 -13 l114 0 -3 -57 -3
-58 -185 0 -185 0 -3 443 -2 442 60 0 60 0 0 -114z m-632 -399 l2 -248 -62 3
-63 3 -3 235 c-1 129 0 241 3 248 3 9 22 12 62 10 l58 -3 3 -248z m390 -51 c2
-215 -1 -302 -9 -313 -10 -11 -47 -13 -188 -11 l-176 3 -3 58 -3 57 110 0 c60
0 116 3 125 6 14 5 16 37 16 248 0 134 3 246 7 250 4 4 32 6 63 4 l55 -3 3
-299z m-2303 -6 l0 -185 -57 -3 -58 -3 0 184 c0 101 3 187 7 191 4 4 30 6 58
4 l50 -3 0 -185z m2940 0 l0 -185 -62 -3 -63 -3 0 191 0 191 63 -3 62 -3 0
-185z m-1917 -257 l-3 -58 -55 0 -55 0 -3 58 -3 57 61 0 61 0 -3 -57z"/>
</g>
</svg>
