<?xml version="1.0" encoding="UTF-8"?>
<svg version="1.1" xmlns="http://www.w3.org/2000/svg" width="636" height="734">
<path d="M0 0 C209.88 0 419.76 0 636 0 C636 242.22 636 484.44 636 734 C426.12 734 216.24 734 0 734 C0 491.78 0 249.56 0 0 Z " fill="#4DA853" transform="translate(0,0)"/>
<path d="M0 0 C209.88 0 419.76 0 636 0 C636 242.22 636 484.44 636 734 C426.12 734 216.24 734 0 734 C0 491.78 0 249.56 0 0 Z M35 29 C35 42.2 35 55.4 35 69 C55.13 69 75.26 69 96 69 C94.68 72.96 93.36 76.92 92 81 C91.65208828 84.47097544 91.4569726 87.60606907 91.49384212 91.05825615 C91.48772877 91.9998902 91.48161541 92.94152426 91.47531679 93.91169268 C91.45981088 97.04302304 91.47254482 100.1735684 91.4853363 103.30490112 C91.48000713 105.58217446 91.47293931 107.85944428 91.46428925 110.13670743 C91.44568444 116.3763113 91.45195964 122.61567747 91.46244228 128.85529113 C91.46872101 134.89919509 91.45622194 140.94304281 91.44438729 146.98693129 C91.41948722 160.10732106 91.41755593 173.22763855 91.42566141 186.34804505 C91.43274061 197.83132444 91.4327854 209.31457583 91.42579842 220.79785538 C91.42488708 222.33960427 91.42397631 223.88135316 91.42306613 225.42310206 C91.42168296 227.74652283 91.42029187 230.06994359 91.41887999 232.39336434 C91.40590375 253.98751039 91.40077925 275.58164709 91.4124136 297.1757946 C91.41285157 297.98938822 91.41328954 298.80298183 91.41374078 299.64122979 C91.41734742 306.24772136 91.42118229 312.8542128 91.42503171 319.46070423 C91.43987804 345.22823665 91.43110007 370.99566306 91.40307617 396.76318359 C91.37163251 425.73034213 91.35668324 454.69743792 91.36687618 483.66461384 C91.36791292 486.75458025 91.36890016 489.84454666 91.3698597 492.93451309 C91.37010858 493.69531023 91.37035747 494.45610737 91.3706139 495.23995897 C91.3740506 506.71279931 91.36476067 518.18558415 91.34908867 529.65841293 C91.33130179 542.70927676 91.33121445 555.76000573 91.35444032 568.81086384 C91.36582298 575.46777221 91.36874705 582.12448216 91.35013962 588.78139496 C91.33331347 594.87957749 91.33971575 600.9772853 91.36435641 607.0754372 C91.36923297 609.27719522 91.36574252 611.47899168 91.35286897 613.68071745 C91.27421774 628.182905 91.43933172 642.45018445 102.1875 653.5 C102.6609082 653.98718506 103.13431641 654.47437012 103.62207031 654.97631836 C107.91043494 659.23401105 112.56336518 662.40990511 118 665 C118.89498451 665.51113814 119.78996902 666.02227629 120.71207428 666.54890347 C126.77925167 669.10690136 133.62209848 668.42320546 140.09118652 668.40113831 C141.6457171 668.40674594 143.20024346 668.41364938 144.75476313 668.42173427 C149.01983207 668.44006787 153.28472442 668.43968994 157.54982376 668.43615115 C162.15264855 668.43553858 166.75541689 668.45210086 171.35821533 668.46632385 C180.37473569 668.49123603 189.39119722 668.49948812 198.40774912 668.50116099 C205.7401284 668.50258721 213.0724883 668.5087552 220.40486145 668.51826286 C241.20511505 668.54468382 262.00532222 668.55852127 282.80559272 668.55627144 C283.92677837 668.55615157 285.04796402 668.5560317 286.203125 668.5559082 C287.32568422 668.55578556 288.44824343 668.55566292 289.6048196 668.55553656 C307.78466022 668.55431803 325.96431419 668.58300457 344.14410084 668.6253233 C362.82238315 668.66845825 381.50057452 668.68913133 400.17890787 668.68654197 C410.66066779 668.68554737 421.14223217 668.69373066 431.62394714 668.72607613 C440.55146911 668.75344921 449.47870695 668.75987 458.4062528 668.73954786 C462.95710746 668.72977985 467.50741768 668.72947968 472.05821991 668.7556076 C476.2336112 668.77933232 480.40803032 668.77478046 484.58339912 668.74875521 C486.08479717 668.74417814 487.58626935 668.74949268 489.08757991 668.76633544 C502.38115542 668.90545943 514.72014892 665.81360177 525.07421875 656.98046875 C534.08240283 647.71647417 539.08563561 637.55555785 539.16774082 624.69836712 C539.17368821 623.96970238 539.1796356 623.24103765 539.18576321 622.49029216 C539.20449366 620.0415254 539.21622664 617.59277643 539.22792053 615.14396667 C539.23981155 613.37326297 539.25208854 611.60256181 539.26471895 609.83186322 C539.29806254 604.95999258 539.32497265 600.08810462 539.35061038 595.21618807 C539.37331942 591.03873841 539.39959153 586.86131378 539.42571253 582.68388429 C539.67190918 543.06703173 539.80436793 503.44951636 539.91112614 463.83207226 C539.92527339 458.67426161 539.93968972 453.5164518 539.9543457 448.35864258 C539.95797717 447.07671209 539.96160863 445.79478159 539.96535014 444.47400472 C540.02586214 423.71748829 540.14581526 402.96173201 540.28858025 382.20563634 C540.43398142 360.88887567 540.51855318 339.5725105 540.54608625 318.25526792 C540.56490522 305.11125246 540.63036667 291.96919639 540.75601696 278.825761 C540.83758997 269.81002339 540.85968323 260.79534502 540.83553524 251.77927604 C540.82332882 246.58109048 540.83671185 241.38639506 540.92074585 236.1887989 C542.4086912 213.08441573 542.4086912 213.08441573 533.48979324 192.88341361 C530.82428492 190.46646045 528.05031833 188.43191265 525.03269994 186.47879708 C521.44126868 183.86601693 518.81500663 180.40145747 516 177 C514.70270129 175.62973388 513.39108837 174.27258677 512.05432129 172.9407959 C511.35643997 172.24298508 510.65855865 171.54517426 509.93952942 170.82621765 C509.19958237 170.09143692 508.45963531 169.35665619 507.69726562 168.59960938 C506.89794113 167.80174515 506.09861664 167.00388092 505.27507019 166.18183899 C503.55202607 164.46257849 501.82782843 162.74447341 500.10258484 161.02742004 C497.36729749 158.30498045 494.63521982 155.57935569 491.90393066 152.85290527 C486.10542508 147.06578767 480.30303096 141.28257927 474.5 135.5 C467.77169304 128.79540569 461.04509127 122.08912059 454.32267761 115.37861633 C451.63989934 112.70228838 448.95411109 110.02900673 446.26818848 107.35583496 C444.61288813 105.70416947 442.95772933 104.05236211 441.30273438 102.40039062 C440.56278732 101.66560989 439.82284027 100.93082916 439.06047058 100.17378235 C433.25279426 94.36669268 427.55237143 88.43374806 422.82446289 81.6953125 C406.76624027 59.47822072 406.76624027 59.47822072 383.09053326 47.588377 C364.0315742 44.80561816 344.02478787 46.88750105 325 49 C325 42.4 325 35.8 325 29 C229.3 29 133.6 29 35 29 Z " fill="#FEFEFE" transform="translate(0,0)"/>
<path d="M0 0 C94.38 0 188.76 0 286 0 C286 67.65 286 135.3 286 205 C191.62 205 97.24 205 0 205 C0 137.35 0 69.7 0 0 Z " fill="#FDFEFD" transform="translate(172,287)"/>
<path d="M0 0 C95.7 0 191.4 0 290 0 C290 12.87 290 25.74 290 39 C288.13316344 40.86683656 285.45033075 40.13255481 282.96511894 40.14593023 C281.65250309 40.14535103 281.65250309 40.14535103 280.31336975 40.14476013 C278.92988056 40.1500504 278.92988056 40.1500504 277.51844209 40.15544754 C274.40299617 40.1661907 271.28758076 40.16982519 268.17211914 40.17358398 C265.94864267 40.17988485 263.72516747 40.18665012 261.50169373 40.19384766 C256.70150579 40.20854872 251.90132284 40.22026068 247.1011219 40.22979546 C239.51835441 40.24520055 231.93562925 40.26914847 224.35289001 40.29469299 C213.72753503 40.32983682 203.1021775 40.36292888 192.47680664 40.39282227 C191.80201782 40.39472276 191.12722901 40.39662325 190.43199205 40.39858133 C180.85382005 40.42541836 171.27564292 40.44928973 161.69746029 40.47196633 C160.68573185 40.47436229 160.68573185 40.47436229 159.65356445 40.47680664 C158.97989698 40.47840011 158.30622951 40.47999357 157.61214788 40.48163532 C146.39105697 40.50837608 135.17000514 40.54287983 123.94895452 40.58346039 C116.40367202 40.61031331 108.85843718 40.62816886 101.31311619 40.63949764 C96.62692954 40.64859275 91.94080099 40.66593967 87.25464821 40.68567657 C85.07370665 40.6931803 82.89275023 40.69723482 80.71179581 40.69767189 C77.74561857 40.69874674 74.77974041 40.71192499 71.81361389 40.72825623 C70.50434412 40.72433094 70.50434412 40.72433094 69.16862446 40.72032636 C64.6073631 40.55462863 64.6073631 40.55462863 61 43 C61 42.01 61 41.02 61 40 C40.87 40 20.74 40 0 40 C0 26.8 0 13.6 0 0 Z " fill="#405343" transform="translate(35,29)"/>
<path d="M0 0 C3.52651802 1.76325901 5.22860047 2.97988769 7.9230957 5.68017578 C8.68100906 6.43501251 9.43892242 7.18984924 10.21980286 7.96755981 C11.03027573 8.7852182 11.8407486 9.60287659 12.67578125 10.4453125 C13.5191655 11.28915497 14.36254974 12.13299744 15.23149109 13.00241089 C17.01664322 14.79058438 18.79936398 16.58118794 20.57983398 18.37402344 C23.28648825 21.09881396 26.00093764 23.81563746 28.71679688 26.53125 C30.45359525 28.27296871 32.18993794 30.01514195 33.92578125 31.7578125 C35.13238152 32.966082 35.13238152 32.966082 36.36335754 34.19876099 C37.13072739 34.97251068 37.89809723 35.74626038 38.6887207 36.54345703 C39.35394241 37.21249054 40.01916412 37.88152405 40.70454407 38.5708313 C42.61454789 40.59209489 44.43541266 42.64837919 46.25053406 44.75350952 C50.08543743 49.15979511 54.15918516 53.28577173 58.30273438 57.40039062 C59.10205887 58.19825485 59.90138336 58.99611908 60.72492981 59.81816101 C62.44797393 61.53742151 64.17217157 63.25552659 65.89741516 64.97257996 C68.63270251 67.69501955 71.36478018 70.42064431 74.09606934 73.14709473 C79.89457492 78.93421233 85.69696904 84.71742073 91.5 90.5 C98.22830696 97.20459431 104.95490873 103.91087941 111.67732239 110.62138367 C114.36010066 113.29771162 117.04588891 115.97099327 119.73181152 118.64416504 C121.38711187 120.29583053 123.04227067 121.94763789 124.69726562 123.59960938 C125.43721268 124.33439011 126.17715973 125.06917084 126.93952942 125.82621765 C130.9680743 129.85435559 134.81682675 133.97758653 138.52298737 138.30500031 C141.00988041 141.15892508 143.75786859 143.72760917 146.49609375 146.3359375 C148 148 148 148 148 150 C99.16 150 50.32 150 0 150 C0 100.5 0 51 0 0 Z " fill="#398338" transform="translate(389,51)"/>
<path d="M0 0 C28.71 0 57.42 0 87 0 C87 14.19 87 28.38 87 43 C85.21142938 44.78857062 82.79876866 44.11990579 80.41790771 44.12442017 C79.21705536 44.11902725 79.21705536 44.11902725 77.99194336 44.11352539 C77.15299026 44.11367142 76.31403717 44.11381744 75.44966125 44.1139679 C72.66302956 44.1132685 69.87646384 44.10547485 67.08984375 44.09765625 C65.16313209 44.09579217 63.23641995 44.09436822 61.30970764 44.09336853 C56.22812603 44.08954259 51.1465728 44.07971166 46.06500244 44.06866455 C39.97356503 44.05665785 33.88211815 44.05204855 27.7906723 44.04621124 C18.5270951 44.03649994 9.26358024 44.01734392 0 44 C0 29.48 0 14.96 0 0 Z " fill="#51AB58" transform="translate(210,410)"/>
<path d="M0 0 C21.42256072 -0.04010881 21.42256072 -0.04010881 30.52148438 -0.04882812 C36.7414637 -0.05481674 42.96142838 -0.06191752 49.18139648 -0.07543945 C54.19342268 -0.08626776 59.20543318 -0.09227671 64.21747017 -0.09487724 C66.13412282 -0.09673159 68.05077457 -0.1003524 69.96742058 -0.10573006 C72.64228072 -0.11293975 75.31707514 -0.11399097 77.99194336 -0.11352539 C78.7925116 -0.11712067 79.59307983 -0.12071594 80.41790771 -0.12442017 C85.88594784 -0.11405216 85.88594784 -0.11405216 87 1 C87 15.19 87 29.38 87 44 C58.29 44 29.58 44 0 44 C0 29.48 0 14.96 0 0 Z " fill="#51AB58" transform="translate(210,324)"/>
<path d="M0 0 C28.38 0 56.76 0 86 0 C86 14.19 86 28.38 86 43 C57.62 43 29.24 43 0 43 C0 28.81 0 14.62 0 0 Z " fill="#4EAA55" transform="translate(334,410)"/>
<path d="M0 0 C28.38 0 56.76 0 86 0 C86 14.19 86 28.38 86 43 C57.62 43 29.24 43 0 43 C0 28.81 0 14.62 0 0 Z " fill="#4EAA55" transform="translate(334,325)"/>
<path d="M0 0 C6.8359375 -0.1953125 6.8359375 -0.1953125 9 0 C11 2 11 2 11.265625 3.875 C11.26046875 4.57625 11.2553125 5.2775 11.25 6 C11.25515625 6.70125 11.2603125 7.4025 11.265625 8.125 C11 10 11 10 9 12 C6.375 12.125 6.375 12.125 4 12 C3.67 13.32 3.34 14.64 3 16 C2.01 16 1.02 16 0 16 C0 10.72 0 5.44 0 0 Z " fill="#CFD5D0" transform="translate(234,44)"/>
<path d="M0 0 C2.97 0 5.94 0 9 0 C9.05384521 2.29141286 9.09272087 4.58318188 9.125 6.875 C9.14820312 8.15117188 9.17140625 9.42734375 9.1953125 10.7421875 C9 14 9 14 7 16 C3.875 16.125 3.875 16.125 1 16 C0.34 14.68 -0.32 13.36 -1 12 C1.64 12.33 4.28 12.66 7 13 C6.67 12.34 6.34 11.68 6 11 C4.02 11 2.04 11 0 11 C-1.49297212 8.01405576 -1.11755228 5.29146376 -1 2 C-0.67 1.34 -0.34 0.68 0 0 Z " fill="#DEE0DE" transform="translate(93,44)"/>
<path d="M0 0 C2.01822917 0.06510417 4.03645833 0.13020833 6.0546875 0.1953125 C6.10853271 2.48672536 6.14740837 4.77849438 6.1796875 7.0703125 C6.20289063 8.34648438 6.22609375 9.62265625 6.25 10.9375 C6.0546875 14.1953125 6.0546875 14.1953125 4.0546875 16.1953125 C0.9296875 16.3203125 0.9296875 16.3203125 -1.9453125 16.1953125 C-2.6053125 14.8753125 -3.2653125 13.5553125 -3.9453125 12.1953125 C-1.3053125 12.5253125 1.3346875 12.8553125 4.0546875 13.1953125 C3.7246875 12.5353125 3.3946875 11.8753125 3.0546875 11.1953125 C2.2709375 11.2365625 1.4871875 11.2778125 0.6796875 11.3203125 C-1.9453125 11.1953125 -1.9453125 11.1953125 -3.9453125 9.1953125 C-4.1953125 5.6953125 -4.1953125 5.6953125 -3.9453125 2.1953125 C-1.9453125 0.1953125 -1.9453125 0.1953125 0 0 Z " fill="#DBDFDB" transform="translate(288.9453125,43.8046875)"/>
<path d="M0 0 C6.8359375 -0.1953125 6.8359375 -0.1953125 9 0 C11 2 11 2 11.265625 3.875 C11.26046875 4.57625 11.2553125 5.2775 11.25 6 C11.25515625 6.70125 11.2603125 7.4025 11.265625 8.125 C11 10 11 10 9 12 C5.375 11.625 5.375 11.625 2 11 C2 12.65 2 14.3 2 16 C1.34 16 0.68 16 0 16 C0 10.72 0 5.44 0 0 Z " fill="#D0D6D1" transform="translate(221,44)"/>
<path d="M0 0 C3.5 0.25 3.5 0.25 5.5 2.25 C6.05021834 8.30240175 6.05021834 8.30240175 4.375 11.1875 C1.62198451 12.74754211 -0.4003407 12.64570119 -3.5 12.25 C-5.94897847 8.57653229 -5.81537716 6.58643601 -5.5 2.25 C-3.5 0.25 -3.5 0.25 0 0 Z " fill="#CED4CE" transform="translate(303.5,43.75)"/>
<path d="M0 0 C3 0.25 3 0.25 5 2.25 C5.265625 4.125 5.265625 4.125 5.25 6.25 C5.25515625 6.95125 5.2603125 7.6525 5.265625 8.375 C5 10.25 5 10.25 3 12.25 C0.0625 12.625 0.0625 12.625 -3 12.25 C-4.9375 10.625 -4.9375 10.625 -6 8.25 C-5.70955738 3.40928961 -5.32339906 0.44361659 0 0 Z " fill="#E0E5E1" transform="translate(277,43.75)"/>
<path d="M0 0 C1.875 0.33203125 1.875 0.33203125 3.875 1.70703125 C4.875 3.33203125 4.875 3.33203125 4.875 5.33203125 C3.885 5.33203125 2.895 5.33203125 1.875 5.33203125 C1.545 4.67203125 1.215 4.01203125 0.875 3.33203125 C-0.775 3.33203125 -2.425 3.33203125 -4.125 3.33203125 C-5.49452673 6.0710847 -5.25121361 8.30290457 -5.125 11.33203125 C-4.795 11.99203125 -4.465 12.65203125 -4.125 13.33203125 C-2.475 13.33203125 -0.825 13.33203125 0.875 13.33203125 C1.205 12.34203125 1.535 11.35203125 1.875 10.33203125 C0.555 10.33203125 -0.765 10.33203125 -2.125 10.33203125 C-2.125 9.67203125 -2.125 9.01203125 -2.125 8.33203125 C0.185 8.33203125 2.495 8.33203125 4.875 8.33203125 C4.61938677 10.67515255 4.28229228 13.01046528 3.875 15.33203125 C0.78326248 16.87790001 -1.71929552 16.62562646 -5.125 16.33203125 C-7.5625 14.83203125 -7.5625 14.83203125 -9.125 12.33203125 C-9.80875401 8.54030449 -9.55449186 5.4057609 -8.125 1.83203125 C-5.40539122 -0.20767533 -3.33515322 -0.1655315 0 0 Z " fill="#DFE1E0" transform="translate(58.125,39.66796875)"/>
<path d="M0 0 C3 0.25 3 0.25 5 2.25 C5.265625 4.125 5.265625 4.125 5.25 6.25 C5.25515625 6.95125 5.2603125 7.6525 5.265625 8.375 C5 10.25 5 10.25 3 12.25 C0 12.5 0 12.5 -3 12.25 C-5 10.25 -5 10.25 -5.265625 8.375 C-5.26046875 7.67375 -5.2553125 6.9725 -5.25 6.25 C-5.25515625 5.54875 -5.2603125 4.8475 -5.265625 4.125 C-4.77431879 0.65695617 -3.28862917 0.27405243 0 0 Z " fill="#E2E4E3" transform="translate(84,43.75)"/>
<path d="M0 0 C3 0.25 3 0.25 5 2.25 C5.265625 4.125 5.265625 4.125 5.25 6.25 C5.25515625 6.95125 5.2603125 7.6525 5.265625 8.375 C5 10.25 5 10.25 3 12.25 C0 12.5 0 12.5 -3 12.25 C-5 10.25 -5 10.25 -5.265625 8.375 C-5.26046875 7.67375 -5.2553125 6.9725 -5.25 6.25 C-5.25515625 5.54875 -5.2603125 4.8475 -5.265625 4.125 C-4.77431879 0.65695617 -3.28862917 0.27405243 0 0 Z " fill="#E3E4E3" transform="translate(71,43.75)"/>
<path d="M0 0 C2.05078125 0.03255208 4.1015625 0.06510417 6.15234375 0.09765625 C6.48234375 1.41765625 6.81234375 2.73765625 7.15234375 4.09765625 C4.84234375 3.76765625 2.53234375 3.43765625 0.15234375 3.09765625 C0.15234375 3.75765625 0.15234375 4.41765625 0.15234375 5.09765625 C1.28671875 5.57203125 2.42109375 6.04640625 3.58984375 6.53515625 C7.15234375 8.09765625 7.15234375 8.09765625 8.15234375 9.09765625 C8.33984375 11.53515625 8.33984375 11.53515625 8.15234375 14.09765625 C6.15234375 16.09765625 6.15234375 16.09765625 4.20703125 16.29296875 C2.18880208 16.22786458 0.17057292 16.16276042 -1.84765625 16.09765625 C-2.50765625 14.44765625 -3.16765625 12.79765625 -3.84765625 11.09765625 C-2.85765625 11.09765625 -1.86765625 11.09765625 -0.84765625 11.09765625 C-0.51765625 11.75765625 -0.18765625 12.41765625 0.15234375 13.09765625 C1.47234375 13.09765625 2.79234375 13.09765625 4.15234375 13.09765625 C4.48234375 12.10765625 4.81234375 11.11765625 5.15234375 10.09765625 C4.03859375 9.80890625 2.92484375 9.52015625 1.77734375 9.22265625 C-1.84765625 8.09765625 -1.84765625 8.09765625 -3.84765625 6.09765625 C-3.12417691 0.16512563 -3.12417691 0.16512563 0 0 Z " fill="#D7DBD8" transform="translate(133.84765625,39.90234375)"/>
<path d="M0 0 C3.0625 0.3125 3.0625 0.3125 4.9375 1.5625 C6.0625 3.3125 6.0625 3.3125 6.0625 7.3125 C3.4225 7.3125 0.7825 7.3125 -1.9375 7.3125 C-1.6075 7.9725 -1.2775 8.6325 -0.9375 9.3125 C1.0425 8.9825 3.0225 8.6525 5.0625 8.3125 C4.7325 9.6325 4.4025 10.9525 4.0625 12.3125 C0.6875 12.5 0.6875 12.5 -2.9375 12.3125 C-5.38647847 8.63903229 -5.25287716 6.64893601 -4.9375 2.3125 C-2.9375 0.3125 -2.9375 0.3125 0 0 Z " fill="#DDE0DD" transform="translate(161.9375,43.6875)"/>
<path d="M0 0 C3.0625 0.3125 3.0625 0.3125 4.9375 1.5625 C6.0625 3.3125 6.0625 3.3125 6.0625 7.3125 C3.4225 7.3125 0.7825 7.3125 -1.9375 7.3125 C-1.6075 7.9725 -1.2775 8.6325 -0.9375 9.3125 C1.0425 8.9825 3.0225 8.6525 5.0625 8.3125 C4.7325 9.6325 4.4025 10.9525 4.0625 12.3125 C0.6875 12.5 0.6875 12.5 -2.9375 12.3125 C-5.38647847 8.63903229 -5.25287716 6.64893601 -4.9375 2.3125 C-2.9375 0.3125 -2.9375 0.3125 0 0 Z " fill="#DDE0DE" transform="translate(115.9375,43.6875)"/>
<path d="M0 0 C3 0.25 3 0.25 5 2.25 C5.125 4.875 5.125 4.875 5 7.25 C2.69 7.58 0.38 7.91 -2 8.25 C-2 8.91 -2 9.57 -2 10.25 C1.465 9.755 1.465 9.755 5 9.25 C4.01 10.735 4.01 10.735 3 12.25 C0 12.5625 0 12.5625 -3 12.25 C-5 10.25 -5 10.25 -5.265625 8.375 C-5.26046875 7.67375 -5.2553125 6.9725 -5.25 6.25 C-5.25515625 5.54875 -5.2603125 4.8475 -5.265625 4.125 C-4.77431879 0.65695617 -3.28862917 0.27405243 0 0 Z " fill="#DEE2DE" transform="translate(175,43.75)"/>
<path d="M0 0 C2.33294775 -0.04241723 4.66702567 -0.04092937 7 0 C8 1 8 1 8.09765625 3.50390625 C8.08605469 4.51324219 8.07445312 5.52257813 8.0625 6.5625 C8.05347656 7.57441406 8.04445312 8.58632813 8.03515625 9.62890625 C8.02355469 10.41136719 8.01195312 11.19382812 8 12 C1.9453125 12.1953125 1.9453125 12.1953125 0 12 C-0.66 11.34 -1.32 10.68 -2 10 C-1.46428571 6.46428571 -1.46428571 6.46428571 0 5 C1.99958364 4.95919217 4.00045254 4.95745644 6 5 C5.67 4.34 5.34 3.68 5 3 C3.02 3 1.04 3 -1 3 C-0.67 2.01 -0.34 1.02 0 0 Z " fill="#E0E4E0" transform="translate(210,44)"/>
<path d="M0 0 C2.625 -0.1875 2.625 -0.1875 5 0 C5.33 0.99 5.66 1.98 6 3 C6.99 3.33 7.98 3.66 9 4 C9 4.66 9 5.32 9 6 C6.69 6 4.38 6 2 6 C2 6.66 2 7.32 2 8 C3.32 8 4.64 8 6 8 C5.67 9.32 5.34 10.64 5 12 C2.625 12.1875 2.625 12.1875 0 12 C-2.31332486 8.53001271 -2.33957563 7.07490752 -2 3 C-1.34 2.01 -0.68 1.02 0 0 Z " fill="#58605B" transform="translate(54,42)"/>
<path d="M0 0 C0.66 0 1.32 0 2 0 C2.33 1.65 2.66 3.3 3 5 C3.78375 4.95875 4.5675 4.9175 5.375 4.875 C8 5 8 5 10 7 C10.1953125 9.3828125 10.1953125 9.3828125 10.125 12.125 C10.10695312 13.03507812 10.08890625 13.94515625 10.0703125 14.8828125 C10.04710937 15.58148438 10.02390625 16.28015625 10 17 C9.01 17 8.02 17 7 17 C6.67 14.03 6.34 11.06 6 8 C5.01 8 4.02 8 3 8 C2.67 10.97 2.34 13.94 2 17 C1.34 17 0.68 17 0 17 C0 11.39 0 5.78 0 0 Z " fill="#D1D6D2" transform="translate(145,39)"/>
<path d="M0 0 C1.4540625 0.0309375 1.4540625 0.0309375 2.9375 0.0625 C3.2675 1.0525 3.5975 2.0425 3.9375 3.0625 C2.2875 2.7325 0.6375 2.4025 -1.0625 2.0625 C0.32945915 4.8464183 2.09325779 5.04148997 4.9375 6.0625 C4.0625 10.9375 4.0625 10.9375 2.9375 12.0625 C0.93791636 12.10330783 -1.06295254 12.10504356 -3.0625 12.0625 C-3.3925 10.7425 -3.7225 9.4225 -4.0625 8.0625 C-2.0825 8.7225 -0.1025 9.3825 1.9375 10.0625 C0.54554085 7.2785817 -1.21825779 7.08351003 -4.0625 6.0625 C-4.105221 4.39638095 -4.10313832 2.72867115 -4.0625 1.0625 C-3.0625 0.0625 -3.0625 0.0625 0 0 Z " fill="#D9DEDA" transform="translate(195.0625,43.9375)"/>
<path d="M0 0 C1.4540625 0.0309375 1.4540625 0.0309375 2.9375 0.0625 C3.2675 1.0525 3.5975 2.0425 3.9375 3.0625 C2.2875 2.7325 0.6375 2.4025 -1.0625 2.0625 C0.32945915 4.8464183 2.09325779 5.04148997 4.9375 6.0625 C4.0625 10.9375 4.0625 10.9375 2.9375 12.0625 C0.93791636 12.10330783 -1.06295254 12.10504356 -3.0625 12.0625 C-3.3925 11.0725 -3.7225 10.0825 -4.0625 9.0625 C-1.0925 9.5575 -1.0925 9.5575 1.9375 10.0625 C0.54554085 7.2785817 -1.21825779 7.08351003 -4.0625 6.0625 C-4.105221 4.39638095 -4.10313832 2.72867115 -4.0625 1.0625 C-3.0625 0.0625 -3.0625 0.0625 0 0 Z " fill="#D9DED9" transform="translate(252.0625,43.9375)"/>
<path d="M0 0 C1.65 0 3.3 0 5 0 C4.67 2.97 4.34 5.94 4 9 C4.99 9.33 5.98 9.66 7 10 C7 10.66 7 11.32 7 12 C5.35 11.67 3.7 11.34 2 11 C2 12.65 2 14.3 2 16 C1.34 16 0.68 16 0 16 C0 10.72 0 5.44 0 0 Z " fill="#E0E4E0" transform="translate(221,44)"/>
<path d="M0 0 C0.99 0 1.98 0 3 0 C3 5.61 3 11.22 3 17 C2.01 17 1.02 17 0 17 C0 11.39 0 5.78 0 0 Z " fill="#C7CEC7" transform="translate(266,39)"/>
<path d="M0 0 C1.875 0.33203125 1.875 0.33203125 3.875 1.70703125 C4.875 3.33203125 4.875 3.33203125 4.875 5.33203125 C3.885 5.33203125 2.895 5.33203125 1.875 5.33203125 C1.545 4.67203125 1.215 4.01203125 0.875 3.33203125 C-0.775 3.33203125 -2.425 3.33203125 -4.125 3.33203125 C-4.393125 4.26015625 -4.66125 5.18828125 -4.9375 6.14453125 C-6.03648371 9.09443491 -6.74918561 10.38818311 -9.125 12.33203125 C-9.48055556 5.22092014 -9.48055556 5.22092014 -8.125 1.83203125 C-5.40539122 -0.20767533 -3.33515322 -0.1655315 0 0 Z " fill="#D0D2D1" transform="translate(58.125,39.66796875)"/>
<path d="M0 0 C0.66 0 1.32 0 2 0 C2 0.99 2 1.98 2 3 C2.99 3 3.98 3 5 3 C5 3.66 5 4.32 5 5 C4.01 5 3.02 5 2 5 C2.25561323 7.3431213 2.59270772 9.67843403 3 12 C3.66 12.33 4.32 12.66 5 13 C5 13.66 5 14.32 5 15 C3.35 14.67 1.7 14.34 0 14 C0 11.03 0 8.06 0 5 C-0.66 5 -1.32 5 -2 5 C-2 4.34 -2 3.68 -2 3 C-1.34 3 -0.68 3 0 3 C0 2.01 0 1.02 0 0 Z " fill="#E3E6E4" transform="translate(184,41)"/>
<path d="M0 0 C1.65 0.33 3.3 0.66 5 1 C5 2.65 5 4.3 5 6 C3.02 6.99 3.02 6.99 1 8 C0.34 7.34 -0.32 6.68 -1 6 C-0.625 2.875 -0.625 2.875 0 0 Z " fill="#3F5843" transform="translate(275,46)"/>
<path d="M0 0 C1.65 0.33 3.3 0.66 5 1 C5 2.65 5 4.3 5 6 C3.02 6.99 3.02 6.99 1 8 C0.34 7.34 -0.32 6.68 -1 6 C-0.625 2.875 -0.625 2.875 0 0 Z " fill="#515A53" transform="translate(82,46)"/>
<path d="M0 0 C1.65 0.33 3.3 0.66 5 1 C5 2.65 5 4.3 5 6 C3.02 6.99 3.02 6.99 1 8 C0.34 7.34 -0.32 6.68 -1 6 C-0.625 2.875 -0.625 2.875 0 0 Z " fill="#535B55" transform="translate(69,46)"/>
<path d="M0 0 C1.98 0.495 1.98 0.495 4 1 C4.33 2.65 4.66 4.3 5 6 C3.02 6.99 3.02 6.99 1 8 C0.34 7.34 -0.32 6.68 -1 6 C-0.625 2.875 -0.625 2.875 0 0 Z " fill="#3D5641" transform="translate(238,46)"/>
<path d="M0 0 C0 1.32 0 2.64 0 4 C-2.64 4 -5.28 4 -8 4 C-7.67 2.35 -7.34 0.7 -7 -1 C-3.51418144 -2.2020064 -3.32007656 -2.21338437 0 0 Z " fill="#A7B1A9" transform="translate(168,47)"/>
<path d="M0 0 C0 1.32 0 2.64 0 4 C-2.64 4 -5.28 4 -8 4 C-7.67 2.35 -7.34 0.7 -7 -1 C-3.51418144 -2.2020064 -3.32007656 -2.21338437 0 0 Z " fill="#AAB1AC" transform="translate(122,47)"/>
<path d="M0 0 C0.66 0 1.32 0 2 0 C2.97040422 5.93024803 2.89316269 11.06390334 2 17 C1.34 17 0.68 17 0 17 C0 11.39 0 5.78 0 0 Z " fill="#E8EAE8" transform="translate(145,39)"/>
<path d="M0 0 C2.0625 0.4375 2.0625 0.4375 4 1 C4 2.98 4 4.96 4 7 C2.0625 7.5625 2.0625 7.5625 0 8 C-1 7 -1 7 -1.125 4 C-1 1 -1 1 0 0 Z " fill="#3D543F" transform="translate(302,46)"/>
<path d="M0 0 C2.0625 0.4375 2.0625 0.4375 4 1 C4 2.98 4 4.96 4 7 C2.0625 7.5625 2.0625 7.5625 0 8 C-1 7 -1 7 -1.125 4 C-1 1 -1 1 0 0 Z " fill="#3E5642" transform="translate(225,46)"/>
<path d="M0 0 C2.0625 0.4375 2.0625 0.4375 4 1 C5.125 4.75 5.125 4.75 4 7 C2.35 6.67 0.7 6.34 -1 6 C-1.042721 4.33388095 -1.04063832 2.66617115 -1 1 C-0.67 0.67 -0.34 0.34 0 0 Z " fill="#435A46" transform="translate(288,46)"/>
<path d="M0 0 C2.0625 0.4375 2.0625 0.4375 4 1 C5.125 4.75 5.125 4.75 4 7 C2.35 6.67 0.7 6.34 -1 6 C-1.042721 4.33388095 -1.04063832 2.66617115 -1 1 C-0.67 0.67 -0.34 0.34 0 0 Z " fill="#525D53" transform="translate(95,46)"/>
<path d="M0 0 C3.69230769 0.69230769 3.69230769 0.69230769 5 2 C5.14115161 4.67058851 5.04247107 7.32432238 5 10 C3.02 10.99 3.02 10.99 1 12 C1.226875 10.741875 1.45375 9.48375 1.6875 8.1875 C2.20193197 4.85861291 2.20193197 4.85861291 0.5625 2 C0.046875 1.67 -0.46875 1.34 -1 1 C-0.67 0.67 -0.34 0.34 0 0 Z " fill="#DEE2DE" transform="translate(240,44)"/>
<path d="M0 0 C1.98 0.66 3.96 1.32 6 2 C5.34 3.65 4.68 5.3 4 7 C2.35 6.67 0.7 6.34 -1 6 C-1.625 4.125 -1.625 4.125 -2 2 C-1.34 1.34 -0.68 0.68 0 0 Z " fill="#ABB6AD" transform="translate(210,49)"/>
<path d="M0 0 C3.0831351 1.19899698 6.06279492 2.47700477 9 4 C9 4.66 9 5.32 9 6 C6.03 6 3.06 6 0 6 C0 4.02 0 2.04 0 0 Z " fill="#4A614E" transform="translate(245,48)"/>
<path d="M0 0 C1.65 0.33 3.3 0.66 5 1 C5.33 1.99 5.66 2.98 6 4 C3.29120665 5.35439668 0.99066732 5.06501451 -2 5 C-1.34 3.35 -0.68 1.7 0 0 Z " fill="#A5B0A7" transform="translate(174,44)"/>
<path d="M0 0 C0.66 0.33 1.32 0.66 2 1 C1.67 3.31 1.34 5.62 1 8 C1.99 8.33 2.98 8.66 4 9 C4 9.66 4 10.32 4 11 C-0.875 10.125 -0.875 10.125 -2 9 C-2.1875 5.5625 -2.1875 5.5625 -2 2 C-1.34 1.34 -0.68 0.68 0 0 Z " fill="#E8EBE8" transform="translate(287,44)"/>
<path d="M0 0 C0.66 0.66 1.32 1.32 2 2 C5.09926819 1.67801034 5.09926819 1.67801034 8 1 C7.67 2.32 7.34 3.64 7 5 C4.69 5 2.38 5 0 5 C-0.5625 3.0625 -0.5625 3.0625 -1 1 C-0.67 0.67 -0.34 0.34 0 0 Z " fill="#D2D7D3" transform="translate(159,51)"/>
<path d="M0 0 C0.66 0.66 1.32 1.32 2 2 C5.09926819 1.67801034 5.09926819 1.67801034 8 1 C7.67 2.32 7.34 3.64 7 5 C4.69 5 2.38 5 0 5 C-0.5625 3.0625 -0.5625 3.0625 -1 1 C-0.67 0.67 -0.34 0.34 0 0 Z " fill="#D4D7D5" transform="translate(113,51)"/>
<path d="M0 0 C0.66 2.97 1.32 5.94 2 9 C0.68 8.34 -0.64 7.68 -2 7 C-2.75 3.875 -2.75 3.875 -3 1 C-1 0 -1 0 0 0 Z " fill="#D0D6D1" transform="translate(274,47)"/>
<path d="M0 0 C0.66 0 1.32 0 2 0 C1.67 2.31 1.34 4.62 1 7 C-0.98 7.33 -2.96 7.66 -5 8 C-5 7.34 -5 6.68 -5 6 C-4.360625 5.7525 -3.72125 5.505 -3.0625 5.25 C-0.81258459 4.18437567 -0.81258459 4.18437567 -0.25 1.875 C-0.1675 1.25625 -0.085 0.6375 0 0 Z " fill="#DFE3DF" transform="translate(307,48)"/>
<path d="M0 0 C0.33 0 0.66 0 1 0 C1.33 1.65 1.66 3.3 2 5 C2.99 5.33 3.98 5.66 5 6 C5 6.66 5 7.32 5 8 C3.35 8 1.7 8 0 8 C-0.38063221 5.6739143 -0.71269945 3.33944736 -1 1 C-0.67 0.67 -0.34 0.34 0 0 Z " fill="#E7E8E7" transform="translate(93,47)"/>
<path d="M0 0 C2.31 0.33 4.62 0.66 7 1 C7.33 2.32 7.66 3.64 8 5 C7.01 5 6.02 5 5 5 C4.67 4.34 4.34 3.68 4 3 C1.47266765 2.34444881 1.47266765 2.34444881 -1 2 C-0.67 1.34 -0.34 0.68 0 0 Z " fill="#E3E5E4" transform="translate(55,40)"/>
<path d="M0 0 C1.98 0 3.96 0 6 0 C6.33 1.32 6.66 2.64 7 4 C4.36 3.67 1.72 3.34 -1 3 C-0.67 2.01 -0.34 1.02 0 0 Z " fill="#E3E6E4" transform="translate(134,40)"/>
<path d="M0 0 C2.64 0 5.28 0 8 0 C7.67 0.99 7.34 1.98 7 3 C5.02 3 3.04 3 1 3 C0.67 2.01 0.34 1.02 0 0 Z " fill="#E0E4E0" transform="translate(248,53)"/>
<path d="M0 0 C0.99 0 1.98 0 3 0 C3 1.98 3 3.96 3 6 C2.01 6.33 1.02 6.66 0 7 C0 4.69 0 2.38 0 0 Z " fill="#6D756E" transform="translate(89,47)"/>
<path d="M0 0 C0.99 0 1.98 0 3 0 C3 1.98 3 3.96 3 6 C2.01 6.33 1.02 6.66 0 7 C0 4.69 0 2.38 0 0 Z " fill="#6E7670" transform="translate(76,47)"/>
</svg>
