<?xml version="1.0" encoding="UTF-8"?>
<svg version="1.1" xmlns="http://www.w3.org/2000/svg" width="1048" height="380">
<path d="M0 0 C345.84 0 691.68 0 1048 0 C1048 125.4 1048 250.8 1048 380 C702.16 380 356.32 380 0 380 C0 254.6 0 129.2 0 0 Z " fill="#FEFEFE" transform="translate(0,0)"/>
<path d="M0 0 C11.69118479 8.22199049 18.40579241 18.79135384 21.1640625 32.73046875 C23.14111715 45.89435763 20.30283669 58.89205873 12.6328125 69.8515625 C4.24879761 80.3663215 -6.99832969 87.04875261 -20.43359375 88.63671875 C-21.40167969 88.70761719 -22.36976563 88.77851563 -23.3671875 88.8515625 C-24.36621094 88.93277344 -25.36523438 89.01398438 -26.39453125 89.09765625 C-39.65860458 89.66099527 -51.38909341 83.66671515 -61.0546875 74.8515625 C-66.27211884 69.4113227 -72.3671875 60.56184469 -72.3671875 52.8515625 C-80.14823013 52.86650594 -87.92863594 52.90840366 -95.7093029 52.98365307 C-99.32321155 53.0177801 -102.93670392 53.04301048 -106.55078125 53.04711914 C-110.04603513 53.05143325 -113.54035227 53.08014821 -117.03531265 53.12499428 C-119.00138647 53.14408945 -120.96765007 53.13864226 -122.93380737 53.13261414 C-131.54838922 53.27125863 -139.005278 54.46772054 -145.30026245 60.7943573 C-148.88425622 65.07089356 -150.44390051 69.39023283 -151.3671875 74.8515625 C-153.6194924 87.64874944 -156.16135117 98.95032245 -165.01171875 108.9140625 C-166.74934789 111.0037252 -166.74934789 111.0037252 -166.3671875 114.8515625 C-164.86068848 117.04401785 -163.14412049 118.95443377 -161.38671875 120.94921875 C-155.14010428 129.9264616 -153.13759126 139.54253913 -151.42773438 150.15429688 C-149.9791901 158.09841861 -147.45661293 163.60346911 -141.05078125 168.69140625 C-134.24174231 172.01895398 -127.90551401 172.72159135 -120.3671875 172.8515625 C-120.25246094 171.96984375 -120.13773437 171.088125 -120.01953125 170.1796875 C-118.05197642 160.14162336 -111.15081147 152.12111167 -103.3671875 145.8515625 C-90.12858342 137.36124635 -77.92920054 135.05363463 -62.5078125 137.98046875 C-49.29978398 141.6438896 -38.95777836 149.35893189 -31.9296875 161.1640625 C-25.16330853 174.73515687 -24.83571691 188.5851836 -29.3671875 202.8515625 C-34.49355181 215.50674569 -43.60659739 223.87956488 -55.8515625 229.51171875 C-61.01169586 231.47830291 -65.87276559 232.44917474 -71.3671875 232.8515625 C-72.36621094 232.93277344 -73.36523438 233.01398438 -74.39453125 233.09765625 C-87.65860458 233.66099527 -99.38909341 227.66671515 -109.0546875 218.8515625 C-114.27211884 213.4113227 -120.3671875 204.56184469 -120.3671875 196.8515625 C-121.38296875 196.89796875 -122.39875 196.944375 -123.4453125 196.9921875 C-138.42164427 197.47270174 -150.55407249 193.8834216 -161.87890625 183.5625 C-171.85871253 173.17030503 -175.36682191 160.66933783 -177.1796875 146.6640625 C-178.28209177 139.81660831 -180.93459246 134.60423968 -186.3984375 130.22265625 C-191.57926774 126.8299857 -195.82507825 125.76536444 -202.0078125 125.53515625 C-203.07773437 125.49326172 -204.14765625 125.45136719 -205.25 125.40820312 C-206.36117187 125.36888672 -207.47234375 125.32957031 -208.6171875 125.2890625 C-210.30714844 125.22428711 -210.30714844 125.22428711 -212.03125 125.15820312 C-214.80977704 125.05224235 -217.58839141 124.95017108 -220.3671875 124.8515625 C-220.48191406 125.73328125 -220.59664062 126.615 -220.71484375 127.5234375 C-222.67124159 137.50458095 -229.53825656 145.69726919 -237.3671875 151.8515625 C-250.22140932 159.90182826 -263.65465037 163.3144138 -278.63671875 160.1640625 C-281.34599366 159.23383935 -283.81921624 158.15811006 -286.3671875 156.8515625 C-287.21539062 156.42746094 -288.06359375 156.00335938 -288.9375 155.56640625 C-300.70255567 149.1082182 -307.46376198 140.11800963 -312.3671875 127.8515625 C-312.3671875 126.8615625 -312.3671875 125.8715625 -312.3671875 124.8515625 C-321.6071875 124.8515625 -330.8471875 124.8515625 -340.3671875 124.8515625 C-340.8621875 127.8215625 -340.8621875 127.8215625 -341.3671875 130.8515625 C-346.55683913 143.79696657 -355.78866187 151.69696221 -368.0703125 157.4765625 C-379.72708075 162.33815305 -392.55135869 162.55999125 -404.3671875 157.8515625 C-417.11820309 152.39456006 -425.31588094 143.65957959 -431.02734375 131.2421875 C-436.15405066 118.26848022 -435.40457441 104.81844505 -430.18359375 91.9296875 C-423.79773783 79.12179516 -413.31320298 71.06011673 -400.1015625 65.98046875 C-386.76129557 62.28898267 -373.75005184 64.69534448 -361.84375 71.23828125 C-351.68963852 77.56294113 -345.03735058 85.81830222 -340.3671875 96.8515625 C-340.3671875 98.1715625 -340.3671875 99.4915625 -340.3671875 100.8515625 C-331.1271875 100.8515625 -321.8871875 100.8515625 -312.3671875 100.8515625 C-312.0371875 98.8715625 -311.7071875 96.8915625 -311.3671875 94.8515625 C-305.92911161 81.28647282 -295.56039461 72.56375057 -282.3671875 66.8515625 C-270.95407815 62.90546998 -258.18348944 63.44297922 -247.1953125 68.37109375 C-234.5357511 74.99812934 -226.00820054 83.5246692 -220.3671875 96.8515625 C-220.3671875 98.1715625 -220.3671875 99.4915625 -220.3671875 100.8515625 C-216.57445297 100.79902402 -212.78388208 100.70380045 -208.9921875 100.6015625 C-207.93128906 100.58738281 -206.87039063 100.57320313 -205.77734375 100.55859375 C-197.23367897 100.29651814 -189.16543206 99.02403724 -182.9296875 92.7265625 C-178.56874183 86.90788499 -177.56938209 80.18884151 -176.45336914 73.15063477 C-174.24933814 59.71676968 -168.84514597 47.96283074 -158.3671875 38.8515625 C-146.48078442 30.37045327 -135.76881896 28.39008529 -121.390625 28.55859375 C-119.97002616 28.56420187 -118.54942145 28.56846621 -117.1288147 28.57145691 C-113.42323259 28.58281019 -109.71801367 28.61219282 -106.01257324 28.64556885 C-102.21806753 28.67647737 -98.42350207 28.69000625 -94.62890625 28.70507812 C-87.2081693 28.73707381 -79.78772965 28.78815176 -72.3671875 28.8515625 C-72.224021 27.91602539 -72.08085449 26.98048828 -71.93334961 26.01660156 C-70.15414044 16.07021621 -63.01934325 8.01521672 -55.3671875 1.8515625 C-38.00193886 -9.28529529 -18.12869347 -10.72922675 0 0 Z " fill="#D85873" transform="translate(498.3671875,69.1484375)"/>
<path d="M0 0 C7.89112429 6.53711219 12.04157764 13.3204892 13.30859375 23.47265625 C13.74219993 32.18419856 10.9908429 39.48562718 5.18359375 46.0546875 C2.22261242 48.72788446 -0.05223637 50.21561902 -4 51 C-4 51.66 -4 52.32 -4 53 C-2.7625 53.2784375 -2.7625 53.2784375 -1.5 53.5625 C7.14640073 57.1137003 12.13065718 64.10922905 16.10546875 72.26953125 C19.06897225 81.31533451 17.69268112 91.95668718 13.6015625 100.37890625 C7.75369734 109.94943679 -0.36210627 113.74986653 -10.6875 117.25 C-26.60572095 120.6216802 -43.55533357 119.97077853 -57.9296875 112.046875 C-65.58376682 106.94415546 -71.03576302 100.08156478 -73 91 C-74.24492869 80.46178785 -73.43633527 71.87134964 -67 63 C-62.71545532 58.21902857 -58.45597952 54.32430349 -52 53 C-52 52.34 -52 51.68 -52 51 C-52.680625 50.79375 -53.36125 50.5875 -54.0625 50.375 C-61.22763167 47.02110858 -65.12500307 42.29821269 -68.1171875 34.99609375 C-70.42264209 27.17182973 -69.7102375 19.6914223 -66.31640625 12.3125 C-61.12182492 3.18730076 -53.15773492 -2.34006217 -43.375 -5.875 C-30.14666895 -9.35832228 -11.30597588 -8.05122525 0 0 Z " fill="#131530" transform="translate(812,113)"/>
<path d="M0 0 C8.37483128 4.82542818 13.37650666 11.9556329 16.35871887 21.10267639 C17.72683135 27.28384157 17.36100958 33.67302026 17.29296875 39.97265625 C17.28736349 41.50678591 17.28309779 43.040921 17.28010559 44.57505798 C17.26872989 48.58477988 17.23932683 52.59416831 17.20599365 56.60375977 C17.17513452 60.7064971 17.16156663 64.80928908 17.14648438 68.91210938 C17.11444885 76.94157526 17.06174187 84.97070754 17 93 C9.08 93 1.16 93 -7 93 C-7.00410889 91.23479004 -7.00821777 89.46958008 -7.01245117 87.65087891 C-7.03193791 81.78337438 -7.0743875 75.91627046 -7.13209057 70.04903603 C-7.1662134 66.49566018 -7.19144731 62.94270751 -7.19555664 59.38916016 C-7.20069965 55.29278675 -7.24596063 51.1976711 -7.29296875 47.1015625 C-7.2890361 45.8407486 -7.28510345 44.57993469 -7.28105164 43.28091431 C-7.40796114 35.52482763 -8.46349816 29.4400909 -13 23 C-18.49391508 18.40305065 -23.42513797 17.63646918 -30.3984375 17.71875 C-35.72835066 18.29495683 -39.56717032 20.56717032 -43.3125 24.3125 C-48.22217815 32.13161705 -48.46517483 38.45267453 -48.51171875 47.58984375 C-48.52966995 48.88950577 -48.54762115 50.18916779 -48.56611633 51.5282135 C-48.61338717 54.96236184 -48.64334372 58.39644554 -48.66955566 61.83081055 C-48.69947786 65.34371704 -48.74596771 68.8564013 -48.79101562 72.36914062 C-48.87678738 79.2459815 -48.94271427 86.12286339 -49 93 C-56.92 93 -64.84 93 -73 93 C-73 61.65 -73 30.3 -73 -2 C-65.74 -2 -58.48 -2 -51 -2 C-49 7 -49 7 -49 9 C-48.49210938 8.54109375 -47.98421875 8.0821875 -47.4609375 7.609375 C-33.98684345 -4.40124067 -16.81377471 -9.07096081 0 0 Z " fill="#12142F" transform="translate(932,137)"/>
<path d="M0 0 C8.37483128 4.82542818 13.37650666 11.9556329 16.35871887 21.10267639 C17.72683135 27.28384157 17.36100958 33.67302026 17.29296875 39.97265625 C17.28736349 41.50678591 17.28309779 43.040921 17.28010559 44.57505798 C17.26872989 48.58477988 17.23932683 52.59416831 17.20599365 56.60375977 C17.17513452 60.7064971 17.16156663 64.80928908 17.14648438 68.91210938 C17.11444885 76.94157526 17.06174187 84.97070754 17 93 C9.08 93 1.16 93 -7 93 C-7.00410889 91.23479004 -7.00821777 89.46958008 -7.01245117 87.65087891 C-7.03193791 81.78337438 -7.0743875 75.91627046 -7.13209057 70.04903603 C-7.1662134 66.49566018 -7.19144731 62.94270751 -7.19555664 59.38916016 C-7.20069965 55.29278675 -7.24596063 51.1976711 -7.29296875 47.1015625 C-7.2890361 45.8407486 -7.28510345 44.57993469 -7.28105164 43.28091431 C-7.40796114 35.52482763 -8.46349816 29.4400909 -13 23 C-18.49391508 18.40305065 -23.42513797 17.63646918 -30.3984375 17.71875 C-35.72835066 18.29495683 -39.56717032 20.56717032 -43.3125 24.3125 C-48.22217815 32.13161705 -48.46517483 38.45267453 -48.51171875 47.58984375 C-48.52966995 48.88950577 -48.54762115 50.18916779 -48.56611633 51.5282135 C-48.61338717 54.96236184 -48.64334372 58.39644554 -48.66955566 61.83081055 C-48.69947786 65.34371704 -48.74596771 68.8564013 -48.79101562 72.36914062 C-48.87678738 79.2459815 -48.94271427 86.12286339 -49 93 C-56.92 93 -64.84 93 -73 93 C-73 61.65 -73 30.3 -73 -2 C-65.74 -2 -58.48 -2 -51 -2 C-49 7 -49 7 -49 9 C-48.49210938 8.54109375 -47.98421875 8.0821875 -47.4609375 7.609375 C-33.98684345 -4.40124067 -16.81377471 -9.07096081 0 0 Z " fill="#12142F" transform="translate(692,137)"/>
<path d="M0 0 C6.04835682 3.87094836 10.987403 9.08983619 13.1875 16 C14.05786705 23.33739665 13.8085865 30.01065883 9.1875 36 C3.37521147 42.13381938 -2.06849869 46.09187589 -10.6875 46.4375 C-17.66016287 46.21368613 -21.95520504 44.72510694 -27.0078125 39.90625 C-33.29347353 33.1474747 -35.32850339 28.25064567 -35.11328125 18.99609375 C-34.31340966 11.0285417 -29.98421916 6.77600525 -24.12890625 1.6640625 C-17.10738219 -3.38006777 -7.71488478 -3.93022432 0 0 Z " fill="#FEFCFD" transform="translate(434.8125,232)"/>
<path d="M0 0 C6.04835682 3.87094836 10.987403 9.08983619 13.1875 16 C14.05786705 23.33739665 13.8085865 30.01065883 9.1875 36 C3.37521147 42.13381938 -2.06849869 46.09187589 -10.6875 46.4375 C-17.66016287 46.21368613 -21.95520504 44.72510694 -27.0078125 39.90625 C-33.29347353 33.1474747 -35.32850339 28.25064567 -35.11328125 18.99609375 C-34.31340966 11.0285417 -29.98421916 6.77600525 -24.12890625 1.6640625 C-17.10738219 -3.38006777 -7.71488478 -3.93022432 0 0 Z " fill="#FEFCFD" transform="translate(242.8125,160)"/>
<path d="M0 0 C6.04835682 3.87094836 10.987403 9.08983619 13.1875 16 C14.05786705 23.33739665 13.8085865 30.01065883 9.1875 36 C3.37521147 42.13381938 -2.06849869 46.09187589 -10.6875 46.4375 C-17.66016287 46.21368613 -21.95520504 44.72510694 -27.0078125 39.90625 C-33.29347353 33.1474747 -35.32850339 28.25064567 -35.11328125 18.99609375 C-34.31340966 11.0285417 -29.98421916 6.77600525 -24.12890625 1.6640625 C-17.10738219 -3.38006777 -7.71488478 -3.93022432 0 0 Z " fill="#FEFCFD" transform="translate(122.8125,160)"/>
<path d="M0 0 C6.04835682 3.87094836 10.987403 9.08983619 13.1875 16 C14.05786705 23.33739665 13.8085865 30.01065883 9.1875 36 C3.37521147 42.13381938 -2.06849869 46.09187589 -10.6875 46.4375 C-17.66016287 46.21368613 -21.95520504 44.72510694 -27.0078125 39.90625 C-33.29347353 33.1474747 -35.32850339 28.25064567 -35.11328125 18.99609375 C-34.31340966 11.0285417 -29.98421916 6.77600525 -24.12890625 1.6640625 C-17.10738219 -3.38006777 -7.71488478 -3.93022432 0 0 Z " fill="#FEFCFD" transform="translate(482.8125,88)"/>
<path d="M0 0 C4.84974831 2.87088695 7.74237782 7.16463345 9.5 12.4375 C10.28252755 18.94145852 9.32658965 24.06623195 5.5 29.4375 C1.9231889 33.20108975 -1.34296172 35.27219933 -6.609375 35.67578125 C-19.08580597 35.93012909 -19.08580597 35.93012909 -24.5 31.4375 C-29.18257409 26.02980289 -30.99029741 21.3266783 -30.90625 14.140625 C-29.97317882 7.93211292 -26.10905868 3.78385522 -21.4375 -0.125 C-15.07781973 -3.19177915 -6.3806213 -2.79681882 0 0 Z " fill="#FBFBFB" transform="translate(794.5,177.5625)"/>
<path d="M0 0 C3.7931868 1.90893566 6.22567413 4.62284519 8.08203125 8.3515625 C9.70623348 13.2821764 9.28984921 17.75033146 7.61328125 22.59375 C5.00134251 26.42459349 1.93504496 29.24536815 -2.26171875 31.34375 C-8.5323757 31.93986364 -13.72553052 31.60033131 -19.26171875 28.34375 C-23.31312405 24.49228418 -25.37871295 20.76291455 -25.63671875 15.15625 C-25.57732193 9.95478606 -23.76148662 6.16324975 -20.26171875 2.34375 C-14.42164302 -2.01376791 -6.87771961 -1.99560776 0 0 Z " fill="#FBFBFC" transform="translate(792.26171875,124.65625)"/>
</svg>
