<?xml version="1.0" encoding="UTF-8"?>
<svg version="1.1" xmlns="http://www.w3.org/2000/svg" width="1394" height="1344">
<path d="M0 0 C460.02 0 920.04 0 1394 0 C1394 443.52 1394 887.04 1394 1344 C933.98 1344 473.96 1344 0 1344 C0 900.48 0 456.96 0 0 Z " fill="#E6C568" transform="translate(0,0)"/>
<path d="M0 0 C226.05 0 452.1 0 685 0 C685 0.33 685 0.66 685 1 C683.51113281 1.09474609 683.51113281 1.09474609 681.9921875 1.19140625 C667.38201481 2.39534241 654.75850735 7.53333105 645 19 C637.11362604 30.04025322 633.53723933 40.94697669 633.60127258 54.49075317 C633.59462576 55.60594011 633.58797893 56.72112705 633.58113068 57.87010753 C633.56256842 61.58423508 633.56510149 65.29803857 633.56762695 69.01220703 C633.55860567 71.68361257 633.54840789 74.35498961 633.53674316 77.02638245 C633.51401459 82.76605962 633.50208201 88.50567633 633.49761391 94.24539566 C633.49113809 102.54391007 633.46817563 110.84231546 633.44127061 119.1407858 C633.39805647 132.60653714 633.36805908 146.07228388 633.34643555 159.53808594 C633.32540972 172.6139553 633.29812066 185.68978703 633.26245117 198.765625 C633.26025235 199.57247357 633.25805352 200.37932213 633.25578807 201.21062066 C633.24471801 205.25859791 633.23352528 209.30657481 633.22227156 213.35455155 C633.12916258 246.90300289 633.05752938 280.45146886 633 314 C631.41774108 314.00496522 631.41774108 314.00496522 629.80351734 314.01003075 C604.10403526 314.09112481 578.40461223 314.18347073 552.70521259 314.28752708 C540.27703894 314.33758963 527.84887167 314.38403321 515.4206543 314.421875 C504.5847248 314.45487782 493.74884581 314.49475461 482.91297215 314.54279006 C477.17866605 314.56797273 471.4443931 314.58977813 465.71004677 314.60334396 C460.30513827 314.61623925 454.90034393 314.63837324 449.49549866 314.66738319 C447.51913887 314.67640087 445.54276073 314.68213551 443.56638145 314.68421364 C423.95519791 314.70851277 405.51375709 315.90277929 390.13671875 329.66796875 C373.98873845 346.46043607 375.69875042 368.41229841 375.68115234 390.00732422 C375.67184247 392.63004868 375.66167224 395.2527702 375.65071106 397.87548828 C375.62855917 403.49776554 375.61347378 409.12002498 375.60334396 414.74233627 C375.58868794 422.87100319 375.56313228 430.99960792 375.53501268 439.1282381 C375.48966966 452.32001327 375.45300356 465.51179746 375.421875 478.70361328 C375.39163807 491.50961894 375.35726438 504.31560262 375.31738281 517.12158203 C375.31492126 517.91244473 375.31245972 518.70330742 375.30992357 519.51813565 C375.29754798 523.48610994 375.28509163 527.45408396 375.27259517 531.42205787 C375.16921462 564.28134203 375.07994998 597.14065034 375 630 C373.94516072 630.00238835 372.89032145 630.00477671 371.80351734 630.00723743 C346.10401712 630.06610458 320.40461011 630.14203197 294.70521259 630.23571491 C282.27703514 630.28062729 269.84888604 630.32005249 257.4206543 630.34643555 C246.58470638 630.36945251 235.74884856 630.40289188 224.91297215 630.44870156 C219.17865022 630.47258383 213.44441725 630.49134535 207.71004677 630.49761391 C202.30509343 630.50368734 196.90036758 630.52376863 191.49549866 630.55427551 C189.51914236 630.56301961 187.54275629 630.5667859 185.56638145 630.56500816 C166.66333124 630.55338063 149.71463713 632.63359473 135.328125 646.30078125 C124.50114049 658.85354349 121.83978309 672.48074171 121.86298561 688.57231331 C121.86033378 689.48571488 121.85768196 690.39911644 121.85494977 691.34019685 C121.84731735 694.38730045 121.84669994 697.43436334 121.84609985 700.48147583 C121.84208127 702.69372187 121.83764239 704.90596719 121.8328203 707.11821163 C121.82089382 713.18737291 121.81521553 719.25652626 121.81063914 725.32569695 C121.80528195 731.2023027 121.79530632 737.07889961 121.78562968 742.95549957 C121.75884515 759.43767625 121.74375475 775.91985875 121.73028857 792.40205079 C121.72661505 796.86824921 121.7226125 801.33444729 121.7185359 805.80064535 C121.6932766 833.54730572 121.67123907 861.29396673 121.65880775 889.04063606 C121.65588668 895.46263761 121.65291909 901.88463913 121.64990234 908.30664062 C121.64953143 909.10445014 121.64916053 909.90225966 121.64877838 910.72424523 C121.63662287 936.59108326 121.60567457 962.45785325 121.56398082 988.32465933 C121.52116174 1014.93829513 121.49456302 1041.55189499 121.48933304 1068.16556616 C121.48859265 1071.9269147 121.48768198 1075.68826318 121.48667526 1079.44961166 C121.48648465 1080.1898197 121.48629403 1080.93002774 121.48609764 1081.69266632 C121.48258968 1093.58528088 121.46231846 1105.47780989 121.43587863 1117.37039307 C121.40968896 1129.33104929 121.40202566 1141.29160703 121.41297992 1153.25228782 C121.41816247 1159.727195 121.41530498 1166.20183099 121.39051437 1172.67669868 C121.36798348 1178.61097876 121.36879216 1184.54479341 121.38771825 1190.47908185 C121.39051275 1192.61903295 121.38495062 1194.75901587 121.36990531 1196.8989159 C121.24454496 1215.89972168 123.7235423 1230.73925946 137.05859375 1245.23828125 C149.85644622 1257.70738155 165.72605129 1259.31136827 182.73253441 1259.25726891 C184.20638521 1259.25996637 185.68023463 1259.26353651 187.15408146 1259.26789337 C191.19511285 1259.27731375 195.23605364 1259.27436299 199.27708936 1259.26933783 C203.67692773 1259.26606296 208.07674707 1259.27436057 212.47657931 1259.28115618 C220.18498646 1259.29145281 227.8933685 1259.29430056 235.60178185 1259.29224396 C247.06457087 1259.28919316 258.52733212 1259.29751964 269.99011574 1259.30799321 C291.65335866 1259.32733403 313.31659211 1259.33296143 334.97984265 1259.33410732 C351.70716099 1259.33502635 368.43447562 1259.3391427 385.16179276 1259.34550858 C389.97638436 1259.34730365 394.79097596 1259.34908328 399.60556757 1259.35085833 C400.80247459 1259.35130043 401.99938161 1259.35174252 403.23255854 1259.35219802 C436.89802662 1259.36450596 470.56349342 1259.37239918 504.22896385 1259.37151146 C506.13279827 1259.37146472 506.13279827 1259.37146472 508.075094 1259.37141704 C514.50808722 1259.37125083 520.94108045 1259.37105274 527.37407367 1259.37084763 C528.65169754 1259.37080774 529.92932141 1259.37076785 531.24566115 1259.37072675 C533.82932655 1259.37064587 536.41299196 1259.37056228 538.99665736 1259.37047596 C579.20416624 1259.36925015 619.4116414 1259.38426936 659.61914062 1259.41162109 C704.78773569 1259.442335 749.9563086 1259.45955406 795.12491477 1259.45769465 C799.94013508 1259.45754539 804.7553554 1259.45744797 809.57057571 1259.45738602 C810.75621397 1259.45736271 811.94185223 1259.4573394 813.16341893 1259.45731538 C832.25066362 1259.45725382 851.33787906 1259.47003017 870.42511505 1259.48725055 C889.60308251 1259.50419512 908.78100712 1259.50619002 927.95897792 1259.4930319 C939.35410558 1259.48563534 950.74910314 1259.48932191 962.14421705 1259.50891658 C969.75609297 1259.5209006 977.36787449 1259.51834308 984.97974606 1259.50397559 C989.31651746 1259.49619939 993.6530368 1259.49469879 997.9897906 1259.51089029 C1001.94005086 1259.52550957 1005.88985049 1259.5215039 1009.84009066 1259.50304256 C1011.25541105 1259.49961784 1012.67076806 1259.5027979 1014.08605103 1259.51364497 C1029.21308723 1259.62175841 1044.0885441 1255.88001859 1055.3125 1245.1875 C1056.57125165 1243.81828647 1057.801814 1242.42251598 1059 1241 C1059.54398438 1240.35675781 1060.08796875 1239.71351562 1060.6484375 1239.05078125 C1070.22989993 1226.28360415 1070.72920536 1211.08421658 1070.62082577 1195.8420763 C1070.62513901 1193.83712229 1070.63164459 1191.83217203 1070.64012399 1189.82723132 C1070.65704236 1184.33476193 1070.64298988 1178.84274929 1070.62373369 1173.35030388 C1070.60830623 1167.36852385 1070.62200222 1161.38679752 1070.63195282 1155.40501565 C1070.64538104 1144.92681995 1070.64043434 1134.44874361 1070.62294388 1123.97056389 C1070.60427791 1112.73289272 1070.59657218 1101.49529269 1070.60212517 1090.25760651 C1070.60246959 1089.54665272 1070.60281401 1088.83569893 1070.60316887 1088.10320108 C1070.60497337 1084.47772078 1070.60695104 1080.85224059 1070.60898646 1077.22676041 C1070.62332141 1051.01182756 1070.61322206 1024.79694944 1070.58978081 998.58202553 C1070.5666098 972.6185998 1070.55294154 946.65519941 1070.55226326 920.69176292 C1070.55220955 919.06057077 1070.55215556 917.42937861 1070.55210129 915.79818645 C1070.55190295 909.24298611 1070.55178355 902.68778577 1070.55175897 896.13258543 C1070.55167484 877.80885766 1070.5499382 859.48513024 1070.54700565 841.1614027 C1070.54687299 840.32702344 1070.54674033 839.49264418 1070.54660365 838.6329807 C1070.53984787 797.18116186 1070.51281736 755.7293583 1070.48531327 714.27754902 C1070.44849928 658.75102822 1070.42834448 603.22453105 1070.42553711 547.69799805 C1070.42544511 545.94266572 1070.42535268 544.18733339 1070.42525982 542.43200106 C1070.425075 538.92549003 1070.42489227 535.418979 1070.42471164 531.91246797 C1070.42430655 524.05008304 1070.42389598 516.18769811 1070.42346553 508.32531319 C1070.42337096 506.58390179 1070.42327817 504.8424904 1070.42318716 503.101079 C1070.42074589 456.57867839 1070.40817902 410.0562813 1070.39152867 363.53388375 C1070.39123817 362.7216751 1070.39094768 361.90946646 1070.39064838 361.07264543 C1070.38801554 353.72350555 1070.38536833 346.37436567 1070.38263602 339.02522582 C1070.3760033 321.16430634 1070.37030699 303.30338749 1070.36744571 285.44246697 C1070.36731505 284.63774451 1070.36718439 283.83302204 1070.36704977 283.00391404 C1070.36652325 279.76078377 1070.36600034 276.5176535 1070.36547761 273.27452322 C1070.36060139 243.18406056 1070.34903512 213.09361403 1070.32456874 183.00316039 C1070.32224837 180.11817039 1070.31995507 177.23318036 1070.31768227 174.34819031 C1070.31684018 173.28615745 1070.31684018 173.28615745 1070.31598108 172.20266938 C1070.30726304 160.99430175 1070.30517384 149.78594323 1070.30582075 138.57757265 C1070.30630805 127.55510964 1070.29944156 116.53266663 1070.28528446 105.51021158 C1070.2779066 99.61476161 1070.2736688 93.71935548 1070.27816027 87.82390157 C1070.28217375 82.45944565 1070.27698261 77.09507992 1070.26448658 71.73063778 C1070.2615963 69.80335131 1070.26203219 67.8760562 1070.26623047 65.94877214 C1070.30531122 46.31064326 1068.99605264 29.11642376 1054.65234375 14.2578125 C1047.34253354 8.0353231 1038.65357484 3.05474244 1029 2 C1028.15953125 1.89300781 1027.3190625 1.78601563 1026.453125 1.67578125 C1024.30561643 1.41901392 1022.1530619 1.20505351 1020 1 C1020 0.67 1020 0.34 1020 0 C1143.42 0 1266.84 0 1394 0 C1394 442.86 1394 885.72 1394 1342 C933.98 1342 473.96 1342 0 1342 C0 899.14 0 456.28 0 0 Z " fill="#FEFEFE" transform="translate(0,2)"/>
<path d="M0 0 C460.02 0 920.04 0 1394 0 C1394 0.66 1394 1.32 1394 2 C1213.325 2.495 1213.325 2.495 1029 3 C1031.97 3.66 1034.94 4.32 1038 5 C1053.50255579 12.12855367 1062.72833963 22.48596441 1069.2734375 38.22265625 C1071.97795557 48.56089467 1071.14439868 59.80848694 1071.13701439 70.41125679 C1071.13927251 72.40830477 1071.14196456 74.40535231 1071.14505023 76.40239918 C1071.1522714 81.9007676 1071.15327951 87.39912236 1071.153273 92.89749488 C1071.15434378 98.87543992 1071.16113617 104.85337893 1071.1671797 110.83132064 C1071.17695899 121.31215618 1071.183001 131.7929894 1071.18649673 142.27382851 C1071.19025412 153.51884365 1071.19613188 164.76385463 1071.20457458 176.00886726 C1071.20510568 176.71934746 1071.20563677 177.42982765 1071.20618396 178.16183755 C1071.20835072 181.05556653 1071.21052735 183.9492955 1071.2127179 186.84302447 C1071.23920435 221.90394365 1071.25478107 256.96486505 1071.26788078 292.02579143 C1071.27213197 303.39499869 1071.27669962 314.76420578 1071.2814641 326.13341284 C1071.30637108 385.70676736 1071.32843063 445.28012236 1071.34065448 504.85348097 C1071.34155185 509.21304586 1071.34246655 513.57261074 1071.34338222 517.93217563 C1071.34356383 518.7969663 1071.34374544 519.66175696 1071.34393256 520.55275341 C1071.34577521 529.31416016 1071.34764108 538.0755669 1071.34953065 546.83697363 C1071.3499087 548.59364816 1071.35028499 550.35032268 1071.35065953 552.1069972 C1071.36269088 608.53115361 1071.39238345 664.95527919 1071.43407464 721.37942107 C1071.46402644 761.92776016 1071.49165351 802.47609291 1071.50135231 843.02444267 C1071.50155287 843.85840949 1071.50175342 844.69237631 1071.50196006 845.55161484 C1071.50631073 863.8596403 1071.50925642 882.16766573 1071.51088657 900.47569162 C1071.51156291 907.84211021 1071.51241843 915.20852879 1071.51332474 922.57494736 C1071.51346588 923.78424133 1071.51346588 923.78424133 1071.51360988 925.01796549 C1071.51672117 950.98002354 1071.53522431 976.94204233 1071.56167471 1002.90408624 C1071.58822961 1029.05484086 1071.59896259 1055.20555168 1071.58793872 1081.35631891 C1071.58641724 1084.97178801 1071.5850718 1088.58725716 1071.58383179 1092.20272636 C1071.58358206 1092.91143987 1071.58333233 1093.62015338 1071.58307503 1094.35034305 C1071.57958333 1105.56140959 1071.5928765 1116.77239053 1071.61320952 1127.98343653 C1071.63286596 1139.01376766 1071.63420329 1150.04400512 1071.61748323 1161.07434798 C1071.60906011 1166.97213043 1071.60852987 1172.86962065 1071.63009469 1178.7673762 C1071.6495729 1184.13759528 1071.64583626 1189.50728913 1071.62394121 1194.87749434 C1071.62009164 1196.80346857 1071.62453908 1198.72948288 1071.63852822 1200.65541016 C1071.7533126 1217.55943937 1069.46657543 1231.74874357 1058 1245 C1057.50242187 1245.64195313 1057.00484375 1246.28390625 1056.4921875 1246.9453125 C1049.35532637 1255.27787811 1035.65993687 1261.25820412 1024.85759544 1262.18351483 C1022.54072164 1262.24990015 1020.23146514 1262.25719207 1017.91369629 1262.24050903 C1017.03298069 1262.24221788 1016.15226508 1262.24392673 1015.24486113 1262.24568737 C1012.31224486 1262.24896515 1009.37986059 1262.23800688 1006.44726562 1262.22705078 C1004.33773809 1262.2264863 1002.22821017 1262.22680395 1000.11868286 1262.22793579 C994.40442823 1262.22850885 988.69025781 1262.21676201 982.97602272 1262.20278788 C976.99960382 1262.1902728 971.02318292 1262.1891094 965.04675293 1262.18673706 C953.73514081 1262.18052459 942.42356741 1262.16411688 931.11197233 1262.14403808 C918.23174707 1262.12167187 905.35151995 1262.11068383 892.4712801 1262.10064721 C865.98083194 1262.07975048 839.49041814 1262.04457898 813 1262 C812.99944384 1261.21835538 812.99888767 1260.43671076 812.99831466 1259.63137994 C812.93770906 1174.55404818 812.87464359 1089.47671839 812.79867554 1004.3993988 C812.7969751 1002.49388768 812.7969751 1002.49388768 812.79524031 1000.54988138 C812.77119063 973.61593999 812.74674232 946.68199898 812.72181495 919.74805839 C812.70929359 906.21831131 812.696851 892.68856415 812.68448287 879.15881692 C812.68261672 877.11790161 812.68074833 875.07698631 812.67887984 873.036071 C812.6501265 841.60768775 812.62306254 810.17930417 812.60089111 778.75091553 C812.60041435 778.07514248 812.59993759 777.39936943 812.59944638 776.70311841 C812.59176979 765.80760935 812.58423493 754.91210019 812.57671889 744.01659101 C812.54528545 698.45414417 812.50750452 652.8917069 812.46109388 607.32927236 C812.45464324 600.99353675 812.44826717 594.65780108 812.44193649 588.32206535 C812.44068819 587.07507043 812.43943988 585.8280755 812.43815375 584.54329285 C812.41823081 564.44951859 812.40519002 544.35574544 812.39470672 524.26196429 C812.3840277 504.07341989 812.36613671 483.88489218 812.34083296 463.69636071 C812.32601003 451.69394353 812.31676778 439.69155189 812.31543317 427.68912546 C812.31399808 419.67715362 812.30537252 411.6652106 812.29084408 403.65325185 C812.28276696 399.08455156 812.27786948 394.51590786 812.28172119 389.94720072 C812.28516359 385.7910875 812.27944723 381.63509152 812.26641935 377.47899821 C812.26334102 375.98461025 812.2636012 374.49021074 812.26760875 372.99582499 C812.30791303 356.4875945 809.14731427 343.49407754 797.41796875 331.25390625 C788.45672227 322.90069265 777.71760824 316.92093023 765.27996826 316.84178162 C763.52999039 316.82709839 763.52999039 316.82709839 761.74465942 316.81211853 C759.8306282 316.80348534 759.8306282 316.80348534 757.87792969 316.79467773 C756.51774806 316.78509531 755.15756938 316.77508501 753.7973938 316.76467896 C750.10768462 316.73766332 746.41796269 316.71663569 742.7282095 316.69667697 C738.87113057 316.67479679 735.01409079 316.64741805 731.15704346 316.62062073 C723.85442564 316.57072131 716.55178606 316.52577228 709.24912572 316.48259836 C700.93477598 316.43320247 692.62046551 316.37829306 684.30615377 316.32291877 C667.20413883 316.20914096 650.10208741 316.10229278 633 316 C632.90836717 281.68048556 632.83792208 247.36099913 632.79573868 213.04138871 C632.79073609 208.98608836 632.78555878 204.93078826 632.78027344 200.87548828 C632.77869957 199.66452496 632.77869957 199.66452496 632.77709392 198.42909774 C632.75970703 185.37155028 632.72817884 172.31407354 632.69138882 159.25656798 C632.65393155 145.85004733 632.63175405 132.44356362 632.62364602 119.03699279 C632.61816815 110.7699524 632.60089111 102.50311195 632.56833413 94.23613313 C632.54712709 88.56073443 632.54081389 82.88543851 632.54599449 77.21000311 C632.54854673 73.93958075 632.54252783 70.66957832 632.5231781 67.39920235 C632.50317375 63.84294791 632.50809974 60.28753761 632.51898193 56.73126221 C632.50150488 55.20202287 632.50150488 55.20202287 632.48367476 53.64188981 C632.59613678 39.97432077 638.36533587 26.8334005 647.5625 16.75 C655.53593096 9.33501946 664.44871032 5.34473104 675 3 C452.25 2.67 229.5 2.34 0 2 C0 1.34 0 0.68 0 0 Z " fill="#C58F32" transform="translate(0,0)"/>
<path d="M0 0 C1.43566155 -0.00374348 2.87132106 -0.00834776 4.30697739 -0.01373065 C8.22479797 -0.02588943 12.14253271 -0.02570867 16.06036782 -0.02334189 C20.2963314 -0.02293192 24.53226811 -0.03398983 28.76821899 -0.04345703 C37.05626377 -0.06002776 45.34428009 -0.06556476 53.63234006 -0.06668179 C60.37157762 -0.06763392 67.11080583 -0.07175245 73.85004044 -0.07808304 C92.97666181 -0.09568305 112.1032608 -0.1049236 131.22989033 -0.10342209 C132.77464976 -0.10330222 132.77464976 -0.10330222 134.35061646 -0.10317993 C135.89727154 -0.10305729 135.89727154 -0.10305729 137.47517218 -0.10293217 C154.18816664 -0.10211914 170.901071 -0.12126436 187.61403941 -0.14945666 C204.79403537 -0.17820714 221.97398741 -0.19199584 239.15400803 -0.19026911 C248.79164382 -0.18960607 258.4291851 -0.19506127 268.06679916 -0.21662521 C276.27106399 -0.23486527 284.47519143 -0.239161 292.67946778 -0.22560637 C296.86140122 -0.21909158 301.04307128 -0.21890548 305.2249794 -0.23631287 C309.06069122 -0.25211445 312.89593237 -0.24910856 316.7316332 -0.2317446 C318.76051479 -0.22725444 320.7894114 -0.24227593 322.81823528 -0.25822389 C338.73009407 -0.13936723 351.12756506 5.10519845 362.80325317 15.82992554 C372.78732086 26.24324455 376.88037794 39.21937238 376.79934883 53.41920471 C376.80165652 54.41951082 376.80396421 55.41981693 376.80634183 56.45043534 C376.81163909 59.80510796 376.80265984 63.15958892 376.79376221 66.51425171 C376.79463433 68.94241442 376.79638543 71.37057695 376.79894054 73.79873848 C376.80248186 79.07932653 376.79981175 84.35985715 376.79166412 89.64043617 C376.77958266 97.4924251 376.77899358 105.34438563 376.7807481 113.19638216 C376.78337468 126.40535429 376.7766977 139.6143064 376.76471329 152.82327271 C376.75287812 165.90127664 376.74518117 178.97927224 376.74300766 192.05728149 C376.74287018 192.87051714 376.7427327 193.68375278 376.74259106 194.52163193 C376.74191439 198.65166661 376.74131162 202.78170131 376.7407373 206.91173601 C376.7365368 236.16262908 376.72306295 265.41351126 376.70413208 294.66439819 C376.68576255 323.08073875 376.67159565 351.49707633 376.66311646 379.91342163 C376.6628534 380.78938024 376.66259035 381.66533885 376.66231933 382.56784166 C376.65968228 391.36460044 376.65713065 400.16135924 376.65464161 408.95811806 C376.64956922 426.87803386 376.64392672 444.79794947 376.63793945 462.71786499 C376.63752758 463.95375051 376.63752758 463.95375051 376.63710739 465.21460341 C376.61870693 520.23221535 376.58697503 575.24982112 376.55325317 630.26742554 C326.92940843 630.31320769 277.30556582 630.34844715 227.68170412 630.3695562 C221.82256223 630.3720576 215.96342039 630.37464624 210.10427856 630.37728882 C208.35461112 630.37807575 208.35461112 630.37807575 206.56959686 630.37887858 C187.68506457 630.38758013 168.80054447 630.40334874 149.9160194 630.42173113 C130.53738439 630.4404371 111.15875576 630.45154374 91.78011209 630.45560253 C79.82339869 630.45834613 67.86671973 630.46701031 55.91001693 630.48325847 C47.70980078 630.49383394 39.50960243 630.49702488 31.30937996 630.49442829 C26.57899618 630.49314789 21.84867256 630.49510472 17.11829948 630.50583649 C12.78338471 630.51559907 8.44857032 630.51604096 4.11365084 630.50922333 C2.54953344 630.50838122 0.98540967 630.51089272 -0.57869527 630.5171919 C-12.21220557 630.56130084 -23.08132666 630.15499546 -33.57174683 624.70492554 C-34.59630981 624.17983398 -34.59630981 624.17983398 -35.64157104 623.64413452 C-41.61620452 620.43679683 -46.1783596 616.56169123 -50.44674683 611.26742554 C-51.28592651 610.27355835 -51.28592651 610.27355835 -52.14205933 609.25961304 C-62.19429386 595.97449906 -62.16766096 579.88466915 -62.06147766 564.04423523 C-62.06509622 561.82466908 -62.07090584 559.60510562 -62.07869965 557.3855502 C-62.09367913 551.3239994 -62.07769916 545.26287483 -62.05639303 539.20135772 C-62.04065287 533.32391043 -62.04855702 527.44652452 -62.05573328 521.56906748 C-62.06955631 509.55362398 -62.05997065 497.53830662 -62.03652763 485.52288246 C-62.01333662 473.62652845 -61.9997195 461.73023028 -61.99901009 449.83385277 C-61.99895664 449.092371 -61.99890319 448.35088924 -61.99884812 447.58693833 C-61.9986595 444.57671479 -61.99853794 441.56649126 -61.99850579 438.55626772 C-61.99816536 410.34737387 -61.97114507 382.13856479 -61.9303137 353.92970334 C-61.89417944 328.88658928 -61.8750499 303.84352447 -61.87228394 278.80038452 C-61.87219243 278.00386074 -61.87210093 277.20733696 -61.87200665 276.38667609 C-61.87173021 273.97690577 -61.87145872 271.56713546 -61.87118763 269.15736514 C-61.87082458 265.95639535 -61.87045118 262.75542555 -61.87007046 259.55445576 C-61.86998023 258.76456868 -61.86989 257.97468161 -61.86979704 257.16085856 C-61.86681313 232.46008215 -61.84934489 207.75931484 -61.82938285 183.05854706 C-61.8227741 174.87055307 -61.81708159 166.68256052 -61.81419253 158.49456429 C-61.81393136 157.75844908 -61.81367018 157.02233386 -61.81340109 156.26391212 C-61.81314197 155.5293675 -61.81288284 154.79482288 -61.81261586 154.03801934 C-61.80761374 139.87784562 -61.79636022 125.71770822 -61.77131557 111.5575544 C-61.76010897 105.08914767 -61.75197831 98.62077827 -61.75244904 92.15236092 C-61.7527581 86.2278446 -61.74378614 80.30341655 -61.72748102 74.37892332 C-61.72317476 72.23921551 -61.72218609 70.09949782 -61.72490709 67.95978741 C-61.74709897 47.63618335 -60.92624483 30.01669665 -46.04830933 14.52523804 C-32.2584545 2.55746613 -17.80461999 -0.04199437 0 0 Z " fill="#F1DA75" transform="translate(182.44674682617188,631.7325744628906)"/>
</svg>


