<?xml version="1.0" standalone="no"?>
<!DOCTYPE svg PUBLIC "-//W3C//DTD SVG 20010904//EN"
 "http://www.w3.org/TR/2001/REC-SVG-20010904/DTD/svg10.dtd">
<svg version="1.0" xmlns="http://www.w3.org/2000/svg"
 width="1040.000000pt" height="522.000000pt" viewBox="0 0 1040.000000 522.000000"
 preserveAspectRatio="xMidYMid meet">

<g transform="translate(0.000000,522.000000) scale(0.100000,-0.100000)"
fill="#000000" stroke="none">
<path d="M8173 5039 c-79 -39 -163 -148 -203 -265 -12 -32 -56 -258 -100 -502
-44 -243 -82 -447 -85 -452 -3 -5 -20 -13 -38 -19 -507 -158 -908 -290 -965
-318 -83 -41 -148 -99 -177 -158 -29 -58 -27 -165 3 -227 31 -63 91 -129 156
-172 53 -35 629 -296 654 -296 12 0 484 301 479 306 -2 2 -563 227 -687 276
l-25 10 25 13 c14 7 221 75 460 150 239 76 441 143 448 149 7 7 49 215 95 474
45 254 87 462 92 462 13 0 12 1 250 -395 109 -181 203 -336 210 -343 11 -13
66 1 878 217 54 15 67 16 67 5 0 -8 -80 -107 -178 -221 -391 -457 -452 -532
-452 -549 0 -9 89 -187 198 -393 109 -207 201 -384 205 -394 6 -15 3 -17 -13
-12 -58 19 -665 184 -667 181 -6 -6 73 -436 82 -445 15 -15 655 -209 732 -222
128 -22 233 11 313 98 76 83 100 193 64 300 -9 26 -113 232 -232 456 -183 348
-214 413 -206 433 5 13 164 206 354 429 190 224 362 433 382 467 88 144 71
267 -47 327 -42 22 -62 26 -140 26 -84 0 -126 -10 -589 -133 -274 -73 -508
-132 -520 -130 -16 2 -73 90 -241 366 -121 200 -241 387 -267 417 -89 100
-215 134 -315 84z"/>
<path d="M4683 3170 c-58 -12 -111 -41 -157 -87 -121 -119 -118 -324 7 -410
71 -50 247 -42 247 10 0 12 3 39 7 61 l6 38 -29 -15 c-78 -40 -156 -26 -194
35 -29 45 -24 132 10 180 54 79 146 108 220 69 l40 -21 0 29 c0 16 3 42 6 60
5 26 3 32 -17 40 -41 15 -102 20 -146 11z"/>
<path d="M2556 2915 c-75 -140 -136 -257 -136 -260 0 -3 27 -5 60 -5 l60 0 27
55 27 55 92 0 92 0 7 -55 6 -55 59 0 60 0 -7 33 c-4 17 -25 133 -47 257 l-41
225 -61 3 -61 3 -137 -256z m198 -12 l6 -43 -55 0 c-30 0 -55 2 -55 5 0 3 19
41 42 83 l42 77 7 -40 c3 -22 9 -59 13 -82z"/>
<path d="M3219 2910 l-45 -260 52 0 53 0 11 58 c6 31 14 73 18 92 l8 35 69 6
c102 8 148 37 180 112 34 82 10 163 -59 197 -34 16 -62 20 -142 20 l-99 0 -46
-260z m239 138 c19 -19 14 -57 -13 -83 -19 -19 -35 -25 -71 -25 -35 0 -45 3
-41 14 3 7 9 34 12 60 l7 46 47 0 c26 0 52 -5 59 -12z"/>
<path d="M3982 3138 c-11 -18 -61 -112 -112 -208 -51 -96 -106 -199 -122 -227
l-29 -53 63 0 64 0 27 55 27 55 89 0 c95 0 101 -3 101 -55 0 -48 9 -55 66 -55
33 0 54 4 54 11 0 10 -71 410 -86 482 -5 26 -8 27 -64 27 -55 0 -59 -2 -78
-32z m73 -210 l7 -68 -51 0 c-28 0 -51 2 -51 5 0 2 17 38 37 80 23 45 40 70
44 62 4 -6 10 -42 14 -79z"/>
<path d="M5186 3153 c-7 -23 -86 -477 -86 -492 0 -8 17 -11 52 -9 l53 3 8 50
c4 28 12 74 18 103 l10 52 115 0 c63 0 114 -4 114 -9 0 -5 -7 -45 -15 -88 -22
-116 -23 -113 34 -113 39 0 51 4 55 18 7 22 86 476 86 491 0 8 -17 11 -52 9
l-52 -3 -13 -70 c-6 -38 -15 -85 -18 -102 l-6 -33 -114 0 c-63 0 -115 4 -115
9 0 5 7 45 15 88 22 116 23 113 -34 113 -39 0 -51 -4 -55 -17z"/>
<path d="M5956 3153 c-6 -23 -86 -476 -86 -492 0 -8 43 -11 145 -11 135 0 145
1 145 19 0 10 3 33 6 50 l7 31 -92 0 c-83 0 -92 2 -88 18 3 9 8 34 12 55 l6
37 83 0 83 0 7 38 c10 64 13 62 -75 62 l-80 0 7 48 c3 26 8 50 11 55 2 4 44 7
94 7 49 0 89 3 89 8 1 4 5 26 9 50 l8 42 -143 0 c-127 0 -143 -2 -148 -17z"/>
<path d="M1230 2934 c-216 -46 -416 -188 -547 -386 -116 -174 -143 -365 -80
-546 47 -135 79 -177 444 -576 174 -191 236 -273 254 -339 32 -119 -43 -242
-191 -315 -81 -40 -198 -44 -273 -9 -77 35 -131 95 -188 210 -42 82 -52 96
-67 89 -9 -5 -112 -60 -228 -122 l-212 -112 39 -94 c51 -126 97 -201 170 -273
198 -196 569 -236 901 -96 296 125 522 432 544 740 10 146 -32 298 -116 420
-39 57 -88 111 -299 336 -296 313 -343 380 -327 464 9 44 73 118 131 148 58
31 182 31 246 -1 59 -29 129 -98 175 -173 22 -35 41 -56 48 -52 6 4 100 74
209 155 129 97 195 153 191 161 -4 7 -33 46 -64 87 -115 151 -246 248 -386
284 -77 20 -282 20 -374 0z"/>
<path d="M7770 2710 c-200 -130 -246 -164 -252 -187 -7 -23 -288 -2152 -288
-2176 0 -4 106 -7 235 -7 173 0 235 3 235 12 0 21 130 1002 134 1005 6 6 39
-42 355 -523 290 -443 325 -492 353 -498 42 -8 538 -8 538 1 0 3 -6 14 -14 22
-20 24 -856 1202 -859 1211 -1 4 113 128 253 275 140 148 260 277 266 288 8
15 2 70 -27 239 -21 122 -40 222 -41 223 -2 2 -173 -185 -381 -416 -208 -230
-382 -419 -386 -419 -5 0 -7 10 -4 23 2 12 32 247 68 522 36 275 67 515 70
533 3 17 2 32 -2 32 -4 0 -118 -72 -253 -160z"/>
<path d="M5053 2276 c-236 -45 -435 -154 -613 -335 -155 -158 -243 -313 -302
-528 -31 -113 -31 -364 0 -476 59 -214 207 -404 400 -514 232 -131 582 -141
848 -23 48 21 41 -6 79 290 14 107 28 210 31 229 l6 35 -42 -38 c-140 -127
-342 -194 -503 -167 -100 17 -205 69 -272 137 -262 261 -142 741 230 915 91
43 169 60 275 60 230 0 373 -104 446 -327 44 -135 40 -259 -25 -743 -28 -212
-51 -395 -51 -408 l0 -23 205 0 204 0 6 32 c9 54 103 785 116 903 21 199 1
364 -61 501 -104 229 -308 401 -560 471 -76 21 -323 26 -417 9z"/>
<path d="M2922 2266 c-410 -79 -746 -357 -889 -738 -43 -115 -66 -249 -153
-923 -38 -297 -72 -555 -75 -572 l-6 -33 210 0 209 0 6 38 c3 20 17 125 31
232 14 107 27 198 28 202 1 4 31 -12 67 -34 257 -164 603 -182 914 -46 239
104 460 316 582 560 177 352 136 787 -97 1043 -107 116 -250 205 -404 250
-112 33 -307 43 -423 21z m221 -421 c89 -19 176 -66 242 -133 104 -103 158
-268 137 -413 -40 -277 -251 -499 -529 -556 -188 -39 -391 36 -502 185 -58 77
-83 150 -89 260 -13 266 149 516 401 619 126 51 226 62 340 38z"/>
<path d="M6806 2215 c-174 -48 -342 -202 -405 -371 -11 -29 -27 -97 -36 -151
-17 -111 -175 -1310 -175 -1330 0 -10 45 -13 215 -13 215 0 215 0 219 22 3 13
41 304 86 648 45 344 86 639 91 657 15 47 47 83 93 104 34 15 66 19 183 19
l141 0 6 38 c4 20 17 117 30 215 l23 177 -211 -1 c-144 -1 -227 -5 -260 -14z"/>
<path d="M9190 541 c0 -6 15 -11 33 -13 l32 -3 3 -97 c2 -77 6 -98 17 -98 11
0 15 21 17 98 l3 97 33 3 c66 7 29 22 -53 22 -47 0 -85 -4 -85 -9z"/>
<path d="M9410 440 c0 -91 3 -110 15 -110 12 0 15 17 15 92 0 50 3 88 8 84 4
-4 21 -44 38 -89 17 -44 35 -82 41 -84 6 -2 25 33 43 79 18 46 37 87 42 93 4
5 8 -32 8 -83 0 -75 3 -92 15 -92 12 0 15 19 15 110 l0 110 -28 0 c-26 0 -30
-6 -57 -79 -16 -44 -32 -78 -36 -75 -3 2 -19 37 -35 79 -26 68 -31 75 -56 75
l-28 0 0 -110z"/>
</g>
</svg>


