<?xml version="1.0" standalone="no"?>
<!DOCTYPE svg PUBLIC "-//W3C//DTD SVG 20010904//EN"
 "http://www.w3.org/TR/2001/REC-SVG-20010904/DTD/svg10.dtd">
<svg version="1.0" xmlns="http://www.w3.org/2000/svg"
 width="1360.000000pt" height="454.000000pt" viewBox="0 0 1360.000000 454.000000"
 preserveAspectRatio="xMidYMid meet">

<g transform="translate(0.000000,454.000000) scale(0.100000,-0.100000)"
fill="#000000" stroke="none">
<path d="M6861 3660 c-95 -50 -185 -99 -200 -109 -14 -10 -46 -28 -70 -41
l-43 -22 6 -51 c4 -29 14 -88 23 -132 14 -68 17 -158 17 -590 1 -280 -3 -536
-7 -568 -15 -104 -70 -140 -158 -103 -63 27 -95 77 -259 406 -61 124 -198 396
-303 605 l-192 380 -82 3 -81 3 -35 -73 c-19 -40 -55 -116 -80 -168 -25 -52
-71 -149 -102 -215 -32 -66 -72 -151 -90 -190 -18 -38 -53 -114 -79 -167 -25
-54 -67 -142 -92 -195 -157 -333 -184 -372 -270 -395 l-46 -13 7 -45 c4 -25
12 -50 18 -56 8 -8 97 -13 269 -17 291 -5 278 -9 286 73 4 47 3 50 -19 50 -38
1 -168 35 -180 47 -8 8 -6 23 5 57 35 103 100 246 117 256 4 3 134 7 287 9
l279 3 36 -59 c44 -74 127 -243 127 -260 0 -18 -30 -28 -132 -43 l-88 -13 0
-46 c0 -25 4 -52 8 -58 6 -10 151 -13 645 -16 715 -3 663 -8 674 71 5 38 4 40
-30 51 -57 19 -94 69 -103 138 -4 32 -4 342 -1 690 6 721 1 679 96 768 28 26
54 59 57 72 6 24 -10 53 -30 53 -6 0 -89 -41 -185 -90z m-1240 -903 c50 -98
88 -185 85 -193 -4 -11 -36 -14 -174 -14 -185 0 -232 5 -232 26 0 7 15 46 34
86 19 40 47 105 64 143 16 39 42 97 58 129 l28 59 23 -29 c12 -16 64 -109 114
-207z"/>
<path d="M8460 3674 c-80 -41 -161 -86 -180 -98 -20 -13 -55 -33 -78 -45 -77
-39 -81 -47 -65 -132 26 -140 34 -362 30 -814 -3 -311 -8 -462 -16 -488 -10
-30 -23 -44 -67 -69 -55 -30 -56 -32 -49 -67 4 -20 10 -39 13 -42 4 -4 128 -9
275 -11 262 -4 269 -4 283 16 8 11 14 37 14 58 0 34 -3 39 -44 57 -84 37 -98
93 -79 327 15 189 34 254 97 322 60 66 110 95 149 87 35 -8 91 -55 112 -95 20
-39 27 -181 16 -345 -18 -257 -27 -284 -106 -315 -31 -12 -35 -18 -35 -51 0
-20 6 -42 13 -48 14 -11 531 -21 539 -11 12 16 28 64 28 85 0 19 -11 30 -50
50 -88 44 -88 48 -71 330 20 339 18 367 -42 465 -36 59 -169 182 -215 198 -38
13 -108 -7 -184 -53 -63 -38 -196 -144 -232 -184 -34 -37 -39 -26 -32 67 4 48
11 211 15 362 9 314 10 319 89 393 64 59 76 80 62 107 -6 11 -18 20 -28 19 -9
0 -82 -34 -162 -75z"/>
<path d="M1500 3443 c-38 -82 -56 -103 -86 -103 -13 0 -70 20 -126 44 -157 68
-207 80 -313 73 -99 -7 -172 -30 -301 -95 -218 -110 -407 -273 -471 -407 -34
-72 -35 -79 -31 -163 7 -129 58 -222 222 -400 40 -43 64 -78 60 -85 -4 -7 -28
-41 -54 -77 -59 -82 -117 -198 -104 -209 17 -15 119 -54 204 -78 234 -65 515
-83 633 -40 174 63 385 274 451 451 23 61 24 201 2 263 -22 62 -64 130 -105
170 -39 39 -124 96 -156 106 -11 3 -47 15 -79 26 -85 30 -100 27 -164 -28
-295 -252 -366 -311 -378 -311 -28 0 -139 139 -176 220 -26 58 -35 167 -17
202 45 82 146 148 261 168 143 26 334 -35 542 -172 32 -21 66 -38 75 -36 18 3
112 184 154 298 16 41 35 90 43 108 7 18 17 50 20 71 5 33 3 41 -17 55 -42 29
-56 21 -89 -51z m-382 -808 c111 -33 175 -131 180 -275 2 -74 0 -90 -20 -124
-34 -59 -76 -79 -173 -84 -141 -7 -331 41 -446 114 -22 13 -39 28 -39 32 0 15
414 352 433 352 8 0 37 -7 65 -15z"/>
<path d="M2530 3454 c-76 -14 -251 -67 -275 -84 -5 -4 -46 -26 -90 -50 -108
-58 -254 -169 -320 -244 -238 -271 -214 -610 62 -877 120 -117 315 -237 433
-269 72 -19 207 1 365 55 126 43 261 130 340 217 50 56 125 163 125 179 0 5 6
20 14 32 26 40 65 174 86 291 44 250 19 362 -119 528 -71 86 -164 150 -272
189 -72 26 -101 31 -204 34 -66 2 -131 2 -145 -1z m0 -254 c101 -13 247 -56
292 -85 49 -33 114 -130 138 -207 71 -237 -4 -538 -165 -660 -70 -53 -152 -82
-206 -73 -117 20 -309 143 -437 281 -73 78 -90 104 -125 184 -51 121 -50 216
4 330 59 123 144 190 286 224 70 17 115 18 213 6z"/>
<path d="M3359 3395 c-22 -47 -24 -74 -6 -79 167 -49 181 -58 202 -130 23 -79
18 -1034 -5 -1081 -17 -33 -77 -59 -164 -70 l-48 -7 4 -49 c3 -28 10 -55 15
-60 7 -7 230 -11 659 -11 l649 -1 7 54 c3 30 16 124 27 209 33 243 28 280 -38
280 -27 0 -30 -5 -61 -97 -46 -140 -74 -188 -125 -213 -57 -28 -189 -42 -345
-38 l-130 3 -32 33 -33 32 0 503 c0 561 2 579 58 601 18 8 63 19 101 26 l68
13 -7 51 c-3 28 -10 55 -14 59 -4 4 -178 9 -386 10 l-378 3 -18 -41z"/>
<path d="M12530 3016 c-191 -83 -346 -167 -343 -187 2 -8 34 -73 71 -144 95
-182 197 -376 282 -540 40 -77 79 -149 87 -160 7 -11 13 -27 13 -36 0 -9 -51
-61 -112 -114 -62 -53 -140 -120 -173 -148 -109 -94 -122 -115 -165 -258 -12
-41 -28 -92 -36 -114 -20 -57 -18 -92 5 -105 37 -19 50 -11 81 53 21 41 41 68
63 81 18 10 93 29 167 43 112 20 179 25 392 30 273 6 288 4 288 -40 0 -11 -21
-63 -46 -115 -43 -90 -45 -97 -28 -109 40 -29 65 -10 146 107 40 59 64 100
126 211 29 52 36 110 19 152 -26 62 -28 62 -392 62 -181 0 -350 -4 -373 -8
-61 -11 -53 4 44 81 368 295 623 555 697 712 69 145 63 274 -17 382 -65 88
-206 188 -264 188 -28 0 -109 -47 -169 -97 -49 -41 -53 -48 -53 -88 l0 -43 83
-52 c46 -28 97 -65 114 -83 57 -60 67 -136 32 -239 -30 -90 -138 -248 -170
-248 -14 0 -296 574 -311 633 -16 62 -4 84 76 146 33 26 61 52 64 59 5 15 -26
52 -42 52 -6 0 -76 -29 -156 -64z"/>
<path d="M7576 3029 c-33 -17 -76 -43 -95 -57 -194 -144 -299 -268 -340 -403
-17 -54 -14 -237 5 -311 39 -150 138 -282 259 -343 55 -27 69 -30 160 -30 95
0 103 2 160 34 85 47 180 120 249 190 l59 60 -17 35 c-26 55 -44 59 -101 24
-28 -17 -52 -34 -55 -38 -12 -17 -49 -28 -112 -35 -61 -7 -71 -5 -117 20 -80
44 -132 111 -167 215 -14 42 -18 87 -19 185 0 116 3 136 24 182 32 72 41 78
95 63 56 -15 127 -84 162 -157 14 -29 34 -55 43 -58 21 -6 127 28 202 65 49
25 57 33 62 63 8 50 -7 102 -39 140 -34 39 -137 120 -203 159 -65 39 -136 38
-215 -3z"/>
<path d="M9792 3026 c-167 -91 -354 -273 -410 -400 -18 -40 -42 -210 -36 -249
30 -189 68 -272 168 -373 80 -79 140 -112 224 -120 139 -15 265 45 433 204 83
78 83 79 70 110 -7 17 -21 38 -32 48 -18 16 -22 15 -87 -29 -116 -77 -206 -85
-297 -25 -26 17 -63 55 -83 85 -34 52 -65 139 -54 157 4 7 178 92 257 125 11
5 45 20 75 34 30 13 89 39 130 57 96 42 97 43 104 94 11 72 -15 116 -124 207
-106 87 -151 109 -224 109 -39 0 -66 -9 -114 -34z m56 -223 c42 -18 102 -71
102 -89 0 -14 -226 -129 -266 -136 -48 -8 -15 182 42 239 24 24 41 22 122 -14z"/>
<path d="M10525 2989 c-55 -28 -107 -57 -116 -65 -8 -8 -19 -14 -24 -14 -5 0
-16 -7 -25 -15 -17 -15 -16 -21 7 -93 14 -42 31 -117 39 -167 29 -193 9 -548
-33 -581 -10 -8 -38 -24 -62 -35 -40 -19 -43 -22 -37 -52 4 -18 12 -37 19 -43
8 -9 92 -13 276 -16 l264 -3 19 35 c25 48 20 72 -22 92 -19 9 -48 30 -65 48
l-30 31 2 190 c2 196 10 244 53 326 26 50 86 111 130 134 34 18 44 19 75 9 39
-13 74 -54 99 -114 13 -31 16 -79 16 -252 0 -119 -5 -236 -11 -265 -12 -56
-47 -98 -100 -120 -35 -14 -44 -40 -27 -76 l13 -28 265 -7 c264 -6 265 -6 282
15 10 12 18 39 18 59 0 34 -3 39 -42 56 -92 41 -103 84 -87 320 13 201 26 242
99 327 85 100 145 115 215 54 61 -54 67 -88 62 -330 -5 -211 -17 -320 -39
-347 -7 -7 -34 -25 -61 -39 -48 -24 -49 -26 -43 -61 3 -20 12 -39 19 -44 8 -4
128 -9 267 -10 l253 -2 18 24 c10 14 19 38 21 55 3 27 -2 33 -47 57 -27 15
-58 37 -67 49 -21 25 -23 93 -8 236 5 51 11 163 12 250 1 152 0 161 -25 216
-15 34 -52 85 -89 124 -144 150 -195 158 -356 56 -46 -30 -115 -85 -177 -145
-33 -32 -66 -58 -73 -58 -7 0 -23 24 -36 53 -49 111 -166 217 -239 217 -65 0
-228 -101 -347 -216 -25 -24 -49 -44 -53 -44 -4 0 -7 45 -7 99 0 92 -2 102
-26 130 -14 17 -35 31 -47 31 -12 0 -67 -23 -122 -51z"/>
<path d="M2337 1856 c-53 -20 -105 -56 -160 -111 -63 -63 -109 -131 -105 -155
3 -19 8 -17 57 17 111 79 120 83 202 83 100 0 191 -30 433 -144 65 -31 119
-56 121 -56 1 0 51 -22 109 -50 58 -27 108 -50 111 -50 2 0 46 -20 97 -45 132
-65 185 -79 303 -78 165 1 223 42 306 213 46 96 73 230 51 252 -21 21 -41 -2
-101 -119 -91 -179 -105 -188 -239 -149 -75 21 -336 121 -447 170 -58 26 -470
189 -525 207 -77 27 -166 33 -213 15z"/>
</g>
</svg>
