<?xml version="1.0" encoding="UTF-8"?>
<svg version="1.1" xmlns="http://www.w3.org/2000/svg" width="978" height="358">
<path d="M0 0 C322.74 0 645.48 0 978 0 C978 118.14 978 236.28 978 358 C655.26 358 332.52 358 0 358 C0 239.86 0 121.72 0 0 Z " fill="#FDFDFD" transform="translate(0,0)"/>
<path d="M0 0 C6.5947075 -0.04210264 13.18935907 -0.06778438 19.78417969 -0.08349609 C20.85122131 -0.08644684 21.91826294 -0.08939758 23.01763916 -0.09243774 C26.04923282 -0.09814404 29.08071163 -0.09620943 32.11230469 -0.09130859 C33.02303741 -0.09326736 33.93377014 -0.09522614 34.87210083 -0.09724426 C36.12650467 -0.09261421 36.12650467 -0.09261421 37.40625 -0.08789062 C38.13467102 -0.08709503 38.86309204 -0.08629944 39.61358643 -0.08547974 C41.53417969 0.04150391 41.53417969 0.04150391 44.53417969 1.04150391 C44.53417969 1.70150391 44.53417969 2.36150391 44.53417969 3.04150391 C45.29730469 3.33025391 46.06042969 3.61900391 46.84667969 3.91650391 C49.53417969 5.04150391 49.53417969 5.04150391 52.53417969 7.04150391 C52.53417969 7.70150391 52.53417969 8.36150391 52.53417969 9.04150391 C53.11167969 9.12400391 53.68917969 9.20650391 54.28417969 9.29150391 C58.37025416 10.65352873 60.16111654 13.37828054 62.22167969 17.04150391 C64.14528044 21.43830563 64.65737491 24.88080281 64.63183594 29.68212891 C64.62861328 30.75205078 64.62539062 31.82197266 64.62207031 32.92431641 C64.61369141 34.03548828 64.6053125 35.14666016 64.59667969 36.29150391 C64.59216797 37.41814453 64.58765625 38.54478516 64.58300781 39.70556641 C64.57123366 42.48426608 64.55478808 45.262858 64.53417969 48.04150391 C63.4475 48.46431641 62.36082031 48.88712891 61.24121094 49.32275391 C58.19792582 50.6286612 56.28605492 51.88979938 54.22167969 54.54150391 C53.75117188 55.12931641 53.28066406 55.71712891 52.79589844 56.32275391 C47.90911366 62.97967434 47.77786567 69.96365006 48.53417969 78.04150391 C49.45401422 81.04596344 50.76454963 83.45645608 52.53417969 86.04150391 C52.90800781 86.60740234 53.28183594 87.17330078 53.66699219 87.75634766 C55.83318005 90.69002592 57.87578436 92.37970695 61.20214844 93.70947266 C62.30171875 94.14904297 63.40128906 94.58861328 64.53417969 95.04150391 C64.62234874 98.68718104 64.67495917 102.33257865 64.72167969 105.97900391 C64.74681641 107.00058594 64.77195313 108.02216797 64.79785156 109.07470703 C64.85948417 115.50504263 64.37769269 121.18605254 61.53417969 127.04150391 C60.87417969 127.70150391 60.21417969 128.36150391 59.53417969 129.04150391 C59.25574219 129.84201172 58.97730469 130.64251953 58.69042969 131.46728516 C57.28871433 134.58799604 55.93035678 135.47531226 53.03417969 137.22900391 C50.57293944 138.74330594 48.58287288 139.99281071 46.53417969 142.04150391 C42.81342984 143.42800975 38.95785267 143.17422767 35.03417969 143.16650391 C33.72449219 143.16908203 32.41480469 143.17166016 31.06542969 143.17431641 C28.31182045 143.07075146 26.13065122 142.87608404 23.53417969 142.04150391 C23.53417969 141.38150391 23.53417969 140.72150391 23.53417969 140.04150391 C22.20386719 139.67025391 22.20386719 139.67025391 20.84667969 139.29150391 C16.10767777 137.50320129 13.33461634 135.24215888 10.53417969 131.04150391 C10.53417969 130.05150391 10.53417969 129.06150391 10.53417969 128.04150391 C9.04917969 127.54650391 9.04917969 127.54650391 7.53417969 127.04150391 C3.88559829 118.3603092 3.60624225 105.13471922 5.53417969 96.04150391 C7.84687597 92.9904422 9.58173164 91.81566935 13.05371094 90.28759766 C16.12730349 88.74354092 16.89866832 86.99328269 18.53417969 84.04150391 C19.19417969 84.04150391 19.85417969 84.04150391 20.53417969 84.04150391 C22.43130355 76.06153844 22.70723431 66.00937085 20.53417969 58.04150391 C19.22039635 57.33709241 17.88366549 56.67483659 16.53417969 56.04150391 C15.38174492 55.07324821 14.25647499 54.07182814 13.15917969 53.04150391 C7.77402263 48.38345666 2.49870094 47.462202 -4.51660156 47.59619141 C-11.05941473 48.58411287 -17.14435602 52.1543668 -21.52832031 57.10400391 C-25.12461881 62.55645646 -25.74107099 66.88744611 -25.59082031 73.35400391 C-25.58179688 74.09457031 -25.57277344 74.83513672 -25.56347656 75.59814453 C-25.54006245 77.41273858 -25.50419647 79.22716462 -25.46582031 81.04150391 C-24.80582031 81.04150391 -24.14582031 81.04150391 -23.46582031 81.04150391 C-23.17707031 81.78400391 -22.88832031 82.52650391 -22.59082031 83.29150391 C-22.21957031 84.19900391 -21.84832031 85.10650391 -21.46582031 86.04150391 C-21.17707031 86.76337891 -20.88832031 87.48525391 -20.59082031 88.22900391 C-18.70915027 91.26058342 -15.59290635 91.98816312 -12.37597656 93.33837891 C-8.99918871 96.4749389 -8.99521971 97.20312383 -8.69628906 101.61962891 C-8.6524552 103.84320135 -8.63927694 106.06754379 -8.65332031 108.29150391 C-8.62883956 110.50507909 -8.60155695 112.71862529 -8.57128906 114.93212891 C-8.56274902 115.97820312 -8.55420898 117.02427734 -8.54541016 118.10205078 C-8.44496972 121.81156861 -8.02467253 125.37543333 -7.46582031 129.04150391 C-6.80582031 129.04150391 -6.14582031 129.04150391 -5.46582031 129.04150391 C-3.43146501 132.7711553 -2.46582031 134.71055432 -2.46582031 139.04150391 C-1.80582031 139.04150391 -1.14582031 139.04150391 -0.46582031 139.04150391 C0.60278964 140.20779843 1.61447948 141.42656322 2.59667969 142.66650391 C8.94894601 150.09720881 17.13137279 155.22935988 26.98876953 156.31079102 C29.51090686 156.40627016 32.01085776 156.40252933 34.53417969 156.35400391 C35.37207031 156.35722656 36.20996094 156.36044922 37.07324219 156.36376953 C42.82090179 156.31483435 47.96320829 155.45109445 53.53417969 154.04150391 C53.20417969 155.03150391 52.87417969 156.02150391 52.53417969 157.04150391 C50.55417969 157.04150391 48.57417969 157.04150391 46.53417969 157.04150391 C46.53417969 157.70150391 46.53417969 158.36150391 46.53417969 159.04150391 C34.13808325 158.98024928 21.7421966 158.90311129 9.34632778 158.80578899 C3.59019309 158.76109359 -2.16587095 158.72183543 -7.92211914 158.69506836 C-13.4789619 158.66902741 -19.0355327 158.62861888 -24.59220695 158.57831764 C-26.71040395 158.56165438 -28.82864799 158.55013675 -30.94690132 158.54389 C-33.91777062 158.53424324 -36.88794496 158.50617634 -39.85864258 158.47387695 C-41.16739853 158.47602959 -41.16739853 158.47602959 -42.50259399 158.47822571 C-49.69772551 158.36785665 -54.77792683 156.28797178 -60.90332031 152.47900391 C-61.92232422 151.85832031 -61.92232422 151.85832031 -62.96191406 151.22509766 C-63.45820312 150.83451172 -63.95449219 150.44392578 -64.46582031 150.04150391 C-64.46582031 149.38150391 -64.46582031 148.72150391 -64.46582031 148.04150391 C-65.45582031 147.71150391 -66.44582031 147.38150391 -67.46582031 147.04150391 C-71.78259104 143.02520446 -75.12674637 138.5226258 -77.49194336 133.12915039 C-78.54417374 130.77122185 -78.54417374 130.77122185 -80.53222656 127.66650391 C-83.48723751 121.78512508 -83.14088479 115.49277099 -83.21582031 109.04150391 C-83.24546875 107.78982422 -83.27511719 106.53814453 -83.30566406 105.24853516 C-83.37594819 102.17946149 -83.42885223 99.11112938 -83.46582031 96.04150391 C-84.12582031 96.04150391 -84.78582031 96.04150391 -85.46582031 96.04150391 C-85.46582031 95.38150391 -85.46582031 94.72150391 -85.46582031 94.04150391 C-84.92570312 94.20134766 -84.38558594 94.36119141 -83.82910156 94.52587891 C-76.55060871 96.11391371 -68.93899855 95.84925581 -62.46582031 92.04150391 C-57.53433739 88.57897334 -53.69237911 84.77164875 -51.46582031 79.04150391 C-51.0193783 75.87070018 -51.08200368 72.79758932 -51.21582031 69.60400391 C-51.23386719 68.77707031 -51.25191406 67.95013672 -51.27050781 67.09814453 C-51.31719891 65.07875458 -51.38892639 63.05996946 -51.46582031 61.04150391 C-52.12582031 61.04150391 -52.78582031 61.04150391 -53.46582031 61.04150391 C-55.36273264 58.34911221 -57.12370516 55.6013287 -58.84082031 52.79150391 C-61.05085639 50.41146505 -63.40443582 49.97322962 -66.46582031 49.04150391 C-70.32065421 41.33183612 -67.71355706 26.02239197 -65.46582031 18.04150391 C-62.64217429 10.16501763 -55.90576245 5.65085408 -48.60571289 2.10473633 C-42.07889339 -0.10537944 -35.1604787 0.2499838 -28.34082031 0.22900391 C-26.65883067 0.20679113 -24.97686343 0.18282255 -23.29492188 0.15722656 C-18.6914196 0.09562408 -14.08836164 0.06942031 -9.48449707 0.05328369 C-6.32294627 0.04094637 -3.16150372 0.02112534 0 0 Z " fill="#FBFCFE" transform="translate(167.4658203125,77.95849609375)"/>
<path d="M0 0 C1.42569211 -0.00424107 1.42569211 -0.00424107 2.88018608 -0.00856781 C7.90263007 -0.02348357 12.92504585 -0.03276312 17.94750977 -0.03710938 C23.11427365 -0.04260647 28.2807757 -0.06668245 33.44745731 -0.09508133 C37.44275156 -0.11375364 41.437983 -0.11891559 45.43331718 -0.12044525 C47.33778769 -0.12345805 49.24225744 -0.13143979 51.14668465 -0.14463043 C53.81421819 -0.16180009 56.48111436 -0.15978513 59.14868164 -0.15332031 C59.9234787 -0.1625351 60.69827576 -0.17174988 61.49655151 -0.1812439 C72.4258793 -0.09880903 83.38048696 4.73624169 91.77734375 11.578125 C94.33220895 14.74129143 95.81348764 18.37405666 97.08984375 22.203125 C97.74984375 22.203125 98.40984375 22.203125 99.08984375 22.203125 C101.91554079 29.12917182 102.55070171 35.39373558 102.65234375 42.828125 C102.77306374 52.19945105 102.77306374 52.19945105 105.08984375 61.203125 C106.95629281 62.38642683 106.95629281 62.38642683 109.08984375 63.203125 C110.46852656 64.83247741 111.80258468 66.50062107 113.08984375 68.203125 C113.58484375 68.656875 114.07984375 69.110625 114.58984375 69.578125 C119.91013602 75.34177496 120.78687287 80.24828048 120.546875 87.97265625 C119.63216153 94.43819505 116.22756396 100.12838138 111.08984375 104.203125 C110.42984375 104.203125 109.76984375 104.203125 109.08984375 104.203125 C109.08984375 104.863125 109.08984375 105.523125 109.08984375 106.203125 C106.44245459 107.6637535 105.19536041 108.203125 102.08984375 108.203125 C102.11340942 109.45802734 102.11340942 109.45802734 102.13745117 110.73828125 C102.1889338 113.8767666 102.22636483 117.01503488 102.25463867 120.15380859 C102.27693783 122.16648748 102.31508028 124.17897084 102.35351562 126.19140625 C102.46131287 140.49250731 97.72868527 149.71331615 88.08984375 160.203125 C76.74237665 170.14372832 64.92504045 171.20312279 50.37744141 170.41455078 C39.04094435 169.36680196 30.4905441 162.34389539 23.08984375 154.203125 C23.08984375 153.543125 23.08984375 152.883125 23.08984375 152.203125 C22.42984375 152.203125 21.76984375 152.203125 21.08984375 152.203125 C18.08984375 145.578125 18.08984375 145.578125 18.08984375 142.203125 C17.42984375 142.203125 16.76984375 142.203125 16.08984375 142.203125 C14.59656724 137.38950426 13.9662085 133.21343619 13.9921875 128.1640625 C13.99412109 127.08898437 13.99605469 126.01390625 13.99804688 124.90625 C14.01765048 122.67928042 14.06473702 120.45239077 14.13867188 118.2265625 C14.22964084 112.1283413 14.22964084 112.1283413 11.11401367 107.18701172 C8.83160943 105.68595659 6.51179739 104.45927339 4.08984375 103.203125 C0.73887132 99.77042154 0.08984375 99.08338629 0.08984375 94.203125 C-0.57015625 94.203125 -1.23015625 94.203125 -1.91015625 94.203125 C-3.82130712 87.67724398 -4.16535813 79.99513503 -1.22265625 73.765625 C2.89241397 66.8739503 8.56058463 62.81640982 16.08984375 60.203125 C24.65631816 58.80550048 31.34828202 60.900382 38.35546875 65.78125 C42.95445996 69.45382572 45.32554206 72.18424918 46.08984375 78.203125 C46.76962825 91.5670703 46.76962825 91.5670703 44.08984375 97.203125 C43.42984375 97.203125 42.76984375 97.203125 42.08984375 97.203125 C41.86554688 97.97785156 41.64125 98.75257813 41.41015625 99.55078125 C39.73893435 102.90805839 38.34119238 103.1736929 34.96484375 104.640625 C32.08620824 106.28925073 32.08620824 106.28925073 30.08984375 109.203125 C28.07166374 118.63781918 28.79087877 131.08980065 32.08984375 140.203125 C32.74984375 140.533125 33.40984375 140.863125 34.08984375 141.203125 C34.64671875 142.29625 35.20359375 143.389375 35.77734375 144.515625 C38.08825979 148.76247825 40.78641963 150.13110598 45.08984375 152.203125 C45.74984375 152.533125 46.40984375 152.863125 47.08984375 153.203125 C47.08984375 153.863125 47.08984375 154.523125 47.08984375 155.203125 C50.15258206 155.25722636 53.21435827 155.29684725 56.27734375 155.328125 C57.57381836 155.35326172 57.57381836 155.35326172 58.89648438 155.37890625 C65.68385678 155.43091677 69.87011292 154.39738119 75.27734375 150.140625 C78.93391155 147.2810911 78.93391155 147.2810911 81.08984375 146.203125 C81.78024949 144.54615121 82.44290725 142.8775489 83.08984375 141.203125 C83.60546875 140.378125 84.12109375 139.553125 84.65234375 138.703125 C87.02950166 134.56893734 87.22248189 130.38280698 87.40625 125.68359375 C87.44814453 124.66201172 87.49003906 123.64042969 87.53320312 122.58789062 C87.57251953 121.53279297 87.61183594 120.47769531 87.65234375 119.390625 C87.71711914 117.77897461 87.71711914 117.77897461 87.78320312 116.13476562 C87.88895358 113.49100418 87.99104608 110.8471539 88.08984375 108.203125 C87.31511719 108.08066406 86.54039062 107.95820313 85.7421875 107.83203125 C79.63757249 106.38454522 75.4285348 99.25342349 72.08984375 94.203125 C69.9406543 87.75555664 70.09416656 79.33713067 73.08984375 73.203125 C74.60448503 70.74246193 76.1263365 68.33025786 78.08984375 66.203125 C78.74984375 66.203125 79.40984375 66.203125 80.08984375 66.203125 C80.41984375 65.213125 80.74984375 64.223125 81.08984375 63.203125 C84.15234375 62.015625 84.15234375 62.015625 87.08984375 61.203125 C87.17774019 57.36993881 87.23053462 53.53701572 87.27734375 49.703125 C87.30248047 48.62546875 87.32761719 47.5478125 87.35351562 46.4375 C87.41320296 39.91168416 86.80956973 35.14648557 84.08984375 29.203125 C83.68765625 28.0584375 83.68765625 28.0584375 83.27734375 26.890625 C81.46799471 24.31944478 78.88764008 23.54606724 76.08984375 22.203125 C74.73676062 20.88983843 73.40114297 19.55813419 72.08984375 18.203125 C69.95675183 16.96800421 69.95675183 16.96800421 68.08984375 16.203125 C68.08984375 15.543125 68.08984375 14.883125 68.08984375 14.203125 C52.20104879 14.13924477 36.31302325 14.13989932 20.42419434 14.19390869 C17.29612192 14.20255484 14.16812156 14.20452512 11.04003906 14.20458984 C6.56298913 14.20759015 2.08726449 14.24169379 -2.38937378 14.30178833 C-4.0078876 14.31912819 -5.62654475 14.32644946 -7.24514771 14.32296753 C-18.04448143 14.30951492 -27.54180665 15.50389162 -35.96191406 23.03930664 C-43.59584869 31.11274929 -43.07124137 42.26826889 -42.97265625 52.703125 C-42.96814453 53.6209375 -42.96363281 54.53875 -42.95898438 55.484375 C-42.94731951 57.72402891 -42.93095239 59.96354045 -42.91015625 62.203125 C-41.82605469 62.450625 -40.74195313 62.698125 -39.625 62.953125 C-35.78065647 64.24670011 -34.68353332 64.943729 -32.47265625 68.203125 C-31.97894531 68.904375 -31.48523438 69.605625 -30.9765625 70.328125 C-29.91015625 72.203125 -29.91015625 72.203125 -29.91015625 74.203125 C-29.25015625 74.203125 -28.59015625 74.203125 -27.91015625 74.203125 C-25.97853733 80.66846106 -25.50557103 88.5361926 -27.93359375 94.875 C-31.52837007 100.63458636 -37.29390143 106.59542729 -43.828125 108.87109375 C-53.93826884 110.48340562 -61.40797048 108.83222625 -69.84765625 103.265625 C-72.14608735 100.9671939 -72.93465025 99.27972085 -73.91015625 96.203125 C-74.25046875 95.44644531 -74.59078125 94.68976563 -74.94140625 93.91015625 C-77.0103315 88.12884496 -76.95899445 80.88745621 -74.53515625 75.203125 C-73.99890625 74.213125 -73.46265625 73.223125 -72.91015625 72.203125 C-72.46929687 71.22085938 -72.46929687 71.22085938 -72.01953125 70.21875 C-70.7824594 67.97111241 -69.47099357 66.62690574 -67.53515625 64.953125 C-66.94992188 64.43234375 -66.3646875 63.9115625 -65.76171875 63.375 C-63.91015625 62.203125 -63.91015625 62.203125 -59.91015625 62.203125 C-59.92062988 61.54828125 -59.93110352 60.8934375 -59.94189453 60.21875 C-59.98380984 57.21358168 -60.00959434 54.20847516 -60.03515625 51.203125 C-60.06029297 49.65818359 -60.06029297 49.65818359 -60.0859375 48.08203125 C-60.13560269 40.28459662 -59.30632478 33.72743824 -55.97265625 26.578125 C-55.62847656 25.83433594 -55.28429687 25.09054688 -54.9296875 24.32421875 C-53.62073235 21.60099022 -52.28892176 18.89171775 -50.91015625 16.203125 C-50.25015625 16.203125 -49.59015625 16.203125 -48.91015625 16.203125 C-48.81790771 15.59557373 -48.72565918 14.98802246 -48.63061523 14.36206055 C-47.72663776 11.65319143 -46.80231788 11.11269616 -44.3828125 9.66015625 C-43.67318359 9.22638672 -42.96355469 8.79261719 -42.23242188 8.34570312 C-41.48669922 7.90677734 -40.74097656 7.46785156 -39.97265625 7.015625 C-39.23080078 6.56509766 -38.48894531 6.11457031 -37.72460938 5.65039062 C-26.1248933 -1.3641249 -13.21384695 0.02660393 0 0 Z " fill="#1731EA" transform="translate(143.91015625,64.796875)"/>
<path d="M0 0 C12.35041483 -0.45371917 21.75912361 1.2733594 31.11328125 9.8203125 C32.97123975 11.5556776 34.66275752 13.29579131 36.36328125 15.1953125 C36.36328125 15.8553125 36.36328125 16.5153125 36.36328125 17.1953125 C37.02328125 17.1953125 37.68328125 17.1953125 38.36328125 17.1953125 C39.34300709 18.88449499 40.31950643 20.57565404 41.27734375 22.27734375 C42.17792411 23.86793712 43.11036066 25.44044485 44.05078125 27.0078125 C47.28633161 34.86557766 46.59960167 44.31555905 46.67578125 52.6953125 C46.71928711 54.29052734 46.71928711 54.29052734 46.76367188 55.91796875 C46.83529052 64.89784518 44.34696522 71.30186167 40.36328125 79.1953125 C39.70328125 79.1953125 39.04328125 79.1953125 38.36328125 79.1953125 C38.22599609 80.05382812 38.22599609 80.05382812 38.0859375 80.9296875 C37.18639667 83.74986955 35.79375884 85.27115512 33.80078125 87.4453125 C33.16011719 88.15171875 32.51945312 88.858125 31.859375 89.5859375 C31.11880859 90.38257813 31.11880859 90.38257813 30.36328125 91.1953125 C31.70990564 94.43265195 32.88040235 95.83381974 35.98828125 97.4453125 C37.10203125 98.0228125 38.21578125 98.6003125 39.36328125 99.1953125 C39.36328125 99.8553125 39.36328125 100.5153125 39.36328125 101.1953125 C41.34328125 101.5253125 43.32328125 101.8553125 45.36328125 102.1953125 C44.63160325 106.95121952 41.72505262 110.35988152 38.92578125 114.1328125 C37.36328125 115.1953125 37.36328125 115.1953125 35.17578125 115.1328125 C27.16746223 112.46337283 20.11437557 108.32195397 15.36328125 101.1953125 C12.75131834 100.68518685 12.75131834 100.68518685 9.69921875 100.68359375 C8.57773437 100.64814453 7.45625 100.61269531 6.30078125 100.57617188 C5.12515625 100.55361328 3.94953125 100.53105469 2.73828125 100.5078125 C1.55492187 100.47365234 0.3715625 100.43949219 -0.84765625 100.40429688 C-3.77724935 100.32160675 -6.70653515 100.25252536 -9.63671875 100.1953125 C-9.63671875 99.5353125 -9.63671875 98.8753125 -9.63671875 98.1953125 C-10.89484375 98.0303125 -12.15296875 97.8653125 -13.44921875 97.6953125 C-22.37698556 95.70979969 -30.62187658 88.75169033 -35.63671875 81.1953125 C-37.43981312 77.87128738 -38.63671875 75.0427771 -38.63671875 71.1953125 C-39.29671875 71.1953125 -39.95671875 71.1953125 -40.63671875 71.1953125 C-42.32711225 62.10944744 -42.96347467 53.42880224 -42.63671875 44.1953125 C-42.60707031 43.12796875 -42.57742188 42.060625 -42.546875 40.9609375 C-42.1956256 34.2100953 -40.72277107 29.17225178 -37.63671875 23.1953125 C-36.95837288 21.53336512 -36.284723 19.86932347 -35.63671875 18.1953125 C-34.97671875 18.1953125 -34.31671875 18.1953125 -33.63671875 18.1953125 C-33.57484375 17.6384375 -33.51296875 17.0815625 -33.44921875 16.5078125 C-31.70178893 11.5343584 -27.17702224 8.5268197 -22.63671875 6.1953125 C-21.97671875 6.1953125 -21.31671875 6.1953125 -20.63671875 6.1953125 C-20.63671875 5.5353125 -20.63671875 4.8753125 -20.63671875 4.1953125 C-13.69800541 1.64148051 -7.368054 0.39570644 0 0 Z " fill="#151515" transform="translate(452.63671875,104.8046875)"/>
<path d="M0 0 C3.95827235 -0.05785647 7.9164367 -0.09354717 11.875 -0.125 C13.00292969 -0.14175781 14.13085938 -0.15851563 15.29296875 -0.17578125 C16.36933594 -0.18222656 17.44570313 -0.18867187 18.5546875 -0.1953125 C19.54968262 -0.20578613 20.54467773 -0.21625977 21.56982422 -0.22705078 C24 0 24 0 26 2 C26.77783203 3.99951172 26.77783203 3.99951172 27.5078125 6.4296875 C27.77207031 7.30753906 28.03632812 8.18539062 28.30859375 9.08984375 C28.57800781 10.00894531 28.84742188 10.92804688 29.125 11.875 C29.54072266 13.24205078 29.54072266 13.24205078 29.96484375 14.63671875 C31.15929152 18.65547651 32 21.76214832 32 26 C32.66 26 33.32 26 34 26 C34.36351562 27.17433594 34.72703125 28.34867188 35.1015625 29.55859375 C37.93112545 38.63653766 40.84134189 47.65697052 44.17041016 56.56616211 C45.41271231 59.96603732 46 62.32376494 46 66 C46.66 66 47.32 66 48 66 C48.495 69.465 48.495 69.465 49 73 C49.66 73 50.32 73 51 73 C51.185625 71.4840625 51.185625 71.4840625 51.375 69.9375 C51.98085335 66.12062388 52.87193912 62.68499888 54 59 C54.66 59 55.32 59 56 59 C56.09087891 58.09507812 56.09087891 58.09507812 56.18359375 57.171875 C56.26738281 56.37265625 56.35117187 55.5734375 56.4375 54.75 C56.51871094 53.96109375 56.59992187 53.1721875 56.68359375 52.359375 C56.97634993 50.17635361 57.42064419 48.1226818 58 46 C58.66 46 59.32 46 60 46 C60.33 43.69 60.66 41.38 61 39 C61.66 39 62.32 39 63 39 C63.10812012 38.4013916 63.21624023 37.8027832 63.32763672 37.18603516 C64.54025775 30.77540299 66.19630341 24.60404402 68.125 18.375 C68.40214844 17.46621094 68.67929687 16.55742188 68.96484375 15.62109375 C69.63897877 13.41272041 70.31739977 11.20576837 71 9 C71.66 9 72.32 9 73 9 C73.144375 7.865625 73.28875 6.73125 73.4375 5.5625 C74 2 74 2 75 1 C82.59 1 90.18 1 98 1 C98 32.68 98 64.36 98 97 C93.05 97 88.1 97 83 97 C82.505 61.36 82.505 61.36 82 25 C81.34 25 80.68 25 80 25 C79.896875 25.969375 79.79375 26.93875 79.6875 27.9375 C78.85251644 33.75886423 76.82615657 39.14940928 74.4375 44.5 C73.32768889 47.20214879 72.67903153 49.27432933 72.1328125 52.078125 C71.01033923 57.30675343 69.26953588 62.23362135 67.4375 67.25 C66.8080487 68.98323455 66.18164411 70.71757921 65.55859375 72.453125 C65.28329834 73.20754883 65.00800293 73.96197266 64.72436523 74.73925781 C63.95519565 77.13983427 63.45030794 79.52153133 63 82 C62.34 82 61.68 82 61 82 C60.8453125 83.2065625 60.8453125 83.2065625 60.6875 84.4375 C59.84404652 88.80812258 58.46466284 92.79705446 57 97 C52.38 97 47.76 97 43 97 C43 95.68 43 94.36 43 93 C42.34 93 41.68 93 41 93 C41 92.01 41 91.02 41 90 C40.34 90 39.68 90 39 90 C38.77860352 89.25951416 38.55720703 88.51902832 38.32910156 87.75610352 C37.30883657 84.35637037 36.27948961 80.95945064 35.25 77.5625 C34.90195312 76.39783203 34.55390625 75.23316406 34.1953125 74.03320312 C32.66987832 69.01904449 31.1580015 64.11724085 28.9375 59.36328125 C26.56853971 54.2910222 25.17108017 49.02655473 23.75 43.625 C23.481875 42.64144531 23.21375 41.65789062 22.9375 40.64453125 C21 33.41844707 21 33.41844707 21 30 C20.34 30 19.68 30 19 30 C19 29.01 19 28.02 19 27 C18.34 27 17.68 27 17 27 C17 50.43 17 73.86 17 98 C11.72 98 6.44 98 1 98 C-0.91064299 96.08935701 -0.12014611 93.26172105 -0.12442017 90.71983337 C-0.12082489 89.81640701 -0.11722961 88.91298065 -0.11352539 87.98217773 C-0.11367142 87.03593536 -0.11381744 86.08969299 -0.1139679 85.11477661 C-0.11326836 81.97102608 -0.10547409 78.82733399 -0.09765625 75.68359375 C-0.09579221 73.51025932 -0.09436824 71.33692448 -0.09336853 69.16358948 C-0.08954221 63.43098805 -0.07971097 57.69841177 -0.06866455 51.96582031 C-0.05845287 46.12109721 -0.05387143 40.27637007 -0.04882812 34.43164062 C-0.0380888 22.954416 -0.02101102 11.47721009 0 0 Z " fill="#171717" transform="translate(585,106)"/>
<path d="M0 0 C1.42569211 -0.00424107 1.42569211 -0.00424107 2.88018608 -0.00856781 C7.90263007 -0.02348357 12.92504585 -0.03276312 17.94750977 -0.03710938 C23.11427365 -0.04260647 28.2807757 -0.06668245 33.44745731 -0.09508133 C37.44275156 -0.11375364 41.437983 -0.11891559 45.43331718 -0.12044525 C47.33778769 -0.12345805 49.24225744 -0.13143979 51.14668465 -0.14463043 C53.81421819 -0.16180009 56.48111436 -0.15978513 59.14868164 -0.15332031 C59.9234787 -0.1625351 60.69827576 -0.17174988 61.49655151 -0.1812439 C72.4258793 -0.09880903 83.38048696 4.73624169 91.77734375 11.578125 C94.33220895 14.74129143 95.81348764 18.37405666 97.08984375 22.203125 C97.74984375 22.203125 98.40984375 22.203125 99.08984375 22.203125 C101.91554079 29.12917182 102.55070171 35.39373558 102.65234375 42.828125 C102.76596981 52.20158338 102.76596981 52.20158338 105.08984375 61.203125 C107.07552109 62.70056388 107.07552109 62.70056388 109.08984375 63.203125 C109.08984375 63.533125 109.08984375 63.863125 109.08984375 64.203125 C107.43984375 64.203125 105.78984375 64.203125 104.08984375 64.203125 C103.75984375 63.213125 103.42984375 62.223125 103.08984375 61.203125 C98.46984375 61.203125 93.84984375 61.203125 89.08984375 61.203125 C89.08984375 61.863125 89.08984375 62.523125 89.08984375 63.203125 C88.30738281 63.58984375 87.52492187 63.9765625 86.71875 64.375 C85.70683594 64.89578125 84.69492188 65.4165625 83.65234375 65.953125 C82.64300781 66.46359375 81.63367188 66.9740625 80.59375 67.5 C77.94577059 68.95335236 77.94577059 68.95335236 77.2421875 71.40625 C77.19191406 71.99921875 77.14164063 72.5921875 77.08984375 73.203125 C76.09984375 73.203125 75.10984375 73.203125 74.08984375 73.203125 C75.58117323 68.48058165 75.58117323 68.48058165 78.15234375 67.078125 C78.79171875 66.789375 79.43109375 66.500625 80.08984375 66.203125 C80.41984375 65.213125 80.74984375 64.223125 81.08984375 63.203125 C84.15234375 62.015625 84.15234375 62.015625 87.08984375 61.203125 C87.17774019 57.36993881 87.23053462 53.53701572 87.27734375 49.703125 C87.30248047 48.62546875 87.32761719 47.5478125 87.35351562 46.4375 C87.41320296 39.91168416 86.80956973 35.14648557 84.08984375 29.203125 C83.68765625 28.0584375 83.68765625 28.0584375 83.27734375 26.890625 C81.46799471 24.31944478 78.88764008 23.54606724 76.08984375 22.203125 C74.73676062 20.88983843 73.40114297 19.55813419 72.08984375 18.203125 C69.95675183 16.96800421 69.95675183 16.96800421 68.08984375 16.203125 C68.08984375 15.543125 68.08984375 14.883125 68.08984375 14.203125 C52.20104879 14.13924477 36.31302325 14.13989932 20.42419434 14.19390869 C17.29612192 14.20255484 14.16812156 14.20452512 11.04003906 14.20458984 C6.56298913 14.20759015 2.08726449 14.24169379 -2.38937378 14.30178833 C-4.0078876 14.31912819 -5.62654475 14.32644946 -7.24514771 14.32296753 C-18.04448143 14.30951492 -27.54180665 15.50389162 -35.96191406 23.03930664 C-43.59584869 31.11274929 -43.07124137 42.26826889 -42.97265625 52.703125 C-42.96814453 53.6209375 -42.96363281 54.53875 -42.95898438 55.484375 C-42.94731951 57.72402891 -42.93095239 59.96354045 -42.91015625 62.203125 C-41.82605469 62.450625 -40.74195313 62.698125 -39.625 62.953125 C-35.78065647 64.24670011 -34.68353332 64.943729 -32.47265625 68.203125 C-31.97894531 68.904375 -31.48523438 69.605625 -30.9765625 70.328125 C-29.91015625 72.203125 -29.91015625 72.203125 -29.91015625 74.203125 C-29.25015625 74.203125 -28.59015625 74.203125 -27.91015625 74.203125 C-25.97853733 80.66846106 -25.50557103 88.5361926 -27.93359375 94.875 C-31.52837007 100.63458636 -37.29390143 106.59542729 -43.828125 108.87109375 C-53.93826884 110.48340562 -61.40797048 108.83222625 -69.84765625 103.265625 C-72.14608735 100.9671939 -72.93465025 99.27972085 -73.91015625 96.203125 C-74.25046875 95.44644531 -74.59078125 94.68976563 -74.94140625 93.91015625 C-77.0103315 88.12884496 -76.95899445 80.88745621 -74.53515625 75.203125 C-73.99890625 74.213125 -73.46265625 73.223125 -72.91015625 72.203125 C-72.46929687 71.22085938 -72.46929687 71.22085938 -72.01953125 70.21875 C-70.7824594 67.97111241 -69.47099357 66.62690574 -67.53515625 64.953125 C-66.94992188 64.43234375 -66.3646875 63.9115625 -65.76171875 63.375 C-63.91015625 62.203125 -63.91015625 62.203125 -59.91015625 62.203125 C-59.92062988 61.54828125 -59.93110352 60.8934375 -59.94189453 60.21875 C-59.98380984 57.21358168 -60.00959434 54.20847516 -60.03515625 51.203125 C-60.06029297 49.65818359 -60.06029297 49.65818359 -60.0859375 48.08203125 C-60.13560269 40.28459662 -59.30632478 33.72743824 -55.97265625 26.578125 C-55.62847656 25.83433594 -55.28429687 25.09054688 -54.9296875 24.32421875 C-53.62073235 21.60099022 -52.28892176 18.89171775 -50.91015625 16.203125 C-50.25015625 16.203125 -49.59015625 16.203125 -48.91015625 16.203125 C-48.81790771 15.59557373 -48.72565918 14.98802246 -48.63061523 14.36206055 C-47.72663776 11.65319143 -46.80231788 11.11269616 -44.3828125 9.66015625 C-43.67318359 9.22638672 -42.96355469 8.79261719 -42.23242188 8.34570312 C-41.48669922 7.90677734 -40.74097656 7.46785156 -39.97265625 7.015625 C-39.23080078 6.56509766 -38.48894531 6.11457031 -37.72460938 5.65039062 C-26.1248933 -1.3641249 -13.21384695 0.02660393 0 0 Z " fill="#A2ACF2" transform="translate(143.91015625,64.796875)"/>
<path d="M0 0 C4.52286109 3.33581614 8.67998058 6.83273742 12.58984375 10.87109375 C11.21829689 14.05528796 9.72814392 15.84221971 7.02734375 17.99609375 C4.37958709 20.08013009 4.37958709 20.08013009 2.58984375 22.87109375 C-1.69012245 22.39554195 -3.60433964 19.95749202 -6.41015625 16.87109375 C-7.33828125 15.54078125 -7.33828125 15.54078125 -8.28515625 14.18359375 C-11.88558015 10.26548539 -15.50425263 9.98154686 -20.578125 9.6875 C-27.49246175 9.55468223 -32.06083356 10.15921771 -38.22265625 13.30859375 C-41.28153804 16.89185528 -41.05862691 19.71340313 -40.8203125 24.30859375 C-40.55588762 26.98001662 -40.55588762 26.98001662 -38.91015625 29.37109375 C-32.79567503 33.03978248 -26.26299176 34.42054487 -19.34765625 35.68359375 C1.89720469 39.87577936 1.89720469 39.87577936 7.49609375 45.93359375 C8.58984375 47.87109375 8.58984375 47.87109375 8.58984375 49.87109375 C9.24984375 49.87109375 9.90984375 49.87109375 10.58984375 49.87109375 C11.08484375 51.85109375 11.08484375 51.85109375 11.58984375 53.87109375 C12.24984375 53.87109375 12.90984375 53.87109375 13.58984375 53.87109375 C15.18440933 60.05003536 15.18440933 66.69215214 13.58984375 72.87109375 C12.92984375 72.87109375 12.26984375 72.87109375 11.58984375 72.87109375 C11.50734375 73.40734375 11.42484375 73.94359375 11.33984375 74.49609375 C9.61495493 79.95824169 5.79201381 84.11125738 1.58984375 87.87109375 C0.92984375 87.87109375 0.26984375 87.87109375 -0.41015625 87.87109375 C-0.90515625 89.35609375 -0.90515625 89.35609375 -1.41015625 90.87109375 C-5.4848335 92.35991813 -9.0755704 93.13379592 -13.41015625 92.87109375 C-13.41015625 93.53109375 -13.41015625 94.19109375 -13.41015625 94.87109375 C-20.67015625 94.87109375 -27.93015625 94.87109375 -35.41015625 94.87109375 C-35.41015625 94.21109375 -35.41015625 93.55109375 -35.41015625 92.87109375 C-36.27640625 92.76796875 -37.14265625 92.66484375 -38.03515625 92.55859375 C-41.60868186 91.83065335 -44.20273529 90.57716873 -47.41015625 88.87109375 C-48.29703125 88.52046875 -49.18390625 88.16984375 -50.09765625 87.80859375 C-52.41015625 86.87109375 -52.41015625 86.87109375 -55.41015625 84.87109375 C-55.41015625 84.21109375 -55.41015625 83.55109375 -55.41015625 82.87109375 C-55.96703125 82.64421875 -56.52390625 82.41734375 -57.09765625 82.18359375 C-60.04262309 80.51212609 -62.09172169 78.31833023 -64.41015625 75.87109375 C-63.04103821 72.72212225 -61.53494265 70.82324505 -58.91015625 68.62109375 C-57.9975 67.83992188 -57.9975 67.83992188 -57.06640625 67.04296875 C-55.41015625 65.87109375 -55.41015625 65.87109375 -53.41015625 65.87109375 C-53.08015625 64.88109375 -52.75015625 63.89109375 -52.41015625 62.87109375 C-48.9408923 64.02751507 -48.43817174 64.88804019 -46.41015625 67.80859375 C-44.46614029 70.59805415 -43.308383 71.93894258 -40.41015625 73.87109375 C-40.41015625 74.53109375 -40.41015625 75.19109375 -40.41015625 75.87109375 C-35.95515625 76.86109375 -35.95515625 76.86109375 -31.41015625 77.87109375 C-31.41015625 78.53109375 -31.41015625 79.19109375 -31.41015625 79.87109375 C-28.36645582 79.81082245 -25.32748213 79.72369418 -22.28515625 79.62109375 C-21.42921875 79.60691406 -20.57328125 79.59273438 -19.69140625 79.578125 C-14.16756161 79.36566944 -10.75145132 78.61477383 -6.41015625 74.87109375 C-4.31172595 70.57884995 -3.80782939 66.60366193 -4.41015625 61.87109375 C-9.94308619 54.71083148 -16.52780635 53.57475892 -25.03125 52.39453125 C-36.10246964 50.67945214 -47.05985386 47.72915048 -54.41015625 38.87109375 C-54.41015625 37.88109375 -54.41015625 36.89109375 -54.41015625 35.87109375 C-55.07015625 35.87109375 -55.73015625 35.87109375 -56.41015625 35.87109375 C-59.74562843 29.75606142 -60.37027377 23.78017469 -59.41015625 16.87109375 C-58.01171875 14.31640625 -58.01171875 14.31640625 -56.41015625 11.87109375 C-56.10207031 11.02933594 -55.79398437 10.18757813 -55.4765625 9.3203125 C-53.45688338 4.6817088 -49.51205228 1.68798222 -45.41015625 -1.12890625 C-42.3205914 -2.26888123 -39.70530738 -2.71047436 -36.41015625 -3.12890625 C-36.41015625 -3.78890625 -36.41015625 -4.44890625 -36.41015625 -5.12890625 C-24.0811979 -7.38554595 -10.78312895 -7.14619721 0 0 Z " fill="#181818" transform="translate(389.41015625,110.12890625)"/>
<path d="M0 0 C4.83233842 3.51442794 6.38212891 7.82329017 8.12109375 13.42578125 C8.63538287 15.65997154 8.63538287 15.65997154 9.84765625 16.71875 C9.84765625 22.65875 9.84765625 28.59875 9.84765625 34.71875 C-6.32234375 34.71875 -22.49234375 34.71875 -39.15234375 34.71875 C-38.16234375 40.16375 -38.16234375 40.16375 -37.15234375 45.71875 C-36.49234375 45.71875 -35.83234375 45.71875 -35.15234375 45.71875 C-32.52734375 48.09375 -32.52734375 48.09375 -30.15234375 50.71875 C-30.15234375 51.37875 -30.15234375 52.03875 -30.15234375 52.71875 C-27.9446357 52.80040496 -25.7360395 52.85823488 -23.52734375 52.90625 C-21.68269531 52.95845703 -21.68269531 52.95845703 -19.80078125 53.01171875 C-15.00909301 52.62694721 -11.59286104 51.30828632 -8.33984375 47.71875 C-7.00585581 45.63333558 -7.00585581 45.63333558 -6.15234375 42.71875 C-0.19726976 43.1103535 4.47585449 44.08999595 9.84765625 46.71875 C9.32867392 52.60054975 5.90759557 55.87125378 1.7265625 59.62109375 C-2.41803359 63.03881295 -5.56372219 65.57545201 -11.15234375 65.71875 C-11.15234375 66.37875 -11.15234375 67.03875 -11.15234375 67.71875 C-14.15290459 67.80041849 -17.15119765 67.85956551 -20.15234375 67.90625 C-20.99152344 67.93138672 -21.83070313 67.95652344 -22.6953125 67.98242188 C-31.82170482 68.08854272 -37.73179831 65.70169988 -44.38671875 59.4921875 C-50.15234375 53.70105088 -50.15234375 53.70105088 -50.15234375 49.71875 C-50.81234375 49.71875 -51.47234375 49.71875 -52.15234375 49.71875 C-55.92154389 42.67198452 -56.37820234 36.7559615 -56.46484375 28.90625 C-56.49384766 28.04193359 -56.52285156 27.17761719 -56.55273438 26.28710938 C-56.65215378 16.15397733 -51.82036592 9.07608247 -45.15234375 1.71875 C-32.06641113 -10.21254151 -14.3230574 -8.52624832 0 0 Z " fill="#171717" transform="translate(751.15234375,137.28125)"/>
<path d="M0 0 C0.74258057 0.00878174 1.48516113 0.01756348 2.25024414 0.02661133 C8.34890041 0.25174957 13.98939842 1.39897453 18.6875 5.5625 C19.01878906 6.40425781 19.35007812 7.24601562 19.69140625 8.11328125 C20.43378423 10.72146369 20.43378423 10.72146369 22.734375 11.5546875 C24.6875 12.5625 24.6875 12.5625 25.515625 14.9453125 C25.65484375 15.85023438 25.7940625 16.75515625 25.9375 17.6875 C26.08703125 18.59757812 26.2365625 19.50765625 26.390625 20.4453125 C26.48859375 21.14398438 26.5865625 21.84265625 26.6875 22.5625 C27.3475 22.5625 28.0075 22.5625 28.6875 22.5625 C30.45565922 31.95058347 32.19285249 47.30447126 26.6875 55.5625 C26.0275 55.5625 25.3675 55.5625 24.6875 55.5625 C24.605 56.160625 24.5225 56.75875 24.4375 57.375 C23.47810637 60.17323143 22.04700479 60.86660593 19.6875 62.5625 C19.3575 63.5525 19.0275 64.5425 18.6875 65.5625 C10.80153121 71.08267815 1.95423287 70.48238739 -7.29296875 69.125 C-12.70248659 67.8155857 -15.85784172 65.69297584 -19.3515625 61.37890625 C-20.3125 59.5625 -20.3125 59.5625 -20.3125 55.5625 C-20.9725 55.5625 -21.6325 55.5625 -22.3125 55.5625 C-28.42629365 45.32545017 -28.30707671 32.76324282 -25.78515625 21.40625 C-25.62917969 20.7978125 -25.47320312 20.189375 -25.3125 19.5625 C-24.6525 19.5625 -23.9925 19.5625 -23.3125 19.5625 C-23.1578125 18.4796875 -23.1578125 18.4796875 -23 17.375 C-22.24456053 14.28456579 -21.15718685 12.14506159 -19.3125 9.5625 C-18.6525 9.5625 -17.9925 9.5625 -17.3125 9.5625 C-17.0340625 8.44875 -17.0340625 8.44875 -16.75 7.3125 C-13.33998365 0.78899046 -6.70791243 -0.13732973 0 0 Z " fill="#FAFAFA" transform="translate(453.3125,119.4375)"/>
<path d="M0 0 C5.61 0 11.22 0 17 0 C17 10.56 17 21.12 17 32 C19.31 30.02 21.62 28.04 24 26 C30.907966 23.69734467 40.35339419 23.86831588 47.125 26.625 C53.2251658 29.88147949 56.12215945 34.81264281 59 41 C59.33 41.33 59.66 41.66 60 42 C60.0935919 43.71865409 60.11744611 45.44115744 60.11352539 47.16235352 C60.11344986 48.26341934 60.11337433 49.36448517 60.11329651 50.49891663 C60.10813522 51.6968132 60.10297394 52.89470978 60.09765625 54.12890625 C60.0962413 55.34827377 60.09482635 56.5676413 60.09336853 57.82395935 C60.08774967 61.7368307 60.07519396 65.64964581 60.0625 69.5625 C60.05748743 72.20768147 60.0529241 74.85286383 60.04882812 77.49804688 C60.03777411 83.99871974 60.02049683 90.49935032 60 97 C54.72 97 49.44 97 44 97 C43.97494385 95.50629883 43.9498877 94.01259766 43.92407227 92.47363281 C43.8299408 86.9348077 43.72973391 81.39610632 43.62768555 75.85742188 C43.58435845 73.45966485 43.54268178 71.0618774 43.50268555 68.6640625 C43.44492937 65.21865674 43.38124994 61.77340375 43.31640625 58.328125 C43.29969376 57.25508118 43.28298126 56.18203735 43.26576233 55.07647705 C43.2358445 53.57537384 43.2358445 53.57537384 43.20532227 52.04394531 C43.18200584 50.72490204 43.18200584 50.72490204 43.15821838 49.37921143 C43.00867313 47.13042229 42.62461828 45.16009502 42 43 C41.38125 42.855625 40.7625 42.71125 40.125 42.5625 C38 42 38 42 36 41 C30.99260181 40.50812997 26.52295708 40.20679319 22 42.5625 C16.88905994 48.7914582 16.54060448 54.7631787 16.48828125 62.52734375 C16.47033005 63.51626114 16.45237885 64.50517853 16.43388367 65.52406311 C16.37999195 68.66183291 16.34595261 71.79945242 16.3125 74.9375 C16.2793083 77.07358852 16.24481693 79.20965727 16.20898438 81.34570312 C16.1242775 86.5636933 16.05736551 91.78164052 16 97 C10.72 97 5.44 97 0 97 C0 64.99 0 32.98 0 0 Z " fill="#111111" transform="translate(838,106)"/>
<path d="M0 0 C0.886875 0.28875 1.77375 0.5775 2.6875 0.875 C7.1039697 3.02355283 10.15520592 6.47186907 12 11 C9.23009005 15.22775729 6.14366067 17.14253573 1.5 19 C-1 19 -1 19 -3.5 16.6875 C-4.325 15.800625 -5.15 14.91375 -6 14 C-10.06029605 11.88376796 -13.58708379 11.73073072 -18.125 11.75 C-19.95417969 11.74226562 -19.95417969 11.74226562 -21.8203125 11.734375 C-25.15636008 11.75503973 -25.15636008 11.75503973 -28 14 C-28.57748803 15.96361864 -28.57748803 15.96361864 -28.6875 18.125 C-28.790625 19.40375 -28.89375 20.6825 -29 22 C-28.30261719 22.13535156 -27.60523438 22.27070313 -26.88671875 22.41015625 C-22.68074487 23.26956363 -18.51067256 24.27040926 -14.3359375 25.26953125 C-11.13053625 26.02596238 -11.13053625 26.02596238 -8.3515625 26.32421875 C-0.50212191 27.30222348 5.39915421 31.58525827 11 37 C13.56317297 41.86014104 13.76798589 46.6240988 13 52 C10.41583252 59.19875227 5.57008279 64.42222864 -1.04296875 68.15234375 C-3.46148951 69.19988667 -5.39223788 69.14487567 -8 69 C-8 69.66 -8 70.32 -8 71 C-14.6 71 -21.2 71 -28 71 C-28 70.34 -28 69.68 -28 69 C-28.60328125 68.87882812 -29.2065625 68.75765625 -29.828125 68.6328125 C-30.62734375 68.46523437 -31.4265625 68.29765625 -32.25 68.125 C-33.03890625 67.96257812 -33.8278125 67.80015625 -34.640625 67.6328125 C-41.20581758 65.87194959 -45.16286237 61.45277452 -49 56 C-45.91934573 52.74330835 -43.10193497 49.89320076 -39 48 C-35.14562597 48.12044919 -32.84923101 50.60064757 -30 53 C-29.34 53.33 -28.68 53.66 -28 54 C-28 54.66 -28 55.32 -28 56 C-17.36598674 58.06936349 -17.36598674 58.06936349 -7.4375 55.0625 C-5.67556639 53.57818193 -5.67556639 53.57818193 -4 52 C-3.92851801 50.64756083 -3.91600546 49.29165633 -3.9375 47.9375 C-3.958125 46.638125 -3.97875 45.33875 -4 44 C-8.16368564 42.61210479 -11.86297052 41.88306056 -16.25 41.625 C-22.30478378 41.15860675 -27.43636938 39.35145473 -33 37 C-34.155 36.525625 -35.31 36.05125 -36.5 35.5625 C-39.4246404 33.73459975 -40.56465951 32.10990439 -42 29 C-42 28.34 -42 27.68 -42 27 C-42.66 27 -43.32 27 -44 27 C-46.19879071 20.12877903 -45.01637145 13.40513444 -42 7 C-40.51953125 5.234375 -40.51953125 5.234375 -39 4 C-38.34 4 -37.68 4 -37 4 C-36.67 3.01 -36.34 2.02 -36 1 C-25.93537865 -5.166643 -10.369456 -5.184728 0 0 Z " fill="#191919" transform="translate(814,134)"/>
<path d="M0 0 C5.28 0 10.56 0 16 0 C16 27.06 16 54.12 16 82 C31.18 82 46.36 82 62 82 C62 86.62 62 91.24 62 96 C41.54 96 21.08 96 0 96 C0 64.32 0 32.64 0 0 Z " fill="#0D0D0D" transform="translate(513,107)"/>
<path d="M0 0 C3.43521912 2.49708699 5.90097038 5.71019561 7.9453125 9.4140625 C7.9453125 10.0740625 7.9453125 10.7340625 7.9453125 11.4140625 C8.6053125 11.4140625 9.2653125 11.4140625 9.9453125 11.4140625 C11.87693142 17.87939856 12.34989772 25.7471301 9.921875 32.0859375 C6.32709868 37.84552386 0.56156732 43.80636479 -5.97265625 46.08203125 C-16.08280009 47.69434312 -23.55250173 46.04316375 -31.9921875 40.4765625 C-34.2906186 38.1781314 -35.0791815 36.49065835 -36.0546875 33.4140625 C-36.395 32.65738281 -36.7353125 31.90070313 -37.0859375 31.12109375 C-39.15486275 25.33978246 -39.1035257 18.09839371 -36.6796875 12.4140625 C-36.1434375 11.4240625 -35.6071875 10.4340625 -35.0546875 9.4140625 C-34.75820312 8.75664062 -34.46171875 8.09921875 -34.15625 7.421875 C-32.94735452 5.21842722 -31.70450013 3.92358598 -29.8046875 2.2890625 C-29.24265625 1.79148438 -28.680625 1.29390625 -28.1015625 0.78125 C-20.13439087 -4.5403341 -8.36732655 -4.29172838 0 0 Z " fill="#1731EB" transform="translate(106.0546875,127.5859375)"/>
<path d="M0 0 C0.76570313 0.24556641 0.76570313 0.24556641 1.546875 0.49609375 C4.81291828 1.16698481 7.9186747 1.0933456 11.25 1.0625 C12.51328125 1.05347656 13.7765625 1.04445312 15.078125 1.03515625 C16.52445313 1.01775391 16.52445313 1.01775391 18 1 C17.9685791 1.68924561 17.9371582 2.37849121 17.90478516 3.08862305 C16.69640267 23.29204987 16.69640267 23.29204987 25.55859375 40.80859375 C35.6486427 50.05998928 52.04207118 48.25712572 64.6875 48.125 C66.37173945 48.11494678 68.05598473 48.10582508 69.74023438 48.09765625 C73.82696937 48.07583596 77.91341875 48.04143636 82 48 C82.33 47.01 82.66 46.02 83 45 C83.66 45 84.32 45 85 45 C86.06860995 46.16629452 87.0802998 47.38505932 88.0625 48.625 C94.41476632 56.05570491 102.5971931 61.18785598 112.45458984 62.26928711 C114.97672717 62.36476625 117.47667807 62.36102542 120 62.3125 C121.25683594 62.31733398 121.25683594 62.31733398 122.5390625 62.32226562 C128.2867221 62.27333044 133.42902861 61.40959054 139 60 C138.67 60.99 138.34 61.98 138 63 C136.02 63 134.04 63 132 63 C132 63.66 132 64.32 132 65 C119.60390356 64.93874537 107.20801691 64.86160738 94.81214809 64.76428509 C89.05601341 64.71958969 83.29994936 64.68033152 77.54370117 64.65356445 C71.98685841 64.6275235 66.43028762 64.58711497 60.87361336 64.53681374 C58.75541636 64.52015048 56.63717232 64.50863284 54.51891899 64.50238609 C51.54804969 64.49273934 48.57787535 64.46467243 45.60717773 64.43237305 C44.29842178 64.43452568 44.29842178 64.43452568 42.96322632 64.4367218 C35.7680948 64.32635275 30.68789348 62.24646788 24.5625 58.4375 C23.54349609 57.81681641 23.54349609 57.81681641 22.50390625 57.18359375 C22.00761719 56.79300781 21.51132813 56.40242188 21 56 C21 55.34 21 54.68 21 54 C19.515 53.505 19.515 53.505 18 53 C13.68322927 48.98370055 10.33907395 44.4811219 7.97387695 39.08764648 C6.92164657 36.72971795 6.92164657 36.72971795 4.93359375 33.625 C1.9785828 27.74362117 2.32493552 21.45126708 2.25 15 C2.22035156 13.74832031 2.19070312 12.49664062 2.16015625 11.20703125 C2.08987212 8.13795759 2.03696808 5.06962548 2 2 C1.34 2 0.68 2 0 2 C0 1.34 0 0.68 0 0 Z " fill="#CED4F8" transform="translate(82,172)"/>
<path d="M0 0 C7.88294795 3.00808339 7.88294795 3.00808339 9.35546875 5.953125 C10.99910009 6.67471924 12.66597261 7.34663921 14.35546875 7.953125 C14.02546875 8.943125 13.69546875 9.933125 13.35546875 10.953125 C-0.17453125 10.953125 -13.70453125 10.953125 -27.64453125 10.953125 C-27.64453125 11.613125 -27.64453125 12.273125 -27.64453125 12.953125 C-29.29453125 13.283125 -30.94453125 13.613125 -32.64453125 13.953125 C-32.78761719 14.85804687 -32.78761719 14.85804687 -32.93359375 15.78125 C-33.80284519 18.4367654 -34.77651697 19.0942118 -37.01953125 20.703125 C-42.63464626 25.28266552 -43.63723477 30.68556 -44.45703125 37.68798828 C-44.79532413 41.77481293 -44.74794598 45.8553577 -44.70703125 49.953125 C-44.70251953 50.82324219 -44.69800781 51.69335938 -44.69335938 52.58984375 C-44.68170485 54.71096793 -44.66377482 56.8320561 -44.64453125 58.953125 C-50.25453125 58.953125 -55.86453125 58.953125 -61.64453125 58.953125 C-61.69884488 55.45291308 -61.73835692 51.95355742 -61.76953125 48.453125 C-61.78628906 47.47085938 -61.80304688 46.48859375 -61.8203125 45.4765625 C-61.87134732 37.82133906 -60.97949173 31.34617277 -57.70703125 24.328125 C-57.36285156 23.58433594 -57.01867187 22.84054688 -56.6640625 22.07421875 C-55.35510735 19.35099022 -54.02329676 16.64171775 -52.64453125 13.953125 C-51.98453125 13.953125 -51.32453125 13.953125 -50.64453125 13.953125 C-50.55228271 13.34557373 -50.46003418 12.73802246 -50.36499023 12.11206055 C-49.46101276 9.40319143 -48.53669288 8.86269616 -46.1171875 7.41015625 C-45.40755859 6.97638672 -44.69792969 6.54261719 -43.96679688 6.09570312 C-43.22107422 5.65677734 -42.47535156 5.21785156 -41.70703125 4.765625 C-40.96517578 4.31509766 -40.22332031 3.86457031 -39.45898438 3.40039062 C-28.45357159 -3.25474113 -12.43894208 -3.43499763 0 0 Z " fill="#8697F1" transform="translate(145.64453125,67.046875)"/>
<path d="M0 0 C1.06658844 -0.00267883 2.13317688 -0.00535767 3.23208618 -0.00811768 C6.26413468 -0.01391235 9.29607615 -0.01228194 12.328125 -0.0078125 C13.2388829 -0.00978638 14.14964081 -0.01176025 15.08799744 -0.01379395 C16.34236351 -0.00914124 16.34236351 -0.00914124 17.62207031 -0.00439453 C18.35049133 -0.00359894 19.07891235 -0.00280334 19.82940674 -0.00198364 C21.75 0.125 21.75 0.125 24.75 1.125 C24.75 1.785 24.75 2.445 24.75 3.125 C9.24 2.795 -6.27 2.465 -22.25 2.125 C-20.27 5.425 -18.29 8.725 -16.25 12.125 C-14.3874139 16.78146525 -13.96044445 19.29925902 -13.8359375 24.17578125 C-13.81657135 24.83458786 -13.7972052 25.49339447 -13.7772522 26.17216492 C-13.71784059 28.26048143 -13.67122709 30.34885424 -13.625 32.4375 C-13.58678468 33.86004905 -13.54773091 35.28257584 -13.5078125 36.70507812 C-13.41217204 40.17818074 -13.32800027 43.65145132 -13.25 47.125 C-10.28 47.62 -10.28 47.62 -7.25 48.125 C-6.755 50.105 -6.755 50.105 -6.25 52.125 C-6.84425781 51.83625 -7.43851562 51.5475 -8.05078125 51.25 C-14.48700882 48.36721067 -20.20131783 46.99333084 -27.25 48.125 C-29.82110829 49.23546075 -31.89893766 50.57429931 -34.25 52.125 C-35.24 51.63 -35.24 51.63 -36.25 51.125 C-34.4375 49.125 -34.4375 49.125 -32.25 47.125 C-31.26 47.125 -30.27 47.125 -29.25 47.125 C-29.25 38.545 -29.25 29.965 -29.25 21.125 C-30.24 20.795 -31.23 20.465 -32.25 20.125 C-33.2421875 18.453125 -33.2421875 18.453125 -34.125 16.375 C-36.90571318 10.52086698 -40.87398975 6.5858904 -46.75390625 3.8515625 C-55.55540094 1.28962508 -64.86635621 2.87971853 -73.25 6.125 C-70.03053816 2.39720208 -66.7291907 1.26429072 -61.86401367 0.80615234 C-60.56181885 0.77473145 -59.25962402 0.74331055 -57.91796875 0.7109375 C-56.82452904 0.68175232 -56.82452904 0.68175232 -55.70899963 0.65197754 C-53.28528473 0.59097925 -50.86156438 0.54482883 -48.4375 0.5 C-46.73274485 0.46251793 -45.02799229 0.42491776 -43.32324219 0.38720703 C-28.88370299 0.09047353 -14.44222183 0.02097636 0 0 Z " fill="#CED4F7" transform="translate(187.25,77.875)"/>
<path d="M0 0 C0 0.66 0 1.32 0 2 C1.1446875 2.309375 1.1446875 2.309375 2.3125 2.625 C5.88509382 4.4528387 6.59553428 6.30403757 8 10 C8 11.32 8 12.64 8 14 C-3.22 14 -14.44 14 -26 14 C-24.875 7.25 -24.875 7.25 -23 4 C-22.34 4 -21.68 4 -21 4 C-20.773125 3.360625 -20.54625 2.72125 -20.3125 2.0625 C-19 0 -19 0 -17 -0.75 C-11.28541947 -1.22621504 -5.55517476 -1.61651737 0 0 Z " fill="#F4F4F4" transform="translate(738,146)"/>
<path d="M0 0 C8.25 0 16.5 0 25 0 C25 32.67 25 65.34 25 99 C19.06 99 13.12 99 7 99 C7 76.56 7 54.12 7 31 C6.34 31 5.68 31 5 31 C4.80083984 31.90492188 4.80083984 31.90492188 4.59765625 32.828125 C4.42105469 33.62734375 4.24445312 34.4265625 4.0625 35.25 C3.88847656 36.03890625 3.71445312 36.8278125 3.53515625 37.640625 C3.052444 39.76878703 2.53836822 41.88532842 2 44 C1.34 44 0.68 44 0 44 C0.94924471 39.2761116 2.03138759 34.6105686 3.4375 30 C3.66308594 29.2575 3.88867188 28.515 4.12109375 27.75 C5 26 5 26 8 25 C8 49.09 8 73.18 8 98 C12.95 98 17.9 98 23 98 C23 66.32 23 34.64 23 2 C15.41 2 7.82 2 0 2 C0 1.34 0 0.68 0 0 Z " fill="#A7A7A7" transform="translate(660,105)"/>
<path d="M0 0 C1.27235756 -0.00525696 1.27235756 -0.00525696 2.57041931 -0.01062012 C5.35033561 -0.0193611 8.12999361 -0.01361594 10.90991211 -0.00683594 C12.85469104 -0.00818466 14.79946965 -0.01012691 16.74424744 -0.01263428 C20.80999986 -0.01557509 24.87566411 -0.01132101 28.94140625 -0.00195312 C34.1420114 0.00944836 39.34241024 0.00287087 44.54300785 -0.00909805 C48.55538985 -0.01633832 52.56772324 -0.01401889 56.58010674 -0.00884247 C58.49738019 -0.00751236 60.41465812 -0.0091312 62.33192635 -0.01380157 C65.0143713 -0.01890332 67.69648578 -0.01110581 70.37890625 0 C71.16403595 -0.00404846 71.94916565 -0.00809692 72.75808716 -0.01226807 C77.57565367 0.02452154 81.54892721 0.7344979 86.12475586 2.25878906 C81.99280602 3.4124798 78.01234129 3.38421405 73.7512207 3.35644531 C72.90838531 3.35498505 72.06554993 3.35352478 71.19717407 3.35202026 C69.36819243 3.34821759 67.53921447 3.34210451 65.71024704 3.33395386 C62.80874649 3.32117034 59.90729179 3.31466869 57.00576782 3.30981445 C49.79438928 3.2964523 42.58305398 3.27233366 35.3717041 3.24841309 C29.28440211 3.22861116 23.19711678 3.21299511 17.1097908 3.20285034 C14.26386778 3.19640941 11.41801371 3.18389756 8.57211304 3.17114258 C-5.77489866 2.9663839 -5.77489866 2.9663839 -19.87524414 5.25878906 C-15.64089517 -0.56344077 -6.50928454 -0.03365139 0 0 Z " fill="#DDE0F8" transform="translate(129.875244140625,62.7412109375)"/>
<path d="M0 0 C5.61 0 11.22 0 17 0 C17.33 11.22 17.66 22.44 18 34 C17.01 34 16.02 34 15 34 C15 23.11 15 12.22 15 1 C10.38 1 5.76 1 1 1 C1 32.68 1 64.36 1 97 C0.67 97 0.34 97 0 97 C0 64.99 0 32.98 0 0 Z " fill="#5D5D5D" transform="translate(838,106)"/>
<path d="M0 0 C1.98 0.33 3.96 0.66 6 1 C6 11.56 6 22.12 6 33 C5.01 33 4.02 33 3 33 C3.20625 34.010625 3.4125 35.02125 3.625 36.0625 C3 40 3 40 0.87890625 42.0234375 C-6.11875 47 -6.11875 47 -10 47 C-10.309375 47.639375 -10.61875 48.27875 -10.9375 48.9375 C-12 51 -12 51 -13 52 C-22.76669747 52.62468422 -31.6073588 51.98856765 -41 49 C-41.33 47.68 -41.66 46.36 -42 45 C-40.02 45.66 -38.04 46.32 -36 47 C-36 47.66 -36 48.32 -36 49 C-32.93726169 49.05410136 -29.87548548 49.09372225 -26.8125 49.125 C-25.94818359 49.14175781 -25.08386719 49.15851563 -24.19335938 49.17578125 C-17.40598697 49.22779177 -13.21973083 48.19425619 -7.8125 43.9375 C-4.1559322 41.0779661 -4.1559322 41.0779661 -2 40 C-1.30959426 38.34302621 -0.6469365 36.6744239 0 35 C0.515625 34.175 1.03125 33.35 1.5625 32.5 C3.93965791 28.36581234 4.13263814 24.17968198 4.31640625 19.48046875 C4.37924805 17.9480957 4.37924805 17.9480957 4.44335938 16.38476562 C4.48267578 15.32966797 4.52199219 14.27457031 4.5625 13.1875 C4.62727539 11.57584961 4.62727539 11.57584961 4.69335938 9.93164062 C4.79910983 7.28787918 4.90120233 4.6440289 5 2 C2.525 1.505 2.525 1.505 0 1 C0 0.67 0 0.34 0 0 Z " fill="#374DE0" transform="translate(227,171)"/>
<path d="M0 0 C2.88551669 0.44392564 4.26963094 1.19898924 6.66906738 2.9697876 C10.36943869 5.22517388 13.44847351 5.8601772 17.66992188 6.23339844 C18.40774651 6.30859585 19.14557114 6.38379326 19.90575409 6.46126938 C28.68582358 7.27776122 37.47100093 7.28947744 46.28125 7.265625 C48.07385307 7.26697715 49.86645578 7.26892222 51.65905762 7.27142334 C55.38016316 7.27434269 59.10117153 7.27017713 62.82226562 7.26074219 C67.57065704 7.24928253 72.31882389 7.25596834 77.06720734 7.26788712 C80.75453364 7.27513581 84.44180718 7.27280513 88.12913513 7.26763153 C89.88008146 7.2663068 91.63103272 7.26790101 93.38197327 7.27259064 C105.822358 7.3367392 105.822358 7.3367392 118 5 C117.67 5.99 117.34 6.98 117 8 C115.02 8 113.04 8 111 8 C111 8.66 111 9.32 111 10 C98.60390356 9.93874537 86.20801691 9.86160738 73.81214809 9.76428509 C68.05601341 9.71958969 62.29994936 9.68033152 56.54370117 9.65356445 C50.98685841 9.6275235 45.43028762 9.58711497 39.87361336 9.53681374 C37.75541636 9.52015048 35.63717232 9.50863284 33.51891899 9.50238609 C30.54804969 9.49273934 27.57787535 9.46467243 24.60717773 9.43237305 C23.29842178 9.43452568 23.29842178 9.43452568 21.96322632 9.4367218 C14.74764084 9.326039 9.67193615 7.25740972 3.5625 3.375 C2.88316406 2.94960937 2.20382813 2.52421875 1.50390625 2.0859375 C1.00761719 1.72757813 0.51132813 1.36921875 0 1 C0 0.67 0 0.34 0 0 Z " fill="#E2E8F8" transform="translate(103,227)"/>
<path d="M0 0 C2.475 0.495 2.475 0.495 5 1 C5.33 11.56 5.66 22.12 6 33 C6.66 33 7.32 33 8 33 C8.25394531 33.68707031 8.50789062 34.37414062 8.76953125 35.08203125 C9.11371094 35.98308594 9.45789063 36.88414062 9.8125 37.8125 C10.14894531 38.70582031 10.48539063 39.59914062 10.83203125 40.51953125 C11.97183648 42.94018785 13.12029647 44.16401051 15 46 C14.6875 48.1875 14.6875 48.1875 14 50 C12.5 48.625 12.5 48.625 11 47 C11 46.34 11 45.68 11 45 C10.34 45 9.68 45 9 45 C6 38.375 6 38.375 6 35 C5.34 35 4.68 35 4 35 C1.89511764 28.02917502 1.60919901 21.37823613 1.4375 14.125 C1.37775292 11.87749271 1.31415243 9.63008346 1.24609375 7.3828125 C1.22216553 6.39684082 1.1982373 5.41086914 1.17358398 4.39501953 C1.15204252 1.98626191 1.15204252 1.98626191 0 0 Z " fill="#3F56E1" transform="translate(156,172)"/>
<path d="M0 0 C1.98 0 3.96 0 6 0 C5.67 0.66 5.34 1.32 5 2 C4.34 2 3.68 2 3 2 C3 2.66 3 3.32 3 4 C0.35261084 5.4606285 -0.89448334 6 -4 6 C-3.97643433 7.25490234 -3.97643433 7.25490234 -3.95239258 8.53515625 C-3.90090995 11.6736416 -3.86347892 14.81190988 -3.83520508 17.95068359 C-3.81290592 19.96336248 -3.77476347 21.97584584 -3.73632812 23.98828125 C-3.63861487 36.95157335 -7.3634327 44.75092284 -15 55 C-15.33 55 -15.66 55 -16 55 C-16.1875 52.625 -16.1875 52.625 -16 50 C-15.01 49.34 -14.02 48.68 -13 48 C-12.27617533 45.94074861 -12.27617533 45.94074861 -12 44 C-11.34 44 -10.68 44 -10 44 C-9.505 41.03 -9.505 41.03 -9 38 C-8.01 38 -7.02 38 -6 38 C-6.01571045 37.04633545 -6.0314209 36.0926709 -6.04760742 35.11010742 C-6.10191678 31.57113087 -6.13635333 28.03219114 -6.16479492 24.49291992 C-6.17987936 22.96128139 -6.20034978 21.42968602 -6.22631836 19.89819336 C-6.26271847 17.69634346 -6.27972913 15.49506467 -6.29296875 13.29296875 C-6.30845261 12.60849167 -6.32393646 11.92401459 -6.33988953 11.21879578 C-6.3409015 8.35857488 -6.30353337 6.44608436 -4.66918945 4.04418945 C-3 3 -3 3 0 3 C0 2.01 0 1.02 0 0 Z " fill="#2840D9" transform="translate(250,167)"/>
<path d="M0 0 C0 24.09 0 48.18 0 73 C4.95 73 9.9 73 15 73 C15 73.33 15 73.66 15 74 C9.72 74 4.44 74 -1 74 C-1 51.56 -1 29.12 -1 6 C-1.66 6 -2.32 6 -3 6 C-3.13277344 6.60328125 -3.26554688 7.2065625 -3.40234375 7.828125 C-3.66724609 9.02695313 -3.66724609 9.02695313 -3.9375 10.25 C-4.11152344 11.03890625 -4.28554688 11.8278125 -4.46484375 12.640625 C-4.947556 14.76878703 -5.46163178 16.88532842 -6 19 C-6.66 19 -7.32 19 -8 19 C-5.51504729 6.63370593 -5.51504729 6.63370593 -3 1 C-1 0 -1 0 0 0 Z " fill="#818181" transform="translate(668,130)"/>
<path d="M0 0 C1.875 0.5625 1.875 0.5625 4 2 C7.15006988 8.93015373 7.45857095 18.7925838 4.984375 25.9296875 C4.65953125 26.61289063 4.3346875 27.29609375 4 28 C3.34 28 2.68 28 2 28 C1.77489746 28.76368896 1.54979492 29.52737793 1.31787109 30.31420898 C-0.31998198 33.65211592 -1.83408272 34.27156504 -5.0859375 35.97265625 C-8.36445911 38.14870271 -9.76967242 39.1558783 -10.81738281 42.99560547 C-10.98372333 46.52294293 -10.87479069 49.9154513 -10.625 53.4375 C-10.57988281 54.64599609 -10.53476563 55.85449219 -10.48828125 57.09960938 C-10.37081353 60.07154273 -10.20689163 63.03317407 -10 66 C-13.10707593 61.33938611 -12.36858465 56.54441488 -12.375 51.0625 C-12.39949219 49.96486328 -12.42398438 48.86722656 -12.44921875 47.73632812 C-12.45308594 46.67994141 -12.45695313 45.62355469 -12.4609375 44.53515625 C-12.46915527 43.569729 -12.47737305 42.60430176 -12.48583984 41.60961914 C-11.86375257 38.26816645 -10.61148581 37.10337822 -8 35 C-5.75 34.25 -5.75 34.25 -4 34 C-4 33.34 -4 32.68 -4 32 C-3.01 32 -2.02 32 -1 32 C-0.67 30.35 -0.34 28.7 0 27 C0.99 27 1.98 27 3 27 C4.83360149 19.66559405 4.24521346 13.10984263 2 6 C1.34 5.67 0.68 5.34 0 5 C0 3.35 0 1.7 0 0 Z " fill="#4255D9" transform="translate(184,134)"/>
<path d="M0 0 C0.88467285 3.0134169 1.07982034 5.61705153 1 8.75 C0.94633048 13.27165665 1.33775437 17.52984201 2 22 C2.66 22 3.32 22 4 22 C4.33 23.98 4.66 25.96 5 28 C6.98 28.66 8.96 29.32 11 30 C11 30.66 11 31.32 11 32 C16.61 32.99 22.22 33.98 28 35 C28 35.33 28 35.66 28 36 C18.37382348 36.58636608 12.08974625 35.35706668 4.0625 30.0625 C1.7640689 27.7640689 0.975506 26.07659585 0 23 C-0.34160156 22.24460938 -0.68320313 21.48921875 -1.03515625 20.7109375 C-3.33862784 14.23883514 -2.77334787 6.24003271 0 0 Z " fill="#3B50D8" transform="translate(70,138)"/>
<path d="M0 0 C16.17 0 32.34 0 49 0 C49 0.66 49 1.32 49 2 C33.49 1.67 17.98 1.34 2 1 C3.98 4.3 5.96 7.6 8 11 C9.74485059 15.36212648 10.2446709 17.10195471 10.1953125 21.51953125 C10.18564453 23.0519043 10.18564453 23.0519043 10.17578125 24.61523438 C10.15902344 25.67033203 10.14226562 26.72542969 10.125 27.8125 C10.11597656 28.88693359 10.10695312 29.96136719 10.09765625 31.06835938 C10.07415306 33.71246854 10.04129575 36.35611872 10 39 C9.67 39 9.34 39 9 39 C8.96261719 37.68386719 8.92523438 36.36773437 8.88671875 35.01171875 C8.55926161 25.67963394 8.23531177 16.87167254 5 8 C4.34 8 3.68 8 3 8 C3 7.34 3 6.68 3 6 C2.01 6 1.02 6 0 6 C0 4.02 0 2.04 0 0 Z " fill="#DDE3F8" transform="translate(163,79)"/>
<path d="M0 0 C0.66 0 1.32 0 2 0 C2 0.99 2 1.98 2 3 C2.66 3 3.32 3 4 3 C4.53341184 4.57914015 5.05125763 6.16354387 5.5625 7.75 C5.85253906 8.63171875 6.14257812 9.5134375 6.44140625 10.421875 C7.01697435 13.07834316 6.89248371 14.47031106 6 17 C5.49663233 15.37604003 4.99741024 13.75079459 4.5 12.125 C4.2215625 11.22007812 3.943125 10.31515625 3.65625 9.3828125 C3 7 3 7 3 5 C2.34 5 1.68 5 1 5 C1 26.45 1 47.9 1 70 C0.67 70 0.34 70 0 70 C0 46.9 0 23.8 0 0 Z " fill="#B1B1B1" transform="translate(602,133)"/>
<path d="M0 0 C4 6 4 6 4 10 C-7.22 10 -18.44 10 -30 10 C-29.67 9.01 -29.34 8.02 -29 7 C-19.43 7.33 -9.86 7.66 0 8 C0 5.36 0 2.72 0 0 Z " fill="#A0A0A0" transform="translate(742,150)"/>
<path d="M0 0 C0.625 1.8125 0.625 1.8125 1 4 C0.01 5.485 0.01 5.485 -1 7 C-2.99817326 18.70627917 -2.51431323 31.26407243 -1 43 C-4 41 -4 41 -4.67578125 37.9609375 C-5.04080644 33.50147317 -5.18392775 29.09746302 -5.1875 24.625 C-5.19974609 23.82578125 -5.21199219 23.0265625 -5.22460938 22.203125 C-5.24415513 14.15027251 -3.99360121 7.07956579 0 0 Z " fill="#9C9C9C" transform="translate(413,130)"/>
<path d="M0 0 C0.66 0.99 1.32 1.98 2 3 C-0.475 2.505 -0.475 2.505 -3 2 C-3 1.34 -3 0.68 -3 0 C-5.70860665 -0.05429278 -8.41610901 -0.09381211 -11.125 -0.125 C-12.26582031 -0.15013672 -12.26582031 -0.15013672 -13.4296875 -0.17578125 C-19.43426556 -0.22754485 -23.89967524 0.5997835 -29 4 C-29.54422533 6.09412496 -29.54422533 6.09412496 -29.625 8.4375 C-29.82026381 11.25952696 -30.09380431 13.28141293 -31 16 C-32.71570437 14.28429563 -32.37338644 12.15801623 -32.5 9.8125 C-32.48303194 6.55039002 -32.46618942 4.66470415 -30.578125 1.97265625 C-22.24456777 -5.31030295 -9.54360586 -4.86183695 0 0 Z " fill="#A6A6A6" transform="translate(380,122)"/>
<path d="M0 0 C0 0.66 0 1.32 0 2 C-0.99 2.33 -1.98 2.66 -3 3 C-4.56147093 19.80669312 -4.56147093 19.80669312 -0.45703125 34.74609375 C0.02378906 35.15988281 0.50460938 35.57367188 1 36 C0.67 36.99 0.34 37.98 0 39 C-0.103125 38.360625 -0.20625 37.72125 -0.3125 37.0625 C-0.6528125 36.0415625 -0.6528125 36.0415625 -1 35 C-1.99 34.67 -2.98 34.34 -4 34 C-6.68282925 27.76685076 -6.36606699 20.28009439 -6.375 13.625 C-6.39949219 12.64144531 -6.42398438 11.65789062 -6.44921875 10.64453125 C-6.45308594 9.70222656 -6.45695313 8.75992188 -6.4609375 7.7890625 C-6.46915527 6.94037598 -6.47737305 6.09168945 -6.48583984 5.21728516 C-6 3 -6 3 -4.09619141 1.20068359 C-2 0 -2 0 0 0 Z " fill="#CDD4F8" transform="translate(179,171)"/>
<path d="M0 0 C-0.47050781 0.3403125 -0.94101563 0.680625 -1.42578125 1.03125 C-7.53741502 5.78896076 -9.38942946 10.08392691 -10.56640625 17.6328125 C-11.12731178 22.42388054 -11.1106023 27.18237009 -11.0625 32 C-11.05798828 32.87011719 -11.05347656 33.74023438 -11.04882812 34.63671875 C-11.0371736 36.75784293 -11.01924357 38.8789311 -11 41 C-11.66 41 -12.32 41 -13 41 C-13.09953791 36.85577739 -13.17177901 32.71220425 -13.21972656 28.56713867 C-13.23973246 27.15978866 -13.26694662 25.75252062 -13.30175781 24.34545898 C-13.65402981 9.73135153 -13.65402981 9.73135153 -9 4 C-8.34 3.67 -7.68 3.34 -7 3 C-6.67 2.01 -6.34 1.02 -6 0 C-3 -1 -3 -1 0 0 Z " fill="#A4AEEC" transform="translate(112,85)"/>
<path d="M0 0 C0.66 0 1.32 0 2 0 C2.495 2.97 2.495 2.97 3 6 C-3.33583115 5.93301714 -9.67104438 5.84321763 -16.00634766 5.73754883 C-18.16154636 5.7042946 -20.31683226 5.67626423 -22.47216797 5.65356445 C-25.57036497 5.620028 -28.66776255 5.56771197 -31.765625 5.51171875 C-33.21113739 5.50213387 -33.21113739 5.50213387 -34.68585205 5.49235535 C-35.58648376 5.47256119 -36.48711548 5.45276703 -37.41503906 5.43237305 C-38.20557678 5.42126999 -38.9961145 5.41016693 -39.81060791 5.39872742 C-42.51151594 4.90684381 -43.9407372 3.77026695 -46 2 C-44.69554932 2.16298584 -43.39109863 2.32597168 -42.04711914 2.49389648 C-37.42734944 3.00539979 -32.88994016 3.13000183 -28.24609375 3.09765625 C-27.45977066 3.0962413 -26.67344757 3.09482635 -25.86329651 3.09336853 C-23.38798985 3.08783672 -20.91277863 3.07529775 -18.4375 3.0625 C-16.74414194 3.05747616 -15.05078245 3.05291481 -13.35742188 3.04882812 C-9.2382453 3.03788978 -5.11913875 3.02067362 -1 3 C-0.67 2.01 -0.34 1.02 0 0 Z " fill="#DFE4F8" transform="translate(165,217)"/>
<path d="M0 0 C0.33 0.66 0.66 1.32 1 2 C0.67 2.99 0.34 3.98 0 5 C-0.23137114 8.82948409 -0.18516398 12.66425566 -0.1875 16.5 C-0.19974609 17.55832031 -0.21199219 18.61664063 -0.22460938 19.70703125 C-0.22654297 20.72152344 -0.22847656 21.73601562 -0.23046875 22.78125 C-0.23457764 23.71001953 -0.23868652 24.63878906 -0.24291992 25.59570312 C-0.16300159 28.26276785 -0.16300159 28.26276785 2 31 C2.125 34.1875 2.125 34.1875 2 37 C-3.36133748 30.90757105 -3.34109775 23.64173314 -3.3125 15.9375 C-3.32861328 15.06544922 -3.34472656 14.19339844 -3.36132812 13.29492188 C-3.36527189 8.08521385 -2.83006883 4.54752485 0 0 Z " fill="#737373" transform="translate(698,150)"/>
<path d="M0 0 C1.65322266 0.01740234 1.65322266 0.01740234 3.33984375 0.03515625 C4.44457031 0.04417969 5.54929688 0.05320312 6.6875 0.0625 C7.54214844 0.07410156 8.39679688 0.08570312 9.27734375 0.09765625 C9.60734375 0.75765625 9.93734375 1.41765625 10.27734375 2.09765625 C5.98734375 2.09765625 1.69734375 2.09765625 -2.72265625 2.09765625 C-2.72265625 2.75765625 -2.72265625 3.41765625 -2.72265625 4.09765625 C-3.50511719 4.484375 -4.28757813 4.87109375 -5.09375 5.26953125 C-6.10566406 5.7903125 -7.11757812 6.31109375 -8.16015625 6.84765625 C-9.16949219 7.358125 -10.17882812 7.86859375 -11.21875 8.39453125 C-13.86672941 9.84788361 -13.86672941 9.84788361 -14.5703125 12.30078125 C-14.62058594 12.89375 -14.67085937 13.48671875 -14.72265625 14.09765625 C-15.71265625 14.09765625 -16.70265625 14.09765625 -17.72265625 14.09765625 C-16.23132677 9.3751129 -16.23132677 9.3751129 -13.66015625 7.97265625 C-13.02078125 7.68390625 -12.38140625 7.39515625 -11.72265625 7.09765625 C-11.39265625 6.10765625 -11.06265625 5.11765625 -10.72265625 4.09765625 C-8.42013142 3.02862686 -6.08545365 2.02589808 -3.72265625 1.09765625 C-2.72265625 0.09765625 -2.72265625 0.09765625 0 0 Z " fill="#6174E4" transform="translate(235.72265625,123.90234375)"/>
<path d="M0 0 C7.39818156 3.56208742 11.53259908 6.43476162 15 14 C15.33 14.99 15.66 15.98 16 17 C16.66 17 17.32 17 18 17 C18.53394179 18.4117783 19.05165104 19.82970244 19.5625 21.25 C19.85253906 22.03890625 20.14257812 22.8278125 20.44140625 23.640625 C21.04522837 26.19103452 20.8473932 27.55322229 20 30 C19.566875 28.39125 19.566875 28.39125 19.125 26.75 C18.27055437 23.90184789 17.54601451 21.51227358 16 19 C15.34 18.67 14.68 18.34 14 18 C14 17.01 14 16.02 14 15 C13.01 14.67 12.02 14.34 11 14 C9.7890625 12.0390625 9.7890625 12.0390625 8.625 9.625 C6.60470932 5.76195934 5.02665168 3.90147441 1 2 C0.67 1.34 0.34 0.68 0 0 Z " fill="#C8CFF3" transform="translate(225,70)"/>
<path d="M0 0 C1.30325042 3.92701284 0.26939835 5.86273078 -1.296875 9.62890625 C-2.59258761 13.99833711 -2.22394163 18.48799087 -2 23 C-1.67 23 -1.34 23 -1 23 C-0.34 25.64 0.32 28.28 1 31 C0.01 30.34 -0.98 29.68 -2 29 C-2 27.68 -2 26.36 -2 25 C-2.66 25 -3.32 25 -4 25 C-5.96714795 18.28290945 -6.22424304 10.64744167 -3.0625 4.3125 C-1 1 -1 1 0 0 Z " fill="#5B6DDE" transform="translate(146,134)"/>
<path d="M0 0 C0.495 0.99 0.495 0.99 1 2 C-0.66385742 2.01401855 -0.66385742 2.01401855 -2.36132812 2.02832031 C-6.50658206 2.06842102 -10.6511094 2.13423398 -14.79589844 2.20751953 C-16.5842144 2.23561334 -18.37265186 2.25688514 -20.16113281 2.27099609 C-22.74346602 2.29258751 -25.32435619 2.33931709 -27.90625 2.390625 C-29.09112 2.39246796 -29.09112 2.39246796 -30.29992676 2.39434814 C-35.44088009 2.52770073 -38.93911835 3.61765543 -43.37438965 6.24407959 C-43.91084106 6.49353333 -44.44729248 6.74298706 -45 7 C-45.66 6.67 -46.32 6.34 -47 6 C-46.67 5.01 -46.34 4.02 -46 3 C-44.35 3 -42.7 3 -41 3 C-41 2.34 -41 1.68 -41 1 C-27.47 0.67 -13.94 0.34 0 0 Z " fill="#9CA8F1" transform="translate(159,77)"/>
<path d="M0 0 C2.97 0.495 2.97 0.495 6 1 C6 11.56 6 22.12 6 33 C5.01 33 4.02 33 3 33 C3 33.99 3 34.98 3 36 C1.68 36.66 0.36 37.32 -1 38 C-0.70262939 37.42241943 -0.40525879 36.84483887 -0.09887695 36.24975586 C3.64961978 28.57537296 4.50025805 21.41688539 4.6875 12.9375 C4.72166016 11.88111328 4.75582031 10.82472656 4.79101562 9.73632812 C4.87269295 7.15765843 4.94209943 4.57929438 5 2 C3.35 1.67 1.7 1.34 0 1 C0 0.67 0 0.34 0 0 Z " fill="#5B6CE0" transform="translate(227,171)"/>
<path d="M0 0 C0.66 0 1.32 0 2 0 C3.2639536 3.79186081 3.18414402 7.3625172 3.1875 11.3125 C3.19974609 12.05951172 3.21199219 12.80652344 3.22460938 13.57617188 C3.23656474 18.11522437 2.71951855 21.72499142 1 26 C0.34 26 -0.32 26 -1 26 C-1 26.99 -1 27.98 -1 29 C-1.66 29 -2.32 29 -3 29 C-3.33 30.32 -3.66 31.64 -4 33 C-5.65 33 -7.3 33 -9 33 C-8.57847656 32.51789063 -8.15695313 32.03578125 -7.72265625 31.5390625 C-6.90087891 30.59160156 -6.90087891 30.59160156 -6.0625 29.625 C-5.51722656 28.99851563 -4.97195312 28.37203125 -4.41015625 27.7265625 C-2.93041376 26.04367666 -2.93041376 26.04367666 -2 24 C-1.34 24 -0.68 24 0 24 C0.96638658 19.95038003 1.13396116 16.15797593 1.125 12 C1.12757813 10.80375 1.13015625 9.6075 1.1328125 8.375 C1.01757938 5.44672307 0.67823563 2.84213024 0 0 Z " fill="#B2C1F2" transform="translate(188,138)"/>
<path d="M0 0 C0.763125 0.33 1.52625 0.66 2.3125 1 C2.3125 1.33 2.3125 1.66 2.3125 2 C0.38083984 2.09087891 0.38083984 2.09087891 -1.58984375 2.18359375 C-3.26824159 2.26798247 -4.94662636 2.3526313 -6.625 2.4375 C-7.90020508 2.49647461 -7.90020508 2.49647461 -9.20117188 2.55664062 C-10.01005859 2.59853516 -10.81894531 2.64042969 -11.65234375 2.68359375 C-12.4012085 2.72025146 -13.15007324 2.75690918 -13.92163086 2.79467773 C-15.71211326 2.81771063 -15.71211326 2.81771063 -16.6875 4 C-18.35367115 4.04063832 -20.02138095 4.042721 -21.6875 4 C-14.74433374 -1.66416195 -8.77395767 -2.37937835 0 0 Z " fill="#3A4BE0" transform="translate(174.6875,126)"/>
<path d="M0 0 C-0.33 0.99 -0.66 1.98 -1 3 C-2.98 3 -4.96 3 -7 3 C-7 3.66 -7 4.32 -7 5 C-13.27 5 -19.54 5 -26 5 C-26.33 4.34 -26.66 3.68 -27 3 C-25.78183594 2.95101562 -24.56367188 2.90203125 -23.30859375 2.8515625 C-21.68487563 2.77647727 -20.06117874 2.70093198 -18.4375 2.625 C-17.63763672 2.5940625 -16.83777344 2.563125 -16.01367188 2.53125 C-10.60313653 2.26624419 -5.22028977 0 0 0 Z " fill="#BFC6F4" transform="translate(221,232)"/>
<path d="M0 0 C0.33 0 0.66 0 1 0 C2.76815922 9.38808347 4.50535249 24.74197126 -1 33 C-1.66 33 -2.32 33 -3 33 C-3.33 34.32 -3.66 35.64 -4 37 C-4.33 36.34 -4.66 35.68 -5 35 C-4.13949444 32.56341056 -3.07010295 30.25330513 -2.0078125 27.8984375 C0.23686445 21.44281621 0.13859484 14.75488023 0.0625 8 C0.05798828 7.22527344 0.05347656 6.45054687 0.04882812 5.65234375 C0.03719758 3.76819476 0.01926906 1.88408635 0 0 Z " fill="#888888" transform="translate(481,142)"/>
<path d="M0 0 C0.66 0 1.32 0 2 0 C2 7.26 2 14.52 2 22 C2.66 22 3.32 22 4 22 C3.67 23.32 3.34 24.64 3 26 C-0.43689854 22.56310146 -0.05224562 18.12390528 -0.09765625 13.4765625 C-0.0910822 11.8593459 -0.07926464 10.24214306 -0.0625 8.625 C-0.05798828 7.79355469 -0.05347656 6.96210937 -0.04882812 6.10546875 C-0.03713164 4.07028103 -0.01919935 2.03513077 0 0 Z " fill="#DAE1FA" transform="translate(246,101)"/>
<path d="M0 0 C2 1 2 1 2.61889648 2.77832031 C3.01444158 5.08418858 3.11345788 7.2082331 3.09765625 9.546875 C3.09443359 10.39121094 3.09121094 11.23554688 3.08789062 12.10546875 C3.07951172 12.97816406 3.07113281 13.85085937 3.0625 14.75 C3.05798828 15.63816406 3.05347656 16.52632812 3.04882812 17.44140625 C3.037074 19.62767329 3.02064249 21.81380179 3 24 C2.34 24 1.68 24 1 24 C0.67 16.08 0.34 8.16 0 0 Z " fill="#989898" transform="translate(498,139)"/>
<path d="M0 0 C9.88814631 1.10736816 19.05135775 2.39670731 28 7 C26 8 26 8 23.3828125 7.15625 C21.70832031 6.58390625 21.70832031 6.58390625 20 6 C16.60448264 5.26191903 13.17286145 4.71670714 9.74609375 4.14453125 C6.19486464 3.52021309 3.11042669 2.86947925 0 1 C0 0.67 0 0.34 0 0 Z " fill="#B7B7B7" transform="translate(357,142)"/>
<path d="M0 0 C0.33 0 0.66 0 1 0 C1.59084103 8.49498106 1.49651807 15.13768047 -4 22 C-4.66 22.33 -5.32 22.66 -6 23 C-5.67 21.35 -5.34 19.7 -5 18 C-4.34 18 -3.68 18 -3 18 C-3.04125 17.113125 -3.0825 16.22625 -3.125 15.3125 C-2.99789579 11.94423848 -2.27334963 10.07101968 -1 7 C-0.6186926 4.67402489 -0.27539746 2.34087842 0 0 Z " fill="#3E51D9" transform="translate(263,143)"/>
<path d="M0 0 C11.22 0 22.44 0 34 0 C34 0.33 34 0.66 34 1 C30.37 1 26.74 1 23 1 C23 1.66 23 2.32 23 3 C22.19304687 2.84660156 21.38609375 2.69320312 20.5546875 2.53515625 C16.40952821 1.9111048 12.3077704 1.65372796 8.125 1.4375 C7.34125 1.39431641 6.5575 1.35113281 5.75 1.30664062 C3.83349351 1.20146649 1.91676667 1.10032075 0 1 C0 0.67 0 0.34 0 0 Z " fill="#9AA3E5" transform="translate(124,65)"/>
<path d="M0 0 C1.875 0.5625 1.875 0.5625 4 2 C6.82858669 8.36432006 6.18521723 15.15725242 6 22 C5.67 22 5.34 22 5 22 C4.80664062 20.85660156 4.61328125 19.71320313 4.4140625 18.53515625 C4.15150234 17.04418963 3.88845639 15.55330851 3.625 14.0625 C3.43550781 12.93038086 3.43550781 12.93038086 3.2421875 11.77539062 C2.89452437 9.83716865 2.45356496 7.91620795 2 6 C1.34 5.67 0.68 5.34 0 5 C0 3.35 0 1.7 0 0 Z " fill="#243DD1" transform="translate(184,134)"/>
<path d="M0 0 C-1.5027258 4.20763224 -4.23332995 5.8027758 -8 8 C-8.66 8 -9.32 8 -10 8 C-10 8.66 -10 9.32 -10 10 C-10.66 10 -11.32 10 -12 10 C-11.43351673 6.52556925 -10.35584027 5.01266113 -7.6875 2.75 C-7.09324219 2.22921875 -6.49898438 1.7084375 -5.88671875 1.171875 C-4 0 -4 0 0 0 Z " fill="#4459DC" transform="translate(84,127)"/>
<path d="M0 0 C5.95507399 0.3916035 10.62819824 1.37124595 16 4 C15.625 6.4375 15.625 6.4375 15 9 C14.01 9.495 14.01 9.495 13 10 C13.33 8.35 13.66 6.7 14 5 C12.06544546 4.61008978 10.12718172 4.23854651 8.1875 3.875 C7.10855469 3.66617188 6.02960937 3.45734375 4.91796875 3.2421875 C1.80717481 2.67960103 1.80717481 2.67960103 -1 5 C-0.67 3.35 -0.34 1.7 0 0 Z " fill="#717171" transform="translate(745,180)"/>
<path d="M0 0 C0 2 0 2 -1.57421875 3.62109375 C-5.22735992 6.76103948 -8.72077156 9.72665989 -13 12 C-12.5248459 7.72361306 -10.12116265 5.76648508 -7 3 C-2.55172414 0 -2.55172414 0 0 0 Z " fill="#474747" transform="translate(432,111)"/>
<path d="M0 0 C1.2518241 2.95885695 1.00203521 3.99475129 -0.1875 7.0625 C-2.57789047 10.9365811 -4.32366445 12.58091611 -8.75 13.6875 C-9.4925 13.790625 -10.235 13.89375 -11 14 C-10.2575 13.278125 -9.515 12.55625 -8.75 11.8125 C-5.18886524 8.17043036 -2.08113759 4.68255958 0 0 Z " fill="#C1CDF5" transform="translate(115,158)"/>
<path d="M0 0 C8.95859592 2.18222208 8.95859592 2.18222208 11.5625 6.1875 C12.036875 7.115625 12.51125 8.04375 13 9 C11.35 8.67 9.7 8.34 8 8 C8 7.34 8 6.68 8 6 C7.34 6 6.68 6 6 6 C6 5.34 6 4.68 6 4 C4.35 4 2.7 4 1 4 C0.67 2.68 0.34 1.36 0 0 Z " fill="#4960DF" transform="translate(99,126)"/>
<path d="M0 0 C0.99 0 1.98 0 3 0 C3.26554688 0.55429688 3.53109375 1.10859375 3.8046875 1.6796875 C4.15789062 2.40414062 4.51109375 3.12859375 4.875 3.875 C5.22304687 4.59429687 5.57109375 5.31359375 5.9296875 6.0546875 C6.96557543 8.15135019 6.96557543 8.15135019 9 10 C8.625 12.125 8.625 12.125 8 14 C6.5 12.625 6.5 12.625 5 11 C5 10.34 5 9.68 5 9 C4.34 9 3.68 9 3 9 C2.01 6.03 1.02 3.06 0 0 Z " fill="#2943D6" transform="translate(162,208)"/>
<path d="M0 0 C6.98295186 1.5457408 10.97221053 2.95831579 15 9 C8.8961904 7.728373 4.65820047 5.15003315 0 1 C0 0.67 0 0.34 0 0 Z " fill="#3D53DE" transform="translate(173,224)"/>
<path d="M0 0 C1.98 0.66 3.96 1.32 6 2 C6 2.66 6 3.32 6 4 C11.28 4.33 16.56 4.66 22 5 C22 5.33 22 5.66 22 6 C13.99054432 6.30372936 7.30934715 6.50848663 0 3 C0 2.01 0 1.02 0 0 Z " fill="#3B4ED7" transform="translate(185,216)"/>
<path d="M0 0 C0.78688445 2.77723925 1.11949924 5.22610077 1.09765625 8.109375 C1.09443359 8.86347656 1.09121094 9.61757812 1.08789062 10.39453125 C1.07951172 11.17183594 1.07113281 11.94914063 1.0625 12.75 C1.05798828 13.54277344 1.05347656 14.33554688 1.04882812 15.15234375 C1.03708565 17.10159508 1.01915146 19.05080738 1 21 C-2.24790976 14.50418048 -3.01543302 9.61748013 -1 2.4375 C-0.67 1.633125 -0.34 0.82875 0 0 Z " fill="#3248D9" transform="translate(70,138)"/>
<path d="M0 0 C2.88202733 0.48840463 3.77960828 1.17542027 5.55859375 3.43359375 C4.56859375 3.92859375 4.56859375 3.92859375 3.55859375 4.43359375 C3.55859375 3.77359375 3.55859375 3.11359375 3.55859375 2.43359375 C1.82913722 2.57594832 0.10003721 2.72263757 -1.62890625 2.87109375 C-2.59183594 2.95230469 -3.55476562 3.03351563 -4.546875 3.1171875 C-7.22790227 3.41025526 -9.80770485 3.86063129 -12.44140625 4.43359375 C-9.21624509 -0.48093754 -5.36100285 -0.00727409 0 0 Z " fill="#AEAEAE" transform="translate(871.44140625,145.56640625)"/>
<path d="M0 0 C0.66 0.33 1.32 0.66 2 1 C0.5484451 2.67257355 -0.91144409 4.33791758 -2.375 6 C-3.18710937 6.928125 -3.99921875 7.85625 -4.8359375 8.8125 C-5.55007813 9.534375 -6.26421875 10.25625 -7 11 C-7.66 11 -8.32 11 -9 11 C-7.59928507 5.70841026 -4.14512755 3.22521956 0 0 Z " fill="#545454" transform="translate(711,135)"/>
<path d="M0 0 C1.32 0.33 2.64 0.66 4 1 C2.90536178 2.17561146 1.79892814 3.3402489 0.6875 4.5 C0.07261719 5.1496875 -0.54226563 5.799375 -1.17578125 6.46875 C-3 8 -3 8 -6 8 C-6.33 8.99 -6.66 9.98 -7 11 C-6.62403791 8.21788056 -6.32681541 6.4120716 -4.5625 4.1875 C-3 3 -3 3 -1 3 C-0.67 2.01 -0.34 1.02 0 0 Z " fill="#525252" transform="translate(778,135)"/>
<path d="M0 0 C0.66 0.33 1.32 0.66 2 1 C-0.23511303 6.0584137 -2.90495191 10.45247595 -8 13 C-6.76398107 6.81990533 -4.69904339 4.1882778 0 0 Z " fill="#DDE2F8" transform="translate(110,85)"/>
<path d="M0 0 C0.66 0 1.32 0 2 0 C1.6875 1.9375 1.6875 1.9375 1 4 C0.01 4.33 -0.98 4.66 -2 5 C-2.62092718 6.81296615 -2.62092718 6.81296615 -3 9 C-4.69014085 13.84507042 -4.69014085 13.84507042 -7 15 C-6.39301257 10.87248551 -4.96189209 7.6678852 -3 4 C-2.34 4 -1.68 4 -1 4 C-0.67 2.68 -0.34 1.36 0 0 Z " fill="#ACB5EB" transform="translate(96,77)"/>
<path d="M0 0 C1.33333333 0.66666667 2.66666667 1.33333333 4 2 C4.680625 2.226875 5.36125 2.45375 6.0625 2.6875 C9.1560238 4.78311289 9.84882425 7.54647274 11 11 C10.67 11.99 10.34 12.98 10 14 C6 7.25 6 7.25 6 5 C5.38125 4.731875 4.7625 4.46375 4.125 4.1875 C2 3 2 3 0 0 Z " fill="#ABBBF2" transform="translate(253,129)"/>
<path d="M0 0 C0.66 0 1.32 0 2 0 C1.875 2.25 1.875 2.25 1 5 C-2.0625 7.3125 -2.0625 7.3125 -5 9 C-5.66 8.67 -6.32 8.34 -7 8 C-5.88200014 6.66079162 -4.75538103 5.32877444 -3.625 4 C-2.68527344 2.88625 -2.68527344 2.88625 -1.7265625 1.75 C-1.15679687 1.1725 -0.58703125 0.595 0 0 Z " fill="#283DD8" transform="translate(228,207)"/>
<path d="M0 0 C4.875 4.625 4.875 4.625 6 8 C8.50447516 9.21869929 8.50447516 9.21869929 11 10 C11 10.66 11 11.32 11 12 C6.558275 10.60402929 3.98459152 8.56492876 1 5 C0.1875 2.1875 0.1875 2.1875 0 0 Z " fill="#E8ECF9" transform="translate(103,205)"/>
<path d="M0 0 C0.33 0 0.66 0 1 0 C0.58846263 4.97093824 0.20399168 9.44508386 -2 14 C-2.66 14 -3.32 14 -4 14 C-3.46148032 8.72250715 -2.22656164 4.74354436 0 0 Z " fill="#ACACAC" transform="translate(646,188)"/>
<path d="M0 0 C4.8991349 1.29977048 9.37559575 2.92373687 14 5 C14 5.33 14 5.66 14 6 C7.375 6.125 7.375 6.125 4 5 C2.61423077 3.37667033 1.27358732 1.71275535 0 0 Z " fill="#A3A3A3" transform="translate(340,198)"/>
<path d="M0 0 C8.415 1.485 8.415 1.485 17 3 C17 3.33 17 3.66 17 4 C15.10489301 4.08160748 13.20875496 4.13946459 11.3125 4.1875 C9.72888672 4.23970703 9.72888672 4.23970703 8.11328125 4.29296875 C4.63392401 3.96555119 2.7919812 3.05643142 0 1 C0 0.67 0 0.34 0 0 Z " fill="#354BDA" transform="translate(81,170)"/>
<path d="M0 0 C0.66 0 1.32 0 2 0 C3.2039337 3.75399798 3.09877617 7.33217412 3.0625 11.25 C3.05347656 12.51328125 3.04445313 13.7765625 3.03515625 15.078125 C3.02355469 16.04234375 3.01195313 17.0065625 3 18 C2.67 18 2.34 18 2 18 C1.66191314 15.93827387 1.32972639 13.8755797 1 11.8125 C0.814375 10.66394531 0.62875 9.51539063 0.4375 8.33203125 C0.06510523 5.49584607 -0.08596021 2.85280436 0 0 Z " fill="#5A70E2" transform="translate(114,139)"/>
<path d="M0 0 C2 3 2 3 2 5 C2.66 5 3.32 5 4 5 C4.33 8.63 4.66 12.26 5 16 C2.70311431 13.70311431 2.28148697 12.21071829 1.375 9.125 C1.11460937 8.26132813 0.85421875 7.39765625 0.5859375 6.5078125 C0 4 0 4 0 0 Z " fill="#B9B9B9" transform="translate(620,135)"/>
<path d="M0 0 C1.93912584 0.78767592 3.87624766 1.5802867 5.8125 2.375 C6.89144531 2.81585938 7.97039062 3.25671875 9.08203125 3.7109375 C12 5 12 5 15 7 C4.90420561 6.65186916 4.90420561 6.65186916 1.3125 4.0625 C0 2 0 2 0 0 Z " fill="#A9B9F5" transform="translate(177,228)"/>
<path d="M0 0 C2.31 0 4.62 0 7 0 C4.66460191 1.55693206 2.42031244 2.90200646 -0.0625 4.1875 C-0.75472656 4.55230469 -1.44695312 4.91710937 -2.16015625 5.29296875 C-2.76730469 5.52628906 -3.37445313 5.75960937 -4 6 C-4.66 5.67 -5.32 5.34 -6 5 C-5.67 4.01 -5.34 3.02 -5 2 C-3.35 2 -1.7 2 0 2 C0 1.34 0 0.68 0 0 Z " fill="#99A3E5" transform="translate(118,78)"/>
<path d="M0 0 C0.66 0.33 1.32 0.66 2 1 C-1.82180842 5.4008703 -4.47371099 6.80805531 -10 8 C-6.97727468 4.74475735 -3.74281699 2.38179263 0 0 Z " fill="#9BAAEB" transform="translate(108,69)"/>
<path d="M0 0 C0 4.24645065 -1.81750806 6.38524772 -4 10 C-4.99 9.01 -5.98 8.02 -7 7 C-4.66666667 4.66666667 -2.33333333 2.33333333 0 0 Z " fill="#404040" transform="translate(772,183)"/>
<path d="M0 0 C1.48643845 0.56454632 2.96406016 1.15234889 4.4375 1.75 C5.67306641 2.23726562 5.67306641 2.23726562 6.93359375 2.734375 C9 4 9 4 9.78515625 6.140625 C9.85605469 6.75421875 9.92695312 7.3678125 10 8 C6.01328937 6.63312778 3.11505367 4.84804907 0 2 C0 1.34 0 0.68 0 0 Z " fill="#6879E2" transform="translate(72,164)"/>
<path d="M0 0 C1.25127906 3.54667178 0.72285053 5.72253438 -0.4375 9.25 C-0.72496094 10.14203125 -1.01242187 11.0340625 -1.30859375 11.953125 C-1.53675781 12.62859375 -1.76492188 13.3040625 -2 14 C-2.33 14 -2.66 14 -3 14 C-3.14285714 6.57142857 -3.14285714 6.57142857 -2 3 C-1.34 3 -0.68 3 0 3 C0 2.01 0 1.02 0 0 Z " fill="#AEAEAE" transform="translate(650,131)"/>
<path d="M0 0 C2.31 0 4.62 0 7 0 C7.33 1.32 7.66 2.64 8 4 C5.125 3.6875 5.125 3.6875 2 3 C1.34 2.01 0.68 1.02 0 0 Z " fill="#354ED9" transform="translate(150,168)"/>
<path d="M0 0 C0.66 0.33 1.32 0.66 2 1 C-0.31 3.64 -2.62 6.28 -5 9 C-5.33 8.01 -5.66 7.02 -6 6 C-5.34 6 -4.68 6 -4 6 C-3.71125 5.195625 -3.4225 4.39125 -3.125 3.5625 C-2 1 -2 1 0 0 Z " fill="#C6C6C6" transform="translate(440,123)"/>
<path d="M0 0 C0.99 0.495 0.99 0.495 2 1 C2.625 3.5625 2.625 3.5625 3 6 C3.66 6 4.32 6 5 6 C4.67 7.32 4.34 8.64 4 10 C4 9.34 4 8.68 4 8 C2.68 7.34 1.36 6.68 0 6 C0 4.02 0 2.04 0 0 Z " fill="#5F5F5F" transform="translate(428,169)"/>
<path d="M0 0 C1.98 0 3.96 0 6 0 C5.67 0.66 5.34 1.32 5 2 C4.34 2 3.68 2 3 2 C3 2.66 3 3.32 3 4 C1.02 4.66 -0.96 5.32 -3 6 C-2.67 5.34 -2.34 4.68 -2 4 C-1.34 4 -0.68 4 0 4 C0 2.68 0 1.36 0 0 Z " fill="#3248D6" transform="translate(250,167)"/>
<path d="M0 0 C-1.26839526 0.50615298 -2.53983102 1.00469099 -3.8125 1.5 C-4.87404297 1.91765625 -4.87404297 1.91765625 -5.95703125 2.34375 C-8 3 -8 3 -11 3 C-10.67 2.01 -10.34 1.02 -10 0 C-2.25 -1.125 -2.25 -1.125 0 0 Z " fill="#394FDF" transform="translate(223,231)"/>
<path d="M0 0 C0.66 0 1.32 0 2 0 C2 1.32 2 2.64 2 4 C1.01 4 0.02 4 -1 4 C-1 4.99 -1 5.98 -1 7 C-2.98 7.99 -2.98 7.99 -5 9 C-3.50079488 5.88626628 -1.91847864 2.87771795 0 0 Z " fill="#495EDB" transform="translate(231,200)"/>
<path d="M0 0 C1.32 0.33 2.64 0.66 4 1 C-0.5 5 -0.5 5 -5 5 C-5 4.34 -5 3.68 -5 3 C-3.35 3 -1.7 3 0 3 C0 2.01 0 1.02 0 0 Z " fill="#3245D6" transform="translate(103,168)"/>
<path d="M0 0 C1.9375 0.6875 1.9375 0.6875 4 2 C4.75 4.625 4.75 4.625 5 7 C2.525 6.01 2.525 6.01 0 5 C0 3.35 0 1.7 0 0 Z " fill="#4057DA" transform="translate(184,134)"/>
<path d="M0 0 C1.98 0.66 3.96 1.32 6 2 C6 3.65 6 5.3 6 7 C4 5.625 4 5.625 2 4 C2 3.34 2 2.68 2 2 C1.34 2 0.68 2 0 2 C0 1.34 0 0.68 0 0 Z " fill="#4459DB" transform="translate(165,215)"/>
<path d="M0 0 C3.36720387 1.39332574 4.9859524 2.9789286 7 6 C5.35 5.67 3.7 5.34 2 5 C2 4.01 2 3.02 2 2 C1.01 1.67 0.02 1.34 -1 1 C-0.67 0.67 -0.34 0.34 0 0 Z " fill="#344BD7" transform="translate(177,128)"/>
<path d="M0 0 C2.1875 0.3125 2.1875 0.3125 4 1 C2.02 2.32 0.04 3.64 -2 5 C-2.33 4.34 -2.66 3.68 -3 3 C-1.75 1.4375 -1.75 1.4375 0 0 Z " fill="#2C45D7" transform="translate(226,225)"/>
<path d="M0 0 C0.99 0 1.98 0 3 0 C3.33 1.65 3.66 3.3 4 5 C2.68 4.67 1.36 4.34 0 4 C0 2.68 0 1.36 0 0 Z " fill="#2F43D9" transform="translate(110,135)"/>
</svg>
