<?xml version="1.0" encoding="UTF-8"?>
<svg version="1.1" xmlns="http://www.w3.org/2000/svg" width="1402" height="408">
<path d="M0 0 C462.66 0 925.32 0 1402 0 C1402 134.64 1402 269.28 1402 408 C939.34 408 476.68 408 0 408 C0 273.36 0 138.72 0 0 Z " fill="#FEFEFE" transform="translate(0,0)"/>
<path d="M0 0 C1.17304688 0.56847656 2.34609375 1.13695313 3.5546875 1.72265625 C21.65687987 10.90398403 35.91557592 25.69082447 50 40 C53.24844061 38.58382892 55.30333927 36.89089957 57.73046875 34.32421875 C58.44219238 33.58486084 59.15391602 32.84550293 59.88720703 32.08374023 C60.64630371 31.29298096 61.40540039 30.50222168 62.1875 29.6875 C85.17849662 6.28420283 113.7702651 -11.66711168 147.36010742 -12.29223633 C164.26842089 -12.40588035 179.49316716 -9.99556369 195 -3 C196.17304688 -2.4740625 197.34609375 -1.948125 198.5546875 -1.40625 C206.22927731 2.16464482 212.65764964 6.4149452 219 12 C220.21236328 12.98033203 220.21236328 12.98033203 221.44921875 13.98046875 C238.69342823 28.40929709 250.22492837 50.78202841 253 73 C253.21182259 77.87369957 253.18510653 82.7471038 253.1875 87.625 C253.19974609 88.91535156 253.21199219 90.20570313 253.22460938 91.53515625 C253.26484414 118.17057218 243.7437353 141.75555732 225.3125 161.125 C202.34103104 183.21022401 173.91206956 190.40657356 142.734375 190.16796875 C134.55795283 189.99615779 126.78460511 189.30616675 118.9375 186.9375 C118.2170752 186.72053467 117.49665039 186.50356934 116.75439453 186.2800293 C92.18258814 178.53103373 72.58813631 163.1795547 54.93554688 144.86254883 C54.33548828 144.24532959 53.73542969 143.62811035 53.1171875 142.9921875 C52.32223877 142.16243408 52.32223877 142.16243408 51.51123047 141.31591797 C49.91936126 139.759506 49.91936126 139.759506 47 139 C46.76539063 139.56074219 46.53078125 140.12148438 46.2890625 140.69921875 C34.26075166 162.16793113 1.81557354 180.13117102 -21.02734375 187.3203125 C-47.00854172 194.6284776 -79.12109669 191.11945739 -102.80615234 177.99951172 C-115.44284465 170.64130972 -126.26379243 161.80351574 -135 150 C-135.70125 149.06285156 -136.4025 148.12570312 -137.125 147.16015625 C-152.83514497 124.99337973 -157.29457862 96.36340042 -153.3515625 69.79296875 C-148.77956348 45.23703556 -134.16192874 21.5019374 -113.71191406 7.09643555 C-79.43679102 -16.07231408 -36.88298327 -18.56737213 0 0 Z " fill="#484848" transform="translate(234,126)"/>
<path d="M0 0 C10.59199172 7.62697995 16.21126139 19.98290376 19.3125 32.375 C19.68473868 37.01015357 19.68413602 41.64030318 19.68310547 46.28808594 C19.68744858 48.47411853 19.72374565 50.65807745 19.76171875 52.84375 C19.88015181 67.53965738 16.27236671 81.97391341 6.1875 93.1875 C-2.18951591 100.94745894 -12.36474764 103.78513824 -23.4921875 103.6484375 C-33.39771219 102.80077646 -38.09653636 99.01709318 -45.6875 92.375 C-46.0175 108.545 -46.3475 124.715 -46.6875 141.375 C-55.9275 141.375 -65.1675 141.375 -74.6875 141.375 C-74.6875 93.525 -74.6875 45.675 -74.6875 -3.625 C-66.1075 -3.625 -57.5275 -3.625 -48.6875 -3.625 C-48.0275 0.005 -47.3675 3.635 -46.6875 7.375 C-46.06875 6.50875 -45.45 5.6425 -44.8125 4.75 C-33.58536442 -8.79333547 -14.16574627 -8.59977851 0 0 Z " fill="#494949" transform="translate(844.6875,185.625)"/>
<path d="M0 0 C7.6967026 6.48412093 12.50813989 14.06344204 14.29296875 24.046875 C14.29296875 26.686875 14.29296875 29.326875 14.29296875 32.046875 C5.05296875 32.046875 -4.18703125 32.046875 -13.70703125 32.046875 C-14.36703125 28.746875 -15.02703125 25.446875 -15.70703125 22.046875 C-18.06973852 16.82922978 -21.43156934 14.2957154 -26.53125 11.96875 C-34.84497333 9.55541826 -44.55240785 9.55662812 -52.51953125 13.109375 C-56.94412606 15.79277492 -58.89834781 18.19631486 -60.70703125 23.046875 C-61.59050394 28.41007391 -60.59736225 32.46653641 -57.70703125 37.046875 C-55.43185217 38.63196665 -53.49652488 39.76860508 -51.01953125 40.921875 C-50.3325415 41.25574219 -49.64555176 41.58960938 -48.93774414 41.93359375 C-42.68384526 44.84739635 -36.20824893 46.95043159 -29.64453125 49.046875 C-14.68471044 53.84447157 1.19300329 59.87393828 10.04296875 73.80078125 C15.05938018 83.59133425 15.75305956 94.32220538 13.71484375 105.10546875 C9.84294358 116.10518515 1.36691703 122.63576753 -8.7890625 127.57421875 C-18.40067989 131.45381704 -27.84432168 132.57643901 -38.14453125 132.484375 C-39.92839233 132.47301514 -39.92839233 132.47301514 -41.74829102 132.46142578 C-50.11238905 132.30392713 -57.04774027 131.599812 -64.70703125 128.046875 C-65.7228125 127.62277344 -66.73859375 127.19867188 -67.78515625 126.76171875 C-78.54174832 121.91044168 -86.9257423 114.96658733 -91.70703125 104.046875 C-92.14015625 103.098125 -92.57328125 102.149375 -93.01953125 101.171875 C-93.70703125 98.046875 -93.70703125 98.046875 -93.70703125 87.046875 C-84.79703125 87.046875 -75.88703125 87.046875 -66.70703125 87.046875 C-66.15015625 89.08875 -65.59328125 91.130625 -65.01953125 93.234375 C-62.85784042 100.20318251 -60.3196003 103.53641629 -54.14453125 107.296875 C-45.86062378 111.51413698 -34.36034857 111.61573818 -25.44140625 109.140625 C-20.44957668 106.80911179 -16.87343575 104.26594038 -14.70703125 99.046875 C-13.85870483 93.59592653 -14.00522422 88.34763292 -17.21484375 83.6328125 C-22.93147011 77.55702637 -30.68884894 75.23284331 -38.4675293 72.93432617 C-55.48553413 67.9054213 -77.37469918 60.40437469 -86.70703125 44.296875 C-91.22620972 35.5723499 -91.3639736 23.82720059 -88.68359375 14.4765625 C-82.55691539 1.24158329 -70.89986459 -5.07929885 -57.80859375 -10.0546875 C-38.37208872 -15.88019461 -16.3156693 -11.77176717 0 0 Z " fill="#4A4A4A" transform="translate(628.70703125,155.953125)"/>
<path d="M0 0 C10.01455936 6.64901073 15.18468135 15.73110569 17.859375 27.2734375 C18.354375 29.2534375 18.354375 29.2534375 18.859375 31.2734375 C18.859375 39.5234375 18.859375 47.7734375 18.859375 56.2734375 C-1.600625 56.2734375 -22.060625 56.2734375 -43.140625 56.2734375 C-40.55979819 68.01900166 -40.55979819 68.01900166 -33.140625 76.2734375 C-25.305104 80.2988545 -16.41034592 80.90688628 -7.89160156 78.6875 C-3.18614138 77.16339797 1.32950813 75.25080381 5.859375 73.2734375 C6.849375 72.9434375 7.839375 72.6134375 8.859375 72.2734375 C9.84866961 74.14311355 10.82537969 76.01945128 11.796875 77.8984375 C12.34214844 78.94257813 12.88742187 79.98671875 13.44921875 81.0625 C14.82607217 84.19760668 15.45779716 86.88798382 15.859375 90.2734375 C1.66343188 100.78895092 -14.75412575 103.62800697 -32.140625 102.2734375 C-45.19319091 99.85683162 -56.46139382 93.17895399 -64.140625 82.2734375 C-66.37436245 78.36812815 -68.33421335 74.3925163 -70.140625 70.2734375 C-70.50414062 69.47421875 -70.86765625 68.675 -71.2421875 67.8515625 C-75.92387162 54.41716459 -74.9573302 35.17528829 -69.140625 22.2734375 C-68.71652344 21.314375 -68.29242187 20.3553125 -67.85546875 19.3671875 C-61.73786631 6.96157587 -52.62423776 0.40622133 -40.140625 -4.7265625 C-26.178066 -9.38074883 -12.66432584 -6.96222888 0 0 Z " fill="#4A4A4A" transform="translate(949.140625,186.7265625)"/>
<path d="M0 0 C9.85257719 7.5581414 13.94488736 17.07273075 17.28125 28.75 C17.28125 37.33 17.28125 45.91 17.28125 54.75 C-3.17875 54.75 -23.63875 54.75 -44.71875 54.75 C-42.70052994 66.13223354 -42.70052994 66.13223354 -35.625 74.35546875 C-27.15549108 79.26393415 -17.42240607 78.90717454 -8.12890625 76.52734375 C-2.90274894 74.84175979 2.19343968 72.81028795 7.28125 70.75 C8.48341334 73.16032251 9.66799978 75.57683479 10.84375 78 C11.18599609 78.68191406 11.52824219 79.36382812 11.88085938 80.06640625 C14.34167715 85.18689576 14.34167715 85.18689576 14.05834961 87.82714844 C12.14075027 92.57204708 6.30570964 94.31451541 1.91796875 96.1796875 C-7.1089165 99.51061163 -15.94795046 100.26667333 -25.53125 100.375 C-27.21118042 100.40944214 -27.21118042 100.40944214 -28.92504883 100.44458008 C-42.25220821 100.32182605 -52.06040154 94.88833715 -61.6171875 85.98046875 C-71.76726782 75.45363873 -75.07351658 61.72180451 -75.03125 47.5625 C-75.04736328 46.50224609 -75.06347656 45.44199219 -75.08007812 44.34960938 C-75.08876681 30.09148372 -70.96383529 17.82571911 -62.40625 6.375 C-55.46165357 -0.40809419 -47.99079119 -4.49504846 -38.71875 -7.25 C-38.08582031 -7.44207031 -37.45289063 -7.63414062 -36.80078125 -7.83203125 C-23.93998326 -10.41384248 -10.85798063 -7.05063677 0 0 Z " fill="#4A4A4A" transform="translate(1224.71875,188.25)"/>
<path d="M0 0 C9.24 0 18.48 0 28 0 C28.0093457 2.13919922 28.01869141 4.27839844 28.02832031 6.48242188 C28.06217368 13.57125638 28.11776879 20.65980233 28.18390274 27.74840546 C28.22331637 32.04387379 28.25553462 36.339139 28.27099609 40.63476562 C28.28620327 44.78473898 28.32071991 48.93415369 28.36830902 53.08387756 C28.38308117 54.66255319 28.39103862 56.24130859 28.39188385 57.8200531 C28.31703146 69.49466767 28.31703146 69.49466767 33 80 C36.4446185 83.28058904 39.16689743 84.26952049 43.8125 84.5 C49.20085682 84.2965122 53.2670465 82.41003154 58 80 C58.99 79.67 59.98 79.34 61 79 C62.16660365 75.50018905 62.17536376 72.32584654 62.20532227 68.68286133 C62.21522186 67.94115189 62.22512146 67.19944244 62.23532104 66.43525696 C62.26690257 63.98421417 62.29168021 61.533152 62.31640625 59.08203125 C62.33697867 57.38237505 62.35797522 55.68272393 62.37937927 53.983078 C62.4345702 49.50985837 62.48399262 45.03659279 62.53222656 40.56329346 C62.58246332 35.99853426 62.63813804 31.43384177 62.69335938 26.86914062 C62.80090454 17.91281529 62.90185509 8.95643328 63 0 C72.24 0 81.48 0 91 0 C91 34.65 91 69.3 91 105 C83.08 105 75.16 105 67 105 C65.11525997 103.11525997 65.30668 99.97253598 64.9375 97.4375 C64.67259766 95.64119141 64.67259766 95.64119141 64.40234375 93.80859375 C64.26957031 92.88175781 64.13679687 91.95492187 64 91 C63.57589844 91.51949219 63.15179687 92.03898437 62.71484375 92.57421875 C55.48402637 101.17174008 48.68690953 105.96913664 37.30078125 107.3203125 C27.758324 107.72869155 19.15153005 104.75307589 11.77734375 98.67578125 C3.50849822 90.87944118 -0.02520936 81.06325818 -0.42218399 69.75842571 C-0.47828212 65.87270465 -0.44194502 61.99103252 -0.390625 58.10546875 C-0.38314531 56.42011697 -0.37746057 54.73475637 -0.37347412 53.0493927 C-0.35835346 48.65822449 -0.31919264 44.26760317 -0.2746582 39.87664795 C-0.23340891 35.37812697 -0.21540041 30.87951581 -0.1953125 26.38085938 C-0.15268179 17.58696321 -0.08244706 8.79361307 0 0 Z " fill="#494949" transform="translate(660,182)"/>
<path d="M0 0 C7.57524687 5.12086688 12.63080958 11.14662674 14.7421875 20.16796875 C14.7421875 22.47796875 14.7421875 24.78796875 14.7421875 27.16796875 C5.5021875 27.16796875 -3.7378125 27.16796875 -13.2578125 27.16796875 C-13.9178125 24.52796875 -14.5778125 21.88796875 -15.2578125 19.16796875 C-15.7528125 17.68296875 -15.7528125 17.68296875 -16.2578125 16.16796875 C-20.47126929 14.31255847 -24.24708861 13.87166671 -28.8203125 13.85546875 C-29.91472656 13.83871094 -31.00914063 13.82195312 -32.13671875 13.8046875 C-35.63311435 14.21165219 -37.45877236 15.06745884 -40.2578125 17.16796875 C-42.71294896 20.85067344 -42.95066968 23.88957567 -42.2578125 28.16796875 C-37.5554566 34.85978292 -29.36900933 35.89457452 -21.8828125 37.35546875 C-9.67454134 39.95407343 3.75418802 43.71984642 11.546875 54.24609375 C16.20485209 61.73539025 16.97326284 68.4771488 15.12109375 77.0390625 C12.54880701 85.28181246 8.1964087 90.51199887 0.80078125 94.921875 C-8.79326599 99.90501593 -16.83612936 101.51224549 -27.5703125 101.48046875 C-29.18583008 101.50463867 -29.18583008 101.50463867 -30.83398438 101.52929688 C-44.58854837 101.53762793 -56.35626946 96.83924335 -66.2578125 87.16796875 C-71.38587942 80.29721613 -73.2578125 74.8777188 -73.2578125 66.16796875 C-64.6778125 66.16796875 -56.0978125 66.16796875 -47.2578125 66.16796875 C-46.2678125 69.46796875 -45.2778125 72.76796875 -44.2578125 76.16796875 C-39.37204224 80.77718597 -35.85784436 81.48368595 -29.1953125 81.66796875 C-23.82332758 81.46068959 -19.81065746 81.06523373 -15.2578125 78.16796875 C-13.20241245 75.6657426 -13.23231032 73.92994837 -12.8828125 70.66796875 C-13.33224942 66.47322415 -14.10339573 65.81618689 -17.2578125 63.16796875 C-23.26586583 59.88493032 -29.56501073 57.98130125 -36.2578125 56.66796875 C-49.07177567 54.1362917 -60.55559456 49.0416882 -68.2578125 38.16796875 C-71.155955 30.91749211 -71.66027865 22.79485485 -69.3828125 15.28125 C-64.49148505 4.77454993 -56.79058784 -0.49263529 -46.2578125 -4.83203125 C-31.29484717 -10.02725821 -13.6613914 -7.68248509 0 0 Z " fill="#4A4A4A" transform="translate(1122.2578125,186.83203125)"/>
<path d="M0 0 C16.65483271 -0.75919465 29.58120066 8.65660194 41.5546875 19.1875 C48.64363763 25.66001968 56.62128853 33.32700127 60.5546875 42.1875 C56.91588395 46.21370468 53.24662921 50.20998708 49.5546875 54.1875 C48.3171875 55.52748047 48.3171875 55.52748047 47.0546875 56.89453125 C35.37455186 69.09335713 20.96487987 78.95557233 3.6784668 79.84570312 C-7.63393268 79.98909469 -17.0734396 77.38259482 -25.8828125 70 C-34.00861066 62.05917936 -38.41945803 53.39577864 -38.7578125 42 C-38.51303078 29.44413762 -35.01704316 18.24669028 -25.8203125 9.375 C-18.31430932 3.28087458 -9.46961801 0.7261049 0 0 Z " fill="#FDFDFD" transform="translate(182.4453125,175.8125)"/>
<path d="M0 0 C8.32440977 7.07422368 13.12813879 16.67875438 14.55078125 27.4453125 C15.13173533 39.08717652 11.98350272 48.85439324 5.203125 58.35546875 C0.42484565 63.61749952 -5.39364522 66.22636094 -11.9375 68.75 C-13.0821875 69.29333984 -13.0821875 69.29333984 -14.25 69.84765625 C-24.41313885 73.25998921 -35.8502797 71.35175581 -45.30664062 66.86669922 C-61.093516 58.76345602 -75.25333276 45.55861859 -84.9375 30.75 C-82.92009519 28.39282174 -80.89870824 26.03925732 -78.875 23.6875 C-78.31361328 23.03072266 -77.75222656 22.37394531 -77.17382812 21.69726562 C-57.7812161 -0.79816433 -28.41470131 -20.41860446 0 0 Z " fill="#FDFDFD" transform="translate(407.9375,184.25)"/>
<path d="M0 0 C9.24 0 18.48 0 28 0 C28 8.58 28 17.16 28 26 C33.94 26 39.88 26 46 26 C46 32.6 46 39.2 46 46 C40.06 46 34.12 46 28 46 C28.10823346 53.34560681 28.22037602 60.69112912 28.33933926 68.03657055 C28.39442775 71.44760718 28.44782454 74.85865257 28.49731445 78.26977539 C28.5543274 82.19425973 28.61877172 86.11860532 28.68359375 90.04296875 C28.70030624 91.26396774 28.71701874 92.48496674 28.73423767 93.7429657 C28.7641555 95.45417351 28.7641555 95.45417351 28.79467773 97.19995117 C28.81799416 98.7021949 28.81799416 98.7021949 28.84178162 100.23478699 C28.99501775 102.91292422 29.4046512 105.38784582 30 108 C33.16245541 109.0541518 35.86948218 109.31275672 39.1875 109.5625 C40.81751953 109.68818359 40.81751953 109.68818359 42.48046875 109.81640625 C43.31191406 109.87699219 44.14335938 109.93757813 45 110 C46.42002108 116.7831364 47.22731216 123.06697907 47 130 C41.41100365 131.88300414 36.44136805 132.33584737 30.5625 132.3125 C29.35110352 132.33666992 29.35110352 132.33666992 28.11523438 132.36132812 C20.1534504 132.36774374 13.57314222 130.32765159 7.60546875 124.87890625 C2.09607416 118.43117195 -0.13014886 111.07443066 -0.11352539 102.76269531 C-0.11344986 101.50169006 -0.11337433 100.24068481 -0.11329651 98.94146729 C-0.10819028 97.57035279 -0.1029743 96.19923869 -0.09765625 94.828125 C-0.09579028 93.42136689 -0.09436722 92.01460812 -0.09336853 90.60784912 C-0.08955744 86.91219273 -0.0797392 83.21657587 -0.06866455 79.52093506 C-0.05842014 75.74703506 -0.05386442 71.97312865 -0.04882812 68.19921875 C-0.03811563 60.79945909 -0.02053027 53.39974013 0 46 C-4.95 46 -9.9 46 -15 46 C-15 39.4 -15 32.8 -15 26 C-10.05 26 -5.1 26 0 26 C0 17.42 0 8.84 0 0 Z " fill="#494949" transform="translate(1266,156)"/>
<path d="M0 0 C18.12114389 7.81696403 32.39287485 24.19535206 46 38 C41.81440222 43.81333025 37.27844654 49.23608437 32.59887695 54.65063477 C28.7552209 59.10240047 25.01034372 63.62381168 21.3046875 68.19140625 C18.12909037 72.06132885 14.88509886 75.87203126 11.62866211 79.67407227 C9.60019674 82.05345514 7.73721985 84.39417023 6 87 C1.90632667 86.49175613 0.31115732 84.48988996 -2.3125 81.4375 C-3.10269531 80.53128906 -3.89289063 79.62507813 -4.70703125 78.69140625 C-6.08254825 77.07687266 -7.45573325 75.46034157 -8.82421875 73.83984375 C-17.6753868 63.46190079 -28.12826972 54.86265366 -41 50 C-36.79462341 44.15919918 -32.23195746 38.7175532 -27.52856445 33.27905273 C-23.94067502 29.12211483 -20.47776066 24.88785102 -17.07421875 20.578125 C-14.07016529 16.84427324 -10.96527286 13.19820932 -7.85522461 9.55249023 C-5.17903082 6.41197414 -2.56003282 3.23592934 0 0 Z " fill="#50A4C4" transform="translate(239,129)"/>
<path d="M0 0 C3.33510304 1.11170101 4.10364173 1.99468142 6.3125 4.625 C7.23675781 5.70974609 7.23675781 5.70974609 8.1796875 6.81640625 C9.29417191 8.15330922 10.40456484 9.49365296 11.5078125 10.83984375 C21.44064175 22.80808883 34.39543897 31.76340965 49 37 C48.0409375 37.928125 48.0409375 37.928125 47.0625 38.875 C40.39878341 45.55748762 34.31918641 52.74795554 28.38671875 60.078125 C25.77609676 63.2741074 23.11285365 66.42076651 20.4375 69.5625 C15.84925255 74.95647673 11.38262331 80.43695665 7 86 C-10.17332452 79.74666988 -24.12759414 64.20084785 -36.60229492 51.42944336 C-37.72732038 50.27887147 -38.86212963 49.13787037 -40 48 C-39.443125 47.39414062 -38.88625 46.78828125 -38.3125 46.1640625 C-33.69719644 41.09658393 -29.27279747 35.94287699 -25.02734375 30.5625 C-21.41192375 25.99272058 -17.69558953 21.50498011 -14 17 C-12.41651678 15.06262249 -10.83318099 13.12512449 -9.25 11.1875 C-6.18589362 7.44188484 -3.10785528 3.70937565 0 0 Z " fill="#50A4C4" transform="translate(322,216)"/>
<path d="M0 0 C0.97066406 -0.00257813 1.94132812 -0.00515625 2.94140625 -0.0078125 C5.4375 0.125 5.4375 0.125 7.4375 1.125 C6.78688113 9.51455907 5.68851251 17.80515955 4.4375 26.125 C3.3753125 26.13917969 2.313125 26.15335938 1.21875 26.16796875 C-10.11141959 26.35708666 -10.11141959 26.35708666 -19.5625 32.125 C-22.00462397 35.78818595 -21.83493836 37.6129455 -21.88134766 41.9831543 C-21.89139328 42.67609589 -21.9014389 43.36903748 -21.91178894 44.08297729 C-21.9426616 46.37171607 -21.95966711 48.66033765 -21.9765625 50.94921875 C-21.9952709 52.53677888 -22.01484407 54.12432904 -22.0352478 55.71186829 C-22.08660983 59.88915123 -22.12621366 64.06646643 -22.16339111 68.24389648 C-22.20340531 72.50708013 -22.25450942 76.77012914 -22.3046875 81.03320312 C-22.40149504 89.39705032 -22.48485932 97.7609529 -22.5625 106.125 C-31.8025 106.125 -41.0425 106.125 -50.5625 106.125 C-50.5625 71.805 -50.5625 37.485 -50.5625 2.125 C-41.9825 2.125 -33.4025 2.125 -24.5625 2.125 C-23.9025 6.415 -23.2425 10.705 -22.5625 15.125 C-21.325 13.330625 -21.325 13.330625 -20.0625 11.5 C-14.77250224 4.42572746 -8.99659245 -0.02395897 0 0 Z " fill="#494949" transform="translate(1035.5625,179.875)"/>
<path d="M0 0 C7.74394851 7.36619492 10.3971283 15.02563352 10.84765625 25.6875 C10.88875685 27.6247955 10.91857174 29.56236101 10.9375 31.5 C10.95840698 32.88264038 10.95840698 32.88264038 10.97973633 34.29321289 C10.91899217 43.15318174 9.24780429 51.41447705 3.5625 58.4375 C-1.88641094 63.23773107 -5.15868225 63.78744669 -12.3203125 63.71875 C-17.85504069 63.21937603 -21.49282747 61.25036925 -25.50512695 57.51000977 C-28.31192711 53.04714433 -28.06727774 49.09141972 -28.07421875 43.9140625 C-28.08516068 42.89452484 -28.0961026 41.87498718 -28.1073761 40.82455444 C-28.12321962 38.67117358 -28.12844389 36.51769191 -28.1237793 34.36425781 C-28.12499365 31.07966654 -28.1847622 27.79953328 -28.24804688 24.515625 C-28.25618963 22.41928169 -28.260861 20.32292144 -28.26171875 18.2265625 C-28.28529953 17.25030914 -28.30888031 16.27405579 -28.33317566 15.26821899 C-28.26346506 10.06438912 -27.75725134 7.14838643 -24.04638672 3.3515625 C-17.31404369 -2.53936219 -8.19492364 -3.72496529 0 0 Z " fill="#FCFCFC" transform="translate(825.4375,203.5625)"/>
<path d="M0 0 C4.29736634 1.25851443 6.32880889 4.1685831 8.5 7.890625 C9.81385922 13.14606187 9.83351755 17.83857605 8 22.953125 C5.90846965 26.05435966 4.46168927 27.78999628 1.1875 29.640625 C-3.55202515 30.30816375 -6.77697466 30.33097523 -10.8125 27.640625 C-11.1425 31.930625 -11.4725 36.220625 -11.8125 40.640625 C-14.4525 40.640625 -17.0925 40.640625 -19.8125 40.640625 C-19.8125 27.440625 -19.8125 14.240625 -19.8125 0.640625 C-17.1725 0.640625 -14.5325 0.640625 -11.8125 0.640625 C-11.4825 1.300625 -11.1525 1.960625 -10.8125 2.640625 C-10.1009375 1.8671875 -10.1009375 1.8671875 -9.375 1.078125 C-5.99455335 -0.81822312 -3.76733366 -0.57005707 0 0 Z " fill="#4B4B4B" transform="translate(722.8125,126.359375)"/>
<path d="M0 0 C1.23556641 0.01740234 1.23556641 0.01740234 2.49609375 0.03515625 C3.32238281 0.04417969 4.14867187 0.05320312 5 0.0625 C5.63808594 0.07410156 6.27617188 0.08570312 6.93359375 0.09765625 C8.77401196 4.82710749 10.60684909 9.5594016 12.43286133 14.29443359 C13.05450608 15.90330133 13.67817949 17.51138681 14.30395508 19.11865234 C15.20544216 21.43512272 16.09948619 23.7543507 16.9921875 26.07421875 C17.27138535 26.78695953 17.55058319 27.49970032 17.83824158 28.23403931 C19.3478543 32.18077398 20.39941233 35.87617927 20.93359375 40.09765625 C18.29359375 40.09765625 15.65359375 40.09765625 12.93359375 40.09765625 C11.94359375 37.45765625 10.95359375 34.81765625 9.93359375 32.09765625 C4.98359375 32.09765625 0.03359375 32.09765625 -5.06640625 32.09765625 C-6.05640625 34.73765625 -7.04640625 37.37765625 -8.06640625 40.09765625 C-10.70640625 40.09765625 -13.34640625 40.09765625 -16.06640625 40.09765625 C-15.42805051 35.26351967 -14.06176857 30.8812877 -12.37890625 26.328125 C-12.11634033 25.60651688 -11.85377441 24.88490875 -11.58325195 24.14143372 C-11.03096759 22.62699081 -10.47615624 21.11346728 -9.91894531 19.60083008 C-9.06344923 17.27712437 -8.21668192 14.950374 -7.37109375 12.62304688 C-6.83253914 11.14955385 -6.2934941 9.67623997 -5.75390625 8.203125 C-5.37262573 7.15634834 -5.37262573 7.15634834 -4.98364258 6.08842468 C-2.78249814 0.13149802 -2.78249814 0.13149802 0 0 Z " fill="#4E4E4E" transform="translate(678.06640625,115.90234375)"/>
<path d="M0 0 C2.97 0 5.94 0 9 0 C9 5.28 9 10.56 9 16 C10.65 15.01 12.3 14.02 14 13 C16.28125 12.71484375 16.28125 12.71484375 18.5 12.9375 C19.2321875 12.98777344 19.964375 13.03804687 20.71875 13.08984375 C24.29803607 14.51788083 26.36753705 16.58537048 28 20 C28.59400009 23.98068169 28.47312555 27.86183231 28.3125 31.875 C28.28994141 32.94492188 28.26738281 34.01484375 28.24414062 35.1171875 C28.18545633 37.74624407 28.1034118 40.37238582 28 43 C25.03 43 22.06 43 19 43 C18.97494385 42.3387915 18.9498877 41.67758301 18.92407227 40.99633789 C18.80846898 38.01817695 18.68558246 35.0403608 18.5625 32.0625 C18.52318359 31.02158203 18.48386719 29.98066406 18.44335938 28.90820312 C18.40146484 27.91884766 18.35957031 26.92949219 18.31640625 25.91015625 C18.27974854 24.99371338 18.24309082 24.07727051 18.20532227 23.13305664 C18.22996136 21.0179272 18.22996136 21.0179272 17 20 C14 19.83333333 14 19.83333333 11 20 C9.34920558 21.65079442 9.77450553 23.63736179 9.68359375 25.91015625 C9.64169922 26.89951172 9.59980469 27.88886719 9.55664062 28.90820312 C9.51732422 29.94912109 9.47800781 30.99003906 9.4375 32.0625 C9.39431641 33.10728516 9.35113281 34.15207031 9.30664062 35.22851562 C9.20018775 37.81886884 9.0981724 40.40932186 9 43 C6.03 43 3.06 43 0 43 C0 28.81 0 14.62 0 0 Z " fill="#525252" transform="translate(800,113)"/>
<path d="M0 0 C3.18377614 1.59823025 4.27745323 2.96678224 5.625 6.25 C5.94384766 8.72363281 5.94384766 8.72363281 6.0390625 11.453125 C6.07773437 12.4328125 6.11640625 13.4125 6.15625 14.421875 C6.1871875 15.43765625 6.218125 16.4534375 6.25 17.5 C6.28867187 18.53125 6.32734375 19.5625 6.3671875 20.625 C6.46131674 23.1664894 6.54694979 25.70797433 6.625 28.25 C3.655 28.25 0.685 28.25 -2.375 28.25 C-2.375 26.93 -2.375 25.61 -2.375 24.25 C-3.035 24.25 -3.695 24.25 -4.375 24.25 C-4.375 24.91 -4.375 25.57 -4.375 26.25 C-8.62197738 29.08131825 -12.39068699 29.0119332 -17.375 28.25 C-20.5 26.1875 -20.5 26.1875 -22.375 23.25 C-23.0625 19.75 -23.0625 19.75 -22.375 16.25 C-20.24401664 13.38839378 -19.55857733 12.505336 -16.375 11.25 C-12.00800757 10.84593664 -7.74659024 10.95812825 -3.375 11.25 C-4.035 9.27 -4.695 7.29 -5.375 5.25 C-7.355 5.25 -9.335 5.25 -11.375 5.25 C-11.705 5.91 -12.035 6.57 -12.375 7.25 C-15.015 7.25 -17.655 7.25 -20.375 7.25 C-20.3125 5 -20.3125 5 -19.375 2.25 C-13.07568725 -2.50662391 -7.20059203 -3.28128244 0 0 Z " fill="#505050" transform="translate(757.375,127.75)"/>
<path d="M0 0 C4.28451152 2.95835319 6.31306604 6.18863208 8.625 10.8125 C8.625 14.1125 8.625 17.4125 8.625 20.8125 C-2.595 20.8125 -13.815 20.8125 -25.375 20.8125 C-24.40662915 11.12879148 -23.4524313 6.60545935 -16.6875 0.3125 C-11.04094331 -2.24443133 -5.80363459 -2.04201958 0 0 Z " fill="#FCFCFC" transform="translate(1205.375,203.1875)"/>
<path d="M0 0 C4.34494812 2.93031385 6.36182568 6.16115136 8.6875 10.8125 C8.6875 14.1125 8.6875 17.4125 8.6875 20.8125 C-2.5325 20.8125 -13.7525 20.8125 -25.3125 20.8125 C-25.3125 13.38357899 -24.19060767 9.8779872 -20.3125 3.8125 C-14.49692066 -1.86461317 -7.53572971 -2.70148801 0 0 Z " fill="#FCFCFC" transform="translate(931.3125,203.1875)"/>
<path d="M0 0 C2.67905496 1.78603664 3.96775488 3.02155006 5.625 5.75 C6.00957675 9.13427538 5.75999016 12.33024929 5.625 15.75 C-0.315 15.75 -6.255 15.75 -12.375 15.75 C-10.92211014 20.3341963 -10.92211014 20.3341963 -9.375 21.75 C-7.9403041 21.84894455 -6.50059603 21.87970735 -5.0625 21.875 C-4.28261719 21.87757813 -3.50273438 21.88015625 -2.69921875 21.8828125 C-0.46248461 21.75499912 1.47766979 21.36913869 3.625 20.75 C4.285 22.4 4.945 24.05 5.625 25.75 C-0.52613328 29.10516361 -6.42716788 29.79072936 -13.375 28.75 C-17.34748431 26.82856805 -19.75464562 23.81535339 -21.375 19.75 C-22.04201024 14.18124009 -22.10672128 9.29474492 -19.6875 4.1875 C-13.88215523 -1.93164718 -7.86127634 -2.91158383 0 0 Z " fill="#4D4D4D" transform="translate(855.375,127.25)"/>
<path d="M0 0 C3.42224883 1.68110469 5.27413015 2.91119523 7.375 6.0625 C8 8 8 8 8 11 C5.36 11 2.72 11 0 11 C-0.66 9.68 -1.32 8.36 -2 7 C-4.31 7 -6.62 7 -9 7 C-10.29376578 9.58753156 -10.16832397 11.54958985 -10.1875 14.4375 C-10.20876953 15.88962891 -10.20876953 15.88962891 -10.23046875 17.37109375 C-10.19149451 20.23266727 -10.19149451 20.23266727 -8 23 C-4.91634129 23.2502157 -4.91634129 23.2502157 -2 23 C-1.67 22.01 -1.34 21.02 -1 20 C1.64 20 4.28 20 7 20 C6.82227527 23.90994399 6.4321336 25.5678664 3.625 28.375 C-1.3530864 30.60655597 -5.62627903 30.79166425 -11 30 C-15.58273187 27.79046856 -17.74039918 25.49345121 -20 21 C-20.82885269 15.45191396 -20.7240695 10.52859117 -18.3125 5.4375 C-12.8274675 -0.34402074 -7.78808567 -1.03917272 0 0 Z " fill="#505050" transform="translate(788,126)"/>
<path d="M0 0 C2.5625 0.5 2.5625 0.5 4.875 2.5 C7.0484192 6.36385636 7.26128272 9.16754712 6.5625 13.5 C5.5 16.5 5.5 16.5 3.5625 18.5 C0 18.9375 0 18.9375 -3.4375 18.5 C-6.21559395 15.72190605 -5.73705703 13.93244797 -5.75 10.0625 C-5.76675781 8.90878906 -5.78351562 7.75507813 -5.80078125 6.56640625 C-5.4375 3.5 -5.4375 3.5 -4.0703125 1.62109375 C-2.4375 0.5 -2.4375 0.5 0 0 Z " fill="#F6F6F6" transform="translate(716.4375,131.5)"/>
<path d="M0 0 C1.32 0 2.64 0 4 0 C5.32 2.97 6.64 5.94 8 9 C10.32472205 6.14693203 11.7508258 3.45925163 13 0 C14.32 0 15.64 0 17 0 C17 5.28 17 10.56 17 16 C16.01 16 15.02 16 14 16 C13.67 13.69 13.34 11.38 13 9 C12.01 11.31 11.02 13.62 10 16 C9.01 16 8.02 16 7 16 C6.01 13.69 5.02 11.38 4 9 C3.67 11.64 3.34 14.28 3 17 C2.01 17 1.02 17 0 17 C0 11.39 0 5.78 0 0 Z " fill="#5A5A5A" transform="translate(1332,157)"/>
<path d="M0 0 C2.63595772 2.63595772 3.07702112 5.06187181 4.125 8.625 C4.47820313 9.81351563 4.83140625 11.00203125 5.1953125 12.2265625 C5.46085938 13.14179688 5.72640625 14.05703125 6 15 C2.37 15 -1.26 15 -5 15 C-1.85714286 4.28571429 -1.85714286 4.28571429 0 0 Z " fill="#F2F2F2" transform="translate(680,126)"/>
<path d="M0 0 C3.96 0 7.92 0 12 0 C12 0.66 12 1.32 12 2 C10.35 2 8.7 2 7 2 C7 6.95 7 11.9 7 17 C6.01 17 5.02 17 4 17 C4 12.05 4 7.1 4 2 C2.68 2 1.36 2 0 2 C0 1.34 0 0.68 0 0 Z " fill="#575757" transform="translate(1317,157)"/>
<path d="M0 0 C2.01822917 0.06510417 4.03645833 0.13020833 6.0546875 0.1953125 C6.1796875 2.5703125 6.1796875 2.5703125 6.0546875 5.1953125 C4.0546875 7.1953125 4.0546875 7.1953125 0.4296875 7.3203125 C-0.6840625 7.2790625 -1.7978125 7.2378125 -2.9453125 7.1953125 C-3.5703125 4.8203125 -3.5703125 4.8203125 -3.9453125 2.1953125 C-1.9453125 0.1953125 -1.9453125 0.1953125 0 0 Z " fill="#F9F9F9" transform="translate(747.9453125,142.8046875)"/>
<path d="M0 0 C1.32 0 2.64 0 4 0 C4 5.28 4 10.56 4 16 C3.01 16 2.02 16 1 16 C0.67 13.03 0.34 10.06 0 7 C-0.66 7 -1.32 7 -2 7 C-1.34 4.69 -0.68 2.38 0 0 Z " fill="#515151" transform="translate(1345,157)"/>
<path d="M0 0 C0.33 1.65 0.66 3.3 1 5 C-2.3 5 -5.6 5 -9 5 C-8.625 2.5625 -8.625 2.5625 -8 0 C-5.13822943 -1.43088528 -3.06624227 -0.59991697 0 0 Z " fill="#F9F9F9" transform="translate(852,133)"/>
</svg>
