<?xml version="1.0" encoding="UTF-8"?>
<svg version="1.1" xmlns="http://www.w3.org/2000/svg" width="1428" height="978">
<path d="M0 0 C471.24 0 942.48 0 1428 0 C1428 322.74 1428 645.48 1428 978 C956.76 978 485.52 978 0 978 C0 655.26 0 332.52 0 0 Z " fill="#FEFEFE" transform="translate(0,0)"/>
<path d="M0 0 C0.70715149 0.0062439 1.41430298 0.01248779 2.1428833 0.0189209 C23.64579267 0.21518034 44.73602382 1.7524371 66 5 C67.25925293 5.19158691 68.51850586 5.38317383 69.81591797 5.58056641 C102.24382498 10.73772474 134.05402256 20.5890259 164 34 C164.8677002 34.38220703 165.73540039 34.76441406 166.62939453 35.15820312 C191.77336142 46.29837052 215.35114878 61.07836664 237 78 C238.11302703 78.85710107 239.22632172 79.71385462 240.33984375 80.5703125 C253.44321806 90.70062165 265.76106703 101.57474398 277.79612732 112.94519043 C279.34292636 114.38736878 280.90311626 115.81525432 282.47293091 117.23234558 C290.30579069 124.31187767 297.80528625 131.6843657 305.24716949 139.1720047 C307.38177184 141.31959834 309.51968197 143.46385253 311.65838623 145.60736084 C316.19178081 150.15206501 320.7211866 154.70073125 325.25 159.25 C330.51887416 164.54259149 335.78943365 169.83348267 341.06423187 175.12017059 C343.15779991 177.22016087 345.24830544 179.32316621 347.33868408 181.42633057 C353.38736181 187.49832687 359.41690366 193.50011187 366 199 C367.09602541 199.95964701 368.19008563 200.92154809 369.28125 201.88671875 C393.43573494 222.99677092 420.87707937 241.13219313 452 250 C453.14082031 250.34417969 454.28164063 250.68835938 455.45703125 251.04296875 C484.53031328 259.12404075 516.08191214 260.86766798 545.75683594 255.40576172 C547.86776117 255.02392043 549.97970089 254.69331348 552.1015625 254.37890625 C592.13956262 247.91987016 629.07115242 225.12782892 658.62890625 198.15234375 C660.74503111 196.23144623 662.89309269 194.36010568 665.0625 192.5 C671.58284125 186.80784725 677.5868181 180.63681309 683.2109375 174.0625 C684.44098976 172.64444849 685.69805377 171.24952322 686.9765625 169.875 C694.24943238 162.04674733 700.59770988 153.5433302 707 145 C708.39812715 149.19438145 707.02797824 152.34004124 705.8125 156.4375 C705.41961792 157.78146851 705.41961792 157.78146851 705.01879883 159.15258789 C695.45150044 191.25009625 683.95737145 221.99984382 669 252 C668.5654248 252.87317871 668.13084961 253.74635742 667.68310547 254.64599609 C655.43392816 279.06297672 640.05380152 301.50879357 622 322 C621.31292969 322.79792969 620.62585938 323.59585937 619.91796875 324.41796875 C609.26648739 336.57654308 597.7637565 348.07662875 585 358 C583.88521047 358.92370205 582.77341642 359.85102688 581.6640625 360.78125 C567.35462539 372.68733843 551.48000058 382.12613252 535.09082031 390.88134766 C533.76606748 391.59013064 532.44464306 392.30520007 531.12792969 393.02880859 C492.74100126 414.08409114 448.04769197 423.82662962 405 429 C404.33349426 429.08786774 403.66698853 429.17573547 402.98028564 429.26626587 C387.06166602 431.3444105 371.14486563 431.27258543 355.12451172 431.19561768 C352.2956107 431.18480856 349.46675739 431.18520218 346.63783932 431.18560123 C325.05940237 431.18504441 303.82419931 430.71520866 282.4375 427.6875 C281.63539093 427.57639893 280.83328186 427.46529785 280.00686646 427.35083008 C268.93671392 425.81464143 257.93641889 424.15824683 247.07080078 421.50048828 C244.91629738 420.97977006 242.75487847 420.50222721 240.58984375 420.02734375 C183.15121949 407.01211162 131.00241454 378.52202386 86 341 C84.88035553 340.0766444 83.76056981 339.15346004 82.640625 338.23046875 C74.92057072 331.82531103 67.58726975 325.04379039 60.30133057 318.15226746 C58.1519608 316.14211791 55.97945931 314.1592229 53.8036375 312.17782116 C46.205924 305.23392914 38.90187646 298.02181348 31.64710045 290.72226524 C29.51663128 288.57877944 27.38283202 286.43865552 25.24824524 284.29927063 C20.72513296 279.76486307 16.20601969 275.22648346 11.6875 270.6875 C6.42648366 265.40275836 1.16377358 260.11972542 -4.10317039 254.84089088 C-6.19231009 252.74533118 -8.2783868 250.64675614 -10.36433411 248.54801941 C-16.40371508 242.4852981 -22.42089199 236.48477209 -29 231 C-30.0338533 230.10045165 -31.06643677 229.19944149 -32.09765625 228.296875 C-74.02219832 192.28264387 -121.16126735 173.78961736 -176.5 173.75 C-177.34793121 173.74932526 -178.19586243 173.74865051 -179.06948853 173.74795532 C-191.29562527 173.76341663 -203.06617461 174.11301132 -215 177 C-215.75619629 177.17160645 -216.51239258 177.34321289 -217.29150391 177.52001953 C-234.80966334 181.53452299 -251.41592841 187.65383645 -267.28076172 196.08740234 C-268.81616769 196.90241903 -270.36249134 197.69679087 -271.91015625 198.48828125 C-289.71736796 207.79838457 -306.33112631 220.34645819 -321 234 C-322.26735226 235.08740366 -323.53810738 236.17085594 -324.8125 237.25 C-333.49879099 244.82402203 -341.57092577 253.19916725 -349 262 C-349.98056122 263.12995707 -350.96246245 264.25875197 -351.9453125 265.38671875 C-353.02621755 266.63265994 -354.10694536 267.87875491 -355.1875 269.125 C-355.69933838 269.71144287 -356.21117676 270.29788574 -356.73852539 270.90209961 C-359.1082666 273.65109248 -361.31962208 276.38518422 -363.30078125 279.4296875 C-364.14189453 280.70199219 -364.14189453 280.70199219 -365 282 C-365.33 282 -365.66 282 -366 282 C-366.57304654 272.79680996 -365.06824163 265.27491373 -362.1875 256.5625 C-361.78515137 255.31186768 -361.38280273 254.06123535 -360.96826172 252.77270508 C-348.16913344 213.37184926 -331.16785118 175.42264731 -308 141 C-307.5452832 140.32404785 -307.09056641 139.6480957 -306.62207031 138.95166016 C-290.02746716 114.53170033 -269.41474565 91.03976817 -246 73 C-244.91355733 72.12593956 -243.82902749 71.24949789 -242.74609375 70.37109375 C-210.32244617 44.20464131 -171.02440236 24.649759 -130.57763672 14.64355469 C-127.53580395 13.88410487 -124.50529699 13.08440972 -121.47265625 12.2890625 C-104.43004209 7.90873421 -87.47129465 5.01817149 -70 3 C-69.06381836 2.88817383 -68.12763672 2.77634766 -67.16308594 2.66113281 C-61.78182252 2.02247295 -56.39840626 1.47115698 -51 1 C-49.76636719 0.88785156 -48.53273438 0.77570313 -47.26171875 0.66015625 C-31.55199827 -0.51125294 -15.74197281 -0.16179334 0 0 Z " fill="#62BAF3" transform="translate(366,488)"/>
<path d="M0 0 C0.68118896 -0.00029457 1.36237793 -0.00058914 2.06420898 -0.00089264 C22.34809853 -0.0023082 42.32660722 0.28019455 62.4375 3.25 C63.88672569 3.45180576 65.33611647 3.65242845 66.78564453 3.85205078 C143.24934923 14.48110266 211.10146441 46.04469738 269.4375 96.25 C270.15292969 96.86359375 270.86835937 97.4771875 271.60546875 98.109375 C277.06396902 102.83632369 282.37268786 107.72892712 287.67806816 112.6261425 C288.82319753 113.68303307 289.96891527 114.7392866 291.11531258 115.79480171 C300.21849969 124.18523532 309.09052658 132.77270386 317.81666374 141.55399895 C319.90525817 143.65566766 321.99723325 145.75392314 324.08998108 147.85145569 C328.52120077 152.29393874 332.94839894 156.74041545 337.375 161.1875 C342.53769287 166.37393774 347.70209899 171.55864706 352.87072945 176.73916817 C354.91777478 178.7926273 356.96175503 180.84910266 359.00559998 182.90574646 C364.97782574 188.90151638 370.93743163 194.81905765 377.4375 200.25 C378.41332031 201.10722656 379.38914062 201.96445312 380.39453125 202.84765625 C420.79779093 237.72379422 467.58162426 258.04025488 521.3125 257.75 C522.71281464 257.7458609 522.71281464 257.7458609 524.14141846 257.74163818 C577.9885414 257.44950755 627.70670357 235.69227873 667.18359375 199.3203125 C669.19053483 197.47684843 671.23662242 195.70220907 673.3125 193.9375 C681.6297215 186.68312831 689.32548822 178.68012394 696.4375 170.25 C697.9562171 168.46546745 699.47735442 166.68303742 701 164.90185547 C702.0606769 163.66046829 703.11936475 162.41737806 704.17578125 161.17236328 C704.66820312 160.59470215 705.160625 160.01704102 705.66796875 159.421875 C706.32381958 158.6498877 706.32381958 158.6498877 706.99291992 157.86230469 C708.73642139 155.916372 710.57759821 154.08430111 712.4375 152.25 C713.28140957 164.17594682 711.05681689 173.47418629 707.0625 184.625 C706.50783109 186.2203953 705.95429808 187.81618594 705.40185547 189.41235352 C703.7879314 194.04004453 702.12303203 198.64796984 700.4375 203.25 C700.00050781 204.44641113 699.56351563 205.64282227 699.11328125 206.87548828 C688.31596046 235.97846096 674.33561665 264.83821854 656.4375 290.25 C655.69371094 291.32894531 654.94992187 292.40789062 654.18359375 293.51953125 C637.56355683 317.41866358 617.54547583 340.44658103 594.4375 358.25 C593.35105733 359.12406044 592.26652749 360.00050211 591.18359375 360.87890625 C546.76798983 396.72307784 490.61686414 418.36858473 434.32836914 425.92456055 C432.22145907 426.23827327 432.22145907 426.23827327 429.4375 427.25 C424.80691364 427.88000053 420.1513588 428.30172344 415.5 428.75 C414.4625061 428.85038071 414.4625061 428.85038071 413.40405273 428.95278931 C388.7991634 431.30040335 364.14056258 431.56644697 339.4375 431.25 C338.39174805 431.23743164 337.34599609 431.22486328 336.26855469 431.21191406 C300.20566805 430.62967965 263.95321597 424.51347193 229.4375 414.25 C228.45249512 413.95786621 227.46749023 413.66573242 226.45263672 413.36474609 C179.12906521 399.05945683 136.0891964 374.15999788 98.16845703 342.67675781 C96.64547161 341.42142258 95.10344085 340.18926912 93.55859375 338.9609375 C85.93930007 332.89729693 78.92700985 326.2388319 71.87397766 319.53741455 C69.6731572 317.47123975 67.44781031 315.43466981 65.21573162 313.40241528 C57.62535281 306.46824561 50.33091501 299.2632998 43.08460045 291.97226524 C40.95413128 289.82877944 38.82033202 287.68865552 36.68574524 285.54927063 C32.16263296 281.01486307 27.64351969 276.47648346 23.125 271.9375 C17.86398366 266.65275836 12.60127358 261.36972542 7.33432961 256.09089088 C5.24518991 253.99533118 3.1591132 251.89675614 1.07316589 249.79801941 C-4.96748287 243.73405149 -10.99236752 237.74733566 -17.5625 232.25 C-18.62376744 231.31422145 -19.68274794 230.3758355 -20.73828125 229.43359375 C-61.14507743 193.85867267 -109.82955272 172.66703876 -164.25 172.9375 C-164.99540039 172.93899048 -165.74080078 172.94048096 -166.50878906 172.9420166 C-177.34322008 172.98087671 -187.87183546 173.47501198 -198.48535156 175.796875 C-200.63788536 176.26644514 -202.79657992 176.68239827 -204.9609375 177.09375 C-245.69912054 185.13271582 -282.70368514 206.74628003 -312.5625 235.25 C-313.929939 236.44619891 -315.30421895 237.63465673 -316.6875 238.8125 C-323.43458096 244.67586765 -329.71857507 251.071922 -335.5234375 257.8671875 C-337.19966974 259.82600296 -338.89434573 261.76365336 -340.6015625 263.6953125 C-347.00098415 270.96264174 -353.06656211 278.26345582 -358.5625 286.25 C-359.6524588 282.95996524 -359.45766584 280.96608356 -358.48046875 277.6640625 C-358.21339111 276.74923096 -357.94631348 275.83439941 -357.67114258 274.8918457 C-357.36716553 273.89628662 -357.06318848 272.90072754 -356.75 271.875 C-356.43377686 270.82207764 -356.11755371 269.76915527 -355.79174805 268.68432617 C-354.73343569 265.20034466 -353.65199192 261.72435281 -352.5625 258.25 C-352.19157227 257.06325684 -351.82064453 255.87651367 -351.43847656 254.65380859 C-345.46744069 235.73369112 -338.52763648 217.42274796 -330.5625 199.25 C-329.96937012 197.89575928 -329.96937012 197.89575928 -329.36425781 196.51416016 C-323.34050758 182.93280978 -316.0850038 170.05015916 -308.5625 157.25 C-308.12292969 156.50089355 -307.68335938 155.75178711 -307.23046875 154.97998047 C-297.55731417 138.64693573 -286.10154469 123.48191415 -273.5625 109.25 C-272.87542969 108.45207031 -272.18835938 107.65414062 -271.48046875 106.83203125 C-260.82898739 94.67345692 -249.3262565 83.17337125 -236.5625 73.25 C-235.44771047 72.32629795 -234.33591642 71.39897312 -233.2265625 70.46875 C-223.567521 62.42960479 -213.3600923 55.66198818 -202.5625 49.25 C-201.14251709 48.40236084 -201.14251709 48.40236084 -199.69384766 47.53759766 C-152.69142831 19.71419395 -99.73975999 5.754057 -45.5625 1.25 C-44.45704834 1.15428711 -43.35159668 1.05857422 -42.21264648 0.95996094 C-28.16668885 -0.09299054 -14.07781617 0.00279205 0 0 Z " fill="#62BAF3" transform="translate(715.5625,56.75)"/>
</svg>


